<?xml version="1.0" encoding="UTF-8" standalone="no"?>
<!DOCTYPE svg PUBLIC "-//W3C//DTD SVG 1.1//EN"
 "http://www.w3.org/Graphics/SVG/1.1/DTD/svg11.dtd">
<!-- Generated by graphviz version 7.0.4 (20221203.1631)
 -->
<!-- Title: embed::percent::scale Pages: 1 -->
<svg width="575pt" height="227pt"
 viewBox="0.00 0.00 575.00 227.14" xmlns="http://www.w3.org/2000/svg" xmlns:xlink="http://www.w3.org/1999/xlink">
<g id="graph0" class="graph" transform="scale(1 1) rotate(0) translate(4 223.14)">
<title>embed::percent::scale</title>
<!-- Node1 -->
<g id="node1" class="node">
<title>Node1</title>
<g id="a_node1"><a xlink:title="Get the percent after it is scaled to a range. The output percent is bound within the given range....">
<polygon fill="#999999" stroke="#666666" points="110,-121 0,-121 0,-102 110,-102 110,-121"/>
<text text-anchor="middle" x="55" y="-109" font-family="Helvetica,sans-Serif" font-size="10.00">embed::percent::scale</text>
</a>
</g>
</g>
<!-- Node2 -->
<g id="node2" class="node">
<title>Node2</title>
<g id="a_node2"><a xlink:href="classembed_1_1percent.html#a3031fcd41ebdbc14fe77114d239c0b27" target="_top" xlink:title="Generate a percentage based on input relative to the maximum possible value.">
<polygon fill="white" stroke="#666666" points="253,-83.5 146,-83.5 146,-53.5 253,-53.5 253,-83.5"/>
<text text-anchor="start" x="154" y="-71.5" font-family="Helvetica,sans-Serif" font-size="10.00">embed::percent::from</text>
<text text-anchor="middle" x="199.5" y="-60.5" font-family="Helvetica,sans-Serif" font-size="10.00">_ratio</text>
</a>
</g>
</g>
<!-- Node1&#45;&gt;Node2 -->
<g id="edge1" class="edge">
<title>Node1&#45;&gt;Node2</title>
<path fill="none" stroke="#63b8ff" d="M89.05,-101.53C103.21,-97.25 120.24,-92.12 136.59,-87.18"/>
<polygon fill="#63b8ff" stroke="#63b8ff" points="137.19,-90.66 145.76,-84.42 135.17,-83.95 137.19,-90.66"/>
</g>
<!-- Node3 -->
<g id="node3" class="node">
<title>Node3</title>
<g id="a_node3"><a xlink:href="classembed_1_1percent.html#a3635a4d8e47f6a65226ee6391509f3a1" target="_top" xlink:title="Construct 0% percent object.">
<polygon fill="white" stroke="#666666" points="411.5,-196 292.5,-196 292.5,-177 411.5,-177 411.5,-196"/>
<text text-anchor="middle" x="352" y="-184" font-family="Helvetica,sans-Serif" font-size="10.00">embed::percent::percent</text>
</a>
</g>
</g>
<!-- Node1&#45;&gt;Node3 -->
<g id="edge13" class="edge">
<title>Node1&#45;&gt;Node3</title>
<path fill="none" stroke="#63b8ff" d="M61.59,-121.49C73.75,-142.09 104.89,-188.82 146,-206.5 201.52,-230.38 273.08,-214.01 315.3,-200.13"/>
<polygon fill="#63b8ff" stroke="#63b8ff" points="316.39,-203.46 324.71,-196.9 314.12,-196.84 316.39,-203.46"/>
</g>
<!-- Node4 -->
<g id="node4" class="node">
<title>Node4</title>
<g id="a_node4"><a xlink:href="classembed_1_1percent.html#a18867853ebb7f7101932f298ef9ac059" target="_top" xlink:title="Get the 100% value in its raw representation.">
<polygon fill="white" stroke="#666666" points="415,-159 289,-159 289,-140 415,-140 415,-159"/>
<text text-anchor="middle" x="352" y="-147" font-family="Helvetica,sans-Serif" font-size="10.00">embed::percent::raw_max</text>
</a>
</g>
</g>
<!-- Node1&#45;&gt;Node4 -->
<g id="edge14" class="edge">
<title>Node1&#45;&gt;Node4</title>
<path fill="none" stroke="#63b8ff" d="M97.94,-121.4C113.02,-124.69 130.21,-128.11 146,-130.5 189.42,-137.07 238.39,-141.71 277.57,-144.76"/>
<polygon fill="#63b8ff" stroke="#63b8ff" points="277.13,-148.24 287.37,-145.5 277.66,-141.26 277.13,-148.24"/>
</g>
<!-- Node5 -->
<g id="node5" class="node">
<title>Node5</title>
<g id="a_node5"><a xlink:href="classembed_1_1percent.html#addd3062c4b442314f9b135b532367c44" target="_top" xlink:title="Get the &#45;100% value in its raw representation.">
<polygon fill="white" stroke="#666666" points="414,-78 290,-78 290,-59 414,-59 414,-78"/>
<text text-anchor="middle" x="352" y="-66" font-family="Helvetica,sans-Serif" font-size="10.00">embed::percent::raw_min</text>
</a>
</g>
</g>
<!-- Node1&#45;&gt;Node5 -->
<g id="edge15" class="edge">
<title>Node1&#45;&gt;Node5</title>
<path fill="none" stroke="#63b8ff" d="M65.03,-101.51C80.02,-85.78 111.79,-55.83 146,-44.5 202.71,-25.71 272.5,-41.57 314.28,-54.92"/>
<polygon fill="#63b8ff" stroke="#63b8ff" points="313,-58.19 323.6,-58.02 315.21,-51.54 313,-58.19"/>
</g>
<!-- Node6 -->
<g id="node6" class="node">
<title>Node6</title>
<g id="a_node6"><a xlink:href="group__utility.html#ga84ea33bb969785c47247cfe0da9aa98e" target="_top" xlink:title="Perform integer division and round the value up if the next decimal place is greater than or equal to...">
<polygon fill="white" stroke="#666666" points="414.5,-19 289.5,-19 289.5,0 414.5,0 414.5,-19"/>
<text text-anchor="middle" x="352" y="-7" font-family="Helvetica,sans-Serif" font-size="10.00">embed::rounding_division</text>
</a>
</g>
</g>
<!-- Node1&#45;&gt;Node6 -->
<g id="edge16" class="edge">
<title>Node1&#45;&gt;Node6</title>
<path fill="none" stroke="#63b8ff" d="M63.4,-101.77C77.36,-84.24 109.49,-47.66 146,-31.5 187.2,-13.26 237.44,-7.64 277.88,-6.64"/>
<polygon fill="#63b8ff" stroke="#63b8ff" points="277.82,-10.14 287.76,-6.49 277.71,-3.14 277.82,-10.14"/>
</g>
<!-- Node8 -->
<g id="node8" class="node">
<title>Node8</title>
<g id="a_node8"><a xlink:href="classembed_1_1percent.html#a0f9fc596e3daa1948d0112b98544ef4f" target="_top" xlink:title="Get +100% percentage.">
<polygon fill="white" stroke="#666666" points="252,-197 147,-197 147,-178 252,-178 252,-197"/>
<text text-anchor="middle" x="199.5" y="-185" font-family="Helvetica,sans-Serif" font-size="10.00">embed::percent::max</text>
</a>
</g>
</g>
<!-- Node1&#45;&gt;Node8 -->
<g id="edge7" class="edge">
<title>Node1&#45;&gt;Node8</title>
<path fill="none" stroke="#63b8ff" d="M72,-121.37C89.8,-132.19 119.54,-149.85 146,-163.5 152.1,-166.65 158.7,-169.83 165.1,-172.81"/>
<polygon fill="#63b8ff" stroke="#63b8ff" points="163.61,-175.97 174.16,-176.94 166.51,-169.61 163.61,-175.97"/>
</g>
<!-- Node9 -->
<g id="node9" class="node">
<title>Node9</title>
<g id="a_node9"><a xlink:href="classembed_1_1percent.html#a82d4dc647320164d22dc480723c9671b" target="_top" xlink:title="Get &#45;100% percentage.">
<polygon fill="white" stroke="#666666" points="251,-121 148,-121 148,-102 251,-102 251,-121"/>
<text text-anchor="middle" x="199.5" y="-109" font-family="Helvetica,sans-Serif" font-size="10.00">embed::percent::min</text>
</a>
</g>
</g>
<!-- Node1&#45;&gt;Node9 -->
<g id="edge10" class="edge">
<title>Node1&#45;&gt;Node9</title>
<path fill="none" stroke="#63b8ff" d="M110.28,-111.5C118.81,-111.5 127.69,-111.5 136.38,-111.5"/>
<polygon fill="#63b8ff" stroke="#63b8ff" points="136.14,-115 146.14,-111.5 136.14,-108 136.14,-115"/>
</g>
<!-- Node2&#45;&gt;Node3 -->
<g id="edge2" class="edge">
<title>Node2&#45;&gt;Node3</title>
<path fill="none" stroke="#63b8ff" d="M240.56,-83.93C245.08,-86.69 249.35,-89.87 253,-93.5 279.19,-119.6 260.79,-144.6 289,-168.5 289.96,-169.32 290.96,-170.09 291.99,-170.84"/>
<polygon fill="#63b8ff" stroke="#63b8ff" points="290.21,-173.85 300.61,-175.86 293.73,-167.8 290.21,-173.85"/>
</g>
<!-- Node2&#45;&gt;Node4 -->
<g id="edge3" class="edge">
<title>Node2&#45;&gt;Node4</title>
<path fill="none" stroke="#63b8ff" d="M234.01,-84C240.36,-87.06 246.92,-90.32 253,-93.5 277.73,-106.43 305.27,-122.3 324.84,-133.84"/>
<polygon fill="#63b8ff" stroke="#63b8ff" points="322.87,-136.75 333.26,-138.83 326.44,-130.72 322.87,-136.75"/>
</g>
<!-- Node2&#45;&gt;Node5 -->
<g id="edge4" class="edge">
<title>Node2&#45;&gt;Node5</title>
<path fill="none" stroke="#63b8ff" d="M253.14,-68.5C261.24,-68.5 269.72,-68.5 278.17,-68.5"/>
<polygon fill="#63b8ff" stroke="#63b8ff" points="278.11,-72 288.11,-68.5 278.11,-65 278.11,-72"/>
</g>
<!-- Node2&#45;&gt;Node6 -->
<g id="edge5" class="edge">
<title>Node2&#45;&gt;Node6</title>
<path fill="none" stroke="#63b8ff" d="M239.65,-53.15C263,-44 292.43,-32.46 315.17,-23.55"/>
<polygon fill="#63b8ff" stroke="#63b8ff" points="316.3,-26.86 324.33,-19.95 313.74,-20.35 316.3,-26.86"/>
</g>
<!-- Node7 -->
<g id="node7" class="node">
<title>Node7</title>
<g id="a_node7"><a xlink:href="group__utility.html#ga6f0922a28ac81378eb689b2ab4bc299a" target="_top" xlink:title="Generic absolute value function that works for integer types.">
<polygon fill="white" stroke="#666666" points="567,-19 451,-19 451,0 567,0 567,-19"/>
<text text-anchor="middle" x="509" y="-7" font-family="Helvetica,sans-Serif" font-size="10.00">embed::absolute_value</text>
</a>
</g>
</g>
<!-- Node6&#45;&gt;Node7 -->
<g id="edge6" class="edge">
<title>Node6&#45;&gt;Node7</title>
<path fill="none" stroke="#63b8ff" d="M414.71,-9.5C422.74,-9.5 431.01,-9.5 439.15,-9.5"/>
<polygon fill="#63b8ff" stroke="#63b8ff" points="439.02,-13 449.02,-9.5 439.02,-6 439.02,-13"/>
</g>
<!-- Node8&#45;&gt;Node3 -->
<g id="edge8" class="edge">
<title>Node8&#45;&gt;Node3</title>
<path fill="none" stroke="#63b8ff" d="M252.29,-187.16C261.52,-187.09 271.27,-187.03 280.91,-186.97"/>
<polygon fill="#63b8ff" stroke="#63b8ff" points="280.64,-190.47 290.62,-186.9 280.6,-183.47 280.64,-190.47"/>
</g>
<!-- Node8&#45;&gt;Node4 -->
<g id="edge9" class="edge">
<title>Node8&#45;&gt;Node4</title>
<path fill="none" stroke="#63b8ff" d="M240.04,-177.52C258.55,-172.84 280.8,-167.22 300.51,-162.25"/>
<polygon fill="#63b8ff" stroke="#63b8ff" points="301.15,-165.7 309.99,-159.85 299.44,-158.91 301.15,-165.7"/>
</g>
<!-- Node9&#45;&gt;Node3 -->
<g id="edge11" class="edge">
<title>Node9&#45;&gt;Node3</title>
<path fill="none" stroke="#63b8ff" d="M213.3,-121.46C229.93,-133.97 260.23,-155.4 289,-168.5 292.37,-170.03 295.89,-171.47 299.49,-172.81"/>
<polygon fill="#63b8ff" stroke="#63b8ff" points="298.34,-176.12 308.93,-176.05 300.61,-169.49 298.34,-176.12"/>
</g>
<!-- Node9&#45;&gt;Node5 -->
<g id="edge12" class="edge">
<title>Node9&#45;&gt;Node5</title>
<path fill="none" stroke="#63b8ff" d="M235.41,-101.53C256.13,-95.61 282.65,-88.03 305.06,-81.62"/>
<polygon fill="#63b8ff" stroke="#63b8ff" points="305.91,-85.02 314.57,-78.91 303.99,-78.29 305.91,-85.02"/>
</g>
</g>
</svg>
