<?xml version="1.0" encoding="UTF-8" standalone="no"?>
<!DOCTYPE svg PUBLIC "-//W3C//DTD SVG 1.1//EN"
 "http://www.w3.org/Graphics/SVG/1.1/DTD/svg11.dtd">
<!-- Generated by graphviz version 7.0.4 (20221203.1631)
 -->
<!-- Title: embed::percent::percent Pages: 1 -->
<svg width="455pt" height="261pt"
 viewBox="0.00 0.00 455.00 261.00" xmlns="http://www.w3.org/2000/svg" xmlns:xlink="http://www.w3.org/1999/xlink">
<g id="graph0" class="graph" transform="scale(1 1) rotate(0) translate(4 257)">
<title>embed::percent::percent</title>
<!-- Node1 -->
<g id="node1" class="node">
<title>Node1</title>
<g id="a_node1"><a xlink:title="Construct 0% percent object.">
<polygon fill="#999999" stroke="#666666" points="447,-112 328,-112 328,-93 447,-93 447,-112"/>
<text text-anchor="middle" x="387.5" y="-100" font-family="Helvetica,sans-Serif" font-size="10.00">embed::percent::percent</text>
</a>
</g>
</g>
<!-- Node2 -->
<g id="node2" class="node">
<title>Node2</title>
<g id="a_node2"><a xlink:href="classembed_1_1percent.html#ac103b96ed873d2d7500795d98e9aa666" target="_top" xlink:title="Convert a fixed width integer value into a percentage based on its distance to the end of its bit wid...">
<polygon fill="white" stroke="#666666" points="287.5,-217 168.5,-217 168.5,-198 287.5,-198 287.5,-217"/>
<text text-anchor="middle" x="228" y="-205" font-family="Helvetica,sans-Serif" font-size="10.00">embed::percent::convert</text>
</a>
</g>
</g>
<!-- Node1&#45;&gt;Node2 -->
<g id="edge1" class="edge">
<title>Node1&#45;&gt;Node2</title>
<path fill="none" stroke="#63b8ff" d="M370.97,-120.84C353.58,-140.26 323.68,-170.55 292,-188.5 285.64,-192.11 278.52,-195.1 271.42,-197.55"/>
<polygon fill="#63b8ff" stroke="#63b8ff" points="373.51,-123.25 377.45,-113.42 368.23,-118.64 373.51,-123.25"/>
</g>
<!-- Node3 -->
<g id="node3" class="node">
<title>Node3</title>
<g id="a_node3"><a xlink:href="classembed_1_1percent.html#a3031fcd41ebdbc14fe77114d239c0b27" target="_top" xlink:title="Generate a percentage based on input relative to the maximum possible value.">
<polygon fill="white" stroke="#666666" points="281.5,-179.5 174.5,-179.5 174.5,-149.5 281.5,-149.5 281.5,-179.5"/>
<text text-anchor="start" x="182.5" y="-167.5" font-family="Helvetica,sans-Serif" font-size="10.00">embed::percent::from</text>
<text text-anchor="middle" x="228" y="-156.5" font-family="Helvetica,sans-Serif" font-size="10.00">_ratio</text>
</a>
</g>
</g>
<!-- Node1&#45;&gt;Node3 -->
<g id="edge2" class="edge">
<title>Node1&#45;&gt;Node3</title>
<path fill="none" stroke="#63b8ff" d="M350.51,-116.67C325.91,-126.35 293.32,-139.18 268.09,-149.11"/>
<polygon fill="#63b8ff" stroke="#63b8ff" points="351.76,-119.94 359.79,-113.02 349.2,-113.42 351.76,-119.94"/>
</g>
<!-- Node7 -->
<g id="node7" class="node">
<title>Node7</title>
<g id="a_node7"><a xlink:href="classembed_1_1percent.html#afa379fbbb92bc5dc22f0dce8bcf7ea1b" target="_top" xlink:title="Get the percent after it is scaled to a range. The output percent is bound within the given range....">
<polygon fill="white" stroke="#666666" points="119,-130 9,-130 9,-111 119,-111 119,-130"/>
<text text-anchor="middle" x="64" y="-118" font-family="Helvetica,sans-Serif" font-size="10.00">embed::percent::scale</text>
</a>
</g>
</g>
<!-- Node1&#45;&gt;Node7 -->
<g id="edge16" class="edge">
<title>Node1&#45;&gt;Node7</title>
<path fill="none" stroke="#63b8ff" d="M316.4,-106.42C257.17,-109.74 173.56,-114.42 119.31,-117.46"/>
<polygon fill="#63b8ff" stroke="#63b8ff" points="316.23,-109.94 326.02,-105.89 315.84,-102.95 316.23,-109.94"/>
</g>
<!-- Node8 -->
<g id="node8" class="node">
<title>Node8</title>
<g id="a_node8"><a xlink:href="classembed_1_1percent.html#a4a2ae6a33c1dbbefc292c791b325d5ad" target="_top" xlink:title=" ">
<polygon fill="white" stroke="#666666" points="292,-19 164,-19 164,0 292,0 292,-19"/>
<text text-anchor="middle" x="228" y="-7" font-family="Helvetica,sans-Serif" font-size="10.00">embed::percent::from_raw</text>
</a>
</g>
</g>
<!-- Node1&#45;&gt;Node8 -->
<g id="edge7" class="edge">
<title>Node1&#45;&gt;Node8</title>
<path fill="none" stroke="#63b8ff" d="M369.12,-85.18C351.21,-68.23 321.78,-42.8 292,-27.5 285.83,-24.33 279.02,-21.65 272.23,-19.4"/>
<polygon fill="#63b8ff" stroke="#63b8ff" points="366.23,-87.25 375.85,-91.69 371.09,-82.22 366.23,-87.25"/>
</g>
<!-- Node9 -->
<g id="node9" class="node">
<title>Node9</title>
<g id="a_node9"><a xlink:href="classembed_1_1percent.html#a0f9fc596e3daa1948d0112b98544ef4f" target="_top" xlink:title="Get +100% percentage.">
<polygon fill="white" stroke="#666666" points="280.5,-93 175.5,-93 175.5,-74 280.5,-74 280.5,-93"/>
<text text-anchor="middle" x="228" y="-81" font-family="Helvetica,sans-Serif" font-size="10.00">embed::percent::max</text>
</a>
</g>
</g>
<!-- Node1&#45;&gt;Node9 -->
<g id="edge8" class="edge">
<title>Node1&#45;&gt;Node9</title>
<path fill="none" stroke="#63b8ff" d="M316.51,-94.06C304.56,-92.61 292.33,-91.14 280.95,-89.77"/>
<polygon fill="#63b8ff" stroke="#63b8ff" points="316,-97.52 326.35,-95.24 316.84,-90.57 316,-97.52"/>
</g>
<!-- Node12 -->
<g id="node12" class="node">
<title>Node12</title>
<g id="a_node12"><a xlink:href="classembed_1_1percent.html#a82d4dc647320164d22dc480723c9671b" target="_top" xlink:title="Get &#45;100% percentage.">
<polygon fill="white" stroke="#666666" points="279.5,-56 176.5,-56 176.5,-37 279.5,-37 279.5,-56"/>
<text text-anchor="middle" x="228" y="-44" font-family="Helvetica,sans-Serif" font-size="10.00">embed::percent::min</text>
</a>
</g>
</g>
<!-- Node1&#45;&gt;Node12 -->
<g id="edge12" class="edge">
<title>Node1&#45;&gt;Node12</title>
<path fill="none" stroke="#63b8ff" d="M352.14,-88.28C334.33,-81.1 312.13,-72.46 292,-65.5 282.93,-62.36 273.03,-59.24 263.82,-56.46"/>
<polygon fill="#63b8ff" stroke="#63b8ff" points="350.63,-91.45 361.21,-91.97 353.27,-84.96 350.63,-91.45"/>
</g>
<!-- Node4 -->
<g id="node4" class="node">
<title>Node4</title>
<g id="a_node4"><a xlink:href="classembed_1_1rc__servo.html#a026639b8cea2066eb30b175a5bb4c3d0" target="_top" xlink:title="Factory function to create a rc_servo object.">
<polygon fill="white" stroke="#666666" points="123.5,-253 4.5,-253 4.5,-234 123.5,-234 123.5,-253"/>
<text text-anchor="middle" x="64" y="-241" font-family="Helvetica,sans-Serif" font-size="10.00">embed::rc_servo::create</text>
</a>
</g>
</g>
<!-- Node3&#45;&gt;Node4 -->
<g id="edge3" class="edge">
<title>Node3&#45;&gt;Node4</title>
<path fill="none" stroke="#63b8ff" d="M171.39,-185.05C168.84,-186.46 166.37,-187.94 164,-189.5 145.09,-201.93 147.5,-214.03 128,-225.5 122.61,-228.67 116.62,-231.31 110.55,-233.5"/>
<polygon fill="#63b8ff" stroke="#63b8ff" points="172.77,-188.27 180.12,-180.64 169.62,-182.02 172.77,-188.27"/>
</g>
<!-- Node5 -->
<g id="node5" class="node">
<title>Node5</title>
<g id="a_node5"><a xlink:href="group__utility.html#gafa1bc584612147c23f340cfd2786199c" target="_top" xlink:title="Map an target value [x] from an input range [a,b] to an output range [c,d].">
<polygon fill="white" stroke="#666666" points="98.5,-216 29.5,-216 29.5,-197 98.5,-197 98.5,-216"/>
<text text-anchor="middle" x="64" y="-204" font-family="Helvetica,sans-Serif" font-size="10.00">embed::map</text>
</a>
</g>
</g>
<!-- Node3&#45;&gt;Node5 -->
<g id="edge4" class="edge">
<title>Node3&#45;&gt;Node5</title>
<path fill="none" stroke="#63b8ff" d="M163.45,-180.98C141.46,-186.68 117.67,-192.84 98.99,-197.69"/>
<polygon fill="#63b8ff" stroke="#63b8ff" points="164.14,-184.41 172.94,-178.52 162.38,-177.64 164.14,-184.41"/>
</g>
<!-- Node6 -->
<g id="node6" class="node">
<title>Node6</title>
<g id="a_node6"><a xlink:href="structembed_1_1duty__cycle.html#ae3211da17ad871387109a5d901a18183" target="_top" xlink:title="Conversion from duty cycle to percentage.">
<polygon fill="white" stroke="#666666" points="114.5,-178.5 13.5,-178.5 13.5,-148.5 114.5,-148.5 114.5,-178.5"/>
<text text-anchor="start" x="21.5" y="-166.5" font-family="Helvetica,sans-Serif" font-size="10.00">embed::duty_cycle::</text>
<text text-anchor="middle" x="64" y="-155.5" font-family="Helvetica,sans-Serif" font-size="10.00">operator percent</text>
</a>
</g>
</g>
<!-- Node3&#45;&gt;Node6 -->
<g id="edge5" class="edge">
<title>Node3&#45;&gt;Node6</title>
<path fill="none" stroke="#63b8ff" d="M162.96,-164.1C146.97,-164.01 130.05,-163.9 114.86,-163.81"/>
<polygon fill="#63b8ff" stroke="#63b8ff" points="162.87,-167.6 172.89,-164.17 162.91,-160.6 162.87,-167.6"/>
</g>
<!-- Node3&#45;&gt;Node7 -->
<g id="edge6" class="edge">
<title>Node3&#45;&gt;Node7</title>
<path fill="none" stroke="#63b8ff" d="M163.57,-147.27C142.51,-141.55 119.78,-135.38 101.46,-130.4"/>
<polygon fill="#63b8ff" stroke="#63b8ff" points="162.37,-150.57 172.94,-149.82 164.21,-143.82 162.37,-150.57"/>
</g>
<!-- Node9&#45;&gt;Node7 -->
<g id="edge10" class="edge">
<title>Node9&#45;&gt;Node7</title>
<path fill="none" stroke="#63b8ff" d="M172.63,-95.92C151.77,-100.68 128.25,-106.05 108.53,-110.56"/>
<polygon fill="#63b8ff" stroke="#63b8ff" points="173.14,-99.39 182.11,-93.75 171.58,-92.57 173.14,-99.39"/>
</g>
<!-- Node10 -->
<g id="node10" class="node">
<title>Node10</title>
<g id="a_node10"><a xlink:href="classembed_1_1percent.html#af2a395e77ca5d840fc8ee29c4354dacb" target="_top" xlink:title="Assignment operator for a percent object based on a floating point value.">
<polygon fill="white" stroke="#666666" points="128,-93 0,-93 0,-74 128,-74 128,-93"/>
<text text-anchor="middle" x="64" y="-81" font-family="Helvetica,sans-Serif" font-size="10.00">embed::percent::operator=</text>
</a>
</g>
</g>
<!-- Node9&#45;&gt;Node10 -->
<g id="edge9" class="edge">
<title>Node9&#45;&gt;Node10</title>
<path fill="none" stroke="#63b8ff" d="M163.87,-83.5C152.23,-83.5 140.07,-83.5 128.42,-83.5"/>
<polygon fill="#63b8ff" stroke="#63b8ff" points="163.78,-87 173.78,-83.5 163.78,-80 163.78,-87"/>
</g>
<!-- Node11 -->
<g id="node11" class="node">
<title>Node11</title>
<g id="a_node11"><a xlink:href="group__utility.html#ga860cfe310c0207e449c3b382cc49794b" target="_top" xlink:title="convert this percentage value into a string from &#45;1.0 to +1.0">
<polygon fill="white" stroke="#666666" points="108,-56 20,-56 20,-37 108,-37 108,-56"/>
<text text-anchor="middle" x="64" y="-44" font-family="Helvetica,sans-Serif" font-size="10.00">embed::to_string</text>
</a>
</g>
</g>
<!-- Node9&#45;&gt;Node11 -->
<g id="edge11" class="edge">
<title>Node9&#45;&gt;Node11</title>
<path fill="none" stroke="#63b8ff" d="M172.59,-71.07C151.63,-66.29 128.01,-60.89 108.25,-56.38"/>
<polygon fill="#63b8ff" stroke="#63b8ff" points="171.58,-74.43 182.11,-73.25 173.14,-67.61 171.58,-74.43"/>
</g>
<!-- Node12&#45;&gt;Node7 -->
<g id="edge14" class="edge">
<title>Node12&#45;&gt;Node7</title>
<path fill="none" stroke="#63b8ff" d="M172.79,-60.83C169.75,-62.25 166.79,-63.8 164,-65.5 144.39,-77.41 147.69,-90.73 128,-102.5 122.63,-105.71 116.66,-108.37 110.59,-110.57"/>
<polygon fill="#63b8ff" stroke="#63b8ff" points="174.07,-64.09 181.99,-57.05 171.41,-57.61 174.07,-64.09"/>
</g>
<!-- Node12&#45;&gt;Node10 -->
<g id="edge13" class="edge">
<title>Node12&#45;&gt;Node10</title>
<path fill="none" stroke="#63b8ff" d="M172.63,-58.92C151.77,-63.68 128.25,-69.05 108.53,-73.56"/>
<polygon fill="#63b8ff" stroke="#63b8ff" points="173.14,-62.39 182.11,-56.75 171.58,-55.57 173.14,-62.39"/>
</g>
<!-- Node12&#45;&gt;Node11 -->
<g id="edge15" class="edge">
<title>Node12&#45;&gt;Node11</title>
<path fill="none" stroke="#63b8ff" d="M164.68,-46.5C145.84,-46.5 125.58,-46.5 108.27,-46.5"/>
<polygon fill="#63b8ff" stroke="#63b8ff" points="164.67,-50 174.67,-46.5 164.67,-43 164.67,-50"/>
</g>
</g>
</svg>
