<?xml version="1.0" encoding="UTF-8" standalone="no"?>
<!DOCTYPE svg PUBLIC "-//W3C//DTD SVG 1.1//EN"
 "http://www.w3.org/Graphics/SVG/1.1/DTD/svg11.dtd">
<!-- Generated by graphviz version 7.0.5 (20221223.1930)
 -->
<!-- Title: embed::percent::raw_max Pages: 1 -->
<svg width="441pt" height="263pt"
 viewBox="0.00 0.00 441.00 263.00" xmlns="http://www.w3.org/2000/svg" xmlns:xlink="http://www.w3.org/1999/xlink">
<g id="graph0" class="graph" transform="scale(1 1) rotate(0) translate(4 259)">
<title>embed::percent::raw_max</title>
<!-- Node1 -->
<g id="node1" class="node">
<title>Node1</title>
<g id="a_node1"><a xlink:title="Get the 100% value in its raw representation.">
<polygon fill="#999999" stroke="#666666" points="433,-95 307,-95 307,-76 433,-76 433,-95"/>
<text text-anchor="middle" x="370" y="-83" font-family="Helvetica,sans-Serif" font-size="10.00">embed::percent::raw_max</text>
</a>
</g>
</g>
<!-- Node2 -->
<g id="node2" class="node">
<title>Node2</title>
<g id="a_node2"><a xlink:href="classembed_1_1percent.html#a3031fcd41ebdbc14fe77114d239c0b27" target="_top" xlink:title="Generate a percentage based on input relative to the maximum possible value.">
<polygon fill="white" stroke="#666666" points="271,-181.5 164,-181.5 164,-151.5 271,-151.5 271,-181.5"/>
<text text-anchor="start" x="172" y="-169.5" font-family="Helvetica,sans-Serif" font-size="10.00">embed::percent::from</text>
<text text-anchor="middle" x="217.5" y="-158.5" font-family="Helvetica,sans-Serif" font-size="10.00">_ratio</text>
</a>
</g>
</g>
<!-- Node1&#45;&gt;Node2 -->
<g id="edge1" class="edge">
<title>Node1&#45;&gt;Node2</title>
<path fill="none" stroke="#63b8ff" d="M340.65,-100.76C313.9,-115.16 274,-136.63 247.15,-151.08"/>
<polygon fill="#63b8ff" stroke="#63b8ff" points="342.07,-103.97 349.21,-96.15 338.75,-97.81 342.07,-103.97"/>
</g>
<!-- Node6 -->
<g id="node6" class="node">
<title>Node6</title>
<g id="a_node6"><a xlink:href="classembed_1_1percent.html#afa379fbbb92bc5dc22f0dce8bcf7ea1b" target="_top" xlink:title="Get the percent after it is scaled to a range. The output percent is bound within the given range....">
<polygon fill="white" stroke="#666666" points="119,-132 9,-132 9,-113 119,-113 119,-132"/>
<text text-anchor="middle" x="64" y="-120" font-family="Helvetica,sans-Serif" font-size="10.00">embed::percent::scale</text>
</a>
</g>
</g>
<!-- Node1&#45;&gt;Node6 -->
<g id="edge11" class="edge">
<title>Node1&#45;&gt;Node6</title>
<path fill="none" stroke="#63b8ff" d="M311.83,-97.63C298.47,-100.17 284.27,-102.64 271,-104.5 219.8,-111.68 161.02,-116.48 119.39,-119.3"/>
<polygon fill="#63b8ff" stroke="#63b8ff" points="312.17,-101.12 321.32,-95.77 310.83,-94.25 312.17,-101.12"/>
</g>
<!-- Node7 -->
<g id="node7" class="node">
<title>Node7</title>
<g id="a_node7"><a xlink:href="classembed_1_1percent.html#a0f9fc596e3daa1948d0112b98544ef4f" target="_top" xlink:title="Get +100% percentage.">
<polygon fill="white" stroke="#666666" points="270,-95 165,-95 165,-76 270,-76 270,-95"/>
<text text-anchor="middle" x="217.5" y="-83" font-family="Helvetica,sans-Serif" font-size="10.00">embed::percent::max</text>
</a>
</g>
</g>
<!-- Node1&#45;&gt;Node7 -->
<g id="edge6" class="edge">
<title>Node1&#45;&gt;Node7</title>
<path fill="none" stroke="#63b8ff" d="M295.43,-85.5C286.97,-85.5 278.48,-85.5 270.38,-85.5"/>
<polygon fill="#63b8ff" stroke="#63b8ff" points="295.4,-89 305.4,-85.5 295.4,-82 295.4,-89"/>
</g>
<!-- Node8 -->
<g id="node8" class="node">
<title>Node8</title>
<g id="a_node8"><a xlink:href="classembed_1_1percent.html#af2a395e77ca5d840fc8ee29c4354dacb" target="_top" xlink:title="Assignment operator for a percent object based on a floating point value.">
<polygon fill="white" stroke="#666666" points="128,-58 0,-58 0,-39 128,-39 128,-58"/>
<text text-anchor="middle" x="64" y="-46" font-family="Helvetica,sans-Serif" font-size="10.00">embed::percent::operator=</text>
</a>
</g>
</g>
<!-- Node1&#45;&gt;Node8 -->
<g id="edge10" class="edge">
<title>Node1&#45;&gt;Node8</title>
<path fill="none" stroke="#63b8ff" d="M311.83,-73.37C298.47,-70.83 284.27,-68.36 271,-66.5 223.36,-59.82 169.15,-55.2 128.3,-52.32"/>
<polygon fill="#63b8ff" stroke="#63b8ff" points="310.83,-76.75 321.32,-75.23 312.17,-69.88 310.83,-76.75"/>
</g>
<!-- Node10 -->
<g id="node10" class="node">
<title>Node10</title>
<g id="a_node10"><a xlink:href="classembed_1_1percent.html#a642dbcdfc12e1844ab286d524f4c45d7" target="_top" xlink:title="Convert percent to a floating point representation.">
<polygon fill="white" stroke="#666666" points="265,-19 170,-19 170,0 265,0 265,-19"/>
<text text-anchor="middle" x="217.5" y="-7" font-family="Helvetica,sans-Serif" font-size="10.00">embed::percent::to</text>
</a>
</g>
</g>
<!-- Node1&#45;&gt;Node10 -->
<g id="edge12" class="edge">
<title>Node1&#45;&gt;Node10</title>
<path fill="none" stroke="#63b8ff" d="M341.08,-70.12C321.6,-59.53 294.9,-45.29 271,-33.5 261.29,-28.71 250.43,-23.69 241.12,-19.49"/>
<polygon fill="#63b8ff" stroke="#63b8ff" points="339.32,-73.15 349.77,-74.87 342.67,-67 339.32,-73.15"/>
</g>
<!-- Node3 -->
<g id="node3" class="node">
<title>Node3</title>
<g id="a_node3"><a xlink:href="classembed_1_1rc__servo.html#a026639b8cea2066eb30b175a5bb4c3d0" target="_top" xlink:title="Factory function to create a rc_servo object.">
<polygon fill="white" stroke="#666666" points="123.5,-255 4.5,-255 4.5,-236 123.5,-236 123.5,-255"/>
<text text-anchor="middle" x="64" y="-243" font-family="Helvetica,sans-Serif" font-size="10.00">embed::rc_servo::create</text>
</a>
</g>
</g>
<!-- Node2&#45;&gt;Node3 -->
<g id="edge2" class="edge">
<title>Node2&#45;&gt;Node3</title>
<path fill="none" stroke="#63b8ff" d="M189.21,-188.78C172.4,-201.59 149.93,-217.15 128,-227.5 121.42,-230.61 114.19,-233.29 107.05,-235.56"/>
<polygon fill="#63b8ff" stroke="#63b8ff" points="190.99,-191.83 196.73,-182.92 186.69,-186.3 190.99,-191.83"/>
</g>
<!-- Node4 -->
<g id="node4" class="node">
<title>Node4</title>
<g id="a_node4"><a xlink:href="group__utility.html#gafa1bc584612147c23f340cfd2786199c" target="_top" xlink:title="Map an target value [x] from an input range [a,b] to an output range [c,d].">
<polygon fill="white" stroke="#666666" points="98.5,-218 29.5,-218 29.5,-199 98.5,-199 98.5,-218"/>
<text text-anchor="middle" x="64" y="-206" font-family="Helvetica,sans-Serif" font-size="10.00">embed::map</text>
</a>
</g>
</g>
<!-- Node2&#45;&gt;Node4 -->
<g id="edge3" class="edge">
<title>Node2&#45;&gt;Node4</title>
<path fill="none" stroke="#63b8ff" d="M152.49,-184.25C134.03,-189.36 114.61,-194.75 98.78,-199.14"/>
<polygon fill="#63b8ff" stroke="#63b8ff" points="153.35,-187.64 162.05,-181.59 151.48,-180.89 153.35,-187.64"/>
</g>
<!-- Node5 -->
<g id="node5" class="node">
<title>Node5</title>
<g id="a_node5"><a xlink:href="structembed_1_1duty__cycle.html#ae3211da17ad871387109a5d901a18183" target="_top" xlink:title="Conversion from duty cycle to percentage.">
<polygon fill="white" stroke="#666666" points="114.5,-180.5 13.5,-180.5 13.5,-150.5 114.5,-150.5 114.5,-180.5"/>
<text text-anchor="start" x="21.5" y="-168.5" font-family="Helvetica,sans-Serif" font-size="10.00">embed::duty_cycle::</text>
<text text-anchor="middle" x="64" y="-157.5" font-family="Helvetica,sans-Serif" font-size="10.00">operator percent</text>
</a>
</g>
</g>
<!-- Node2&#45;&gt;Node5 -->
<g id="edge4" class="edge">
<title>Node2&#45;&gt;Node5</title>
<path fill="none" stroke="#63b8ff" d="M152.21,-166.08C139.74,-165.99 126.84,-165.91 114.91,-165.83"/>
<polygon fill="#63b8ff" stroke="#63b8ff" points="151.98,-169.57 162,-166.14 152.02,-162.57 151.98,-169.57"/>
</g>
<!-- Node2&#45;&gt;Node6 -->
<g id="edge5" class="edge">
<title>Node2&#45;&gt;Node6</title>
<path fill="none" stroke="#63b8ff" d="M152.57,-147.93C134.26,-142.62 115.01,-137.02 99.23,-132.44"/>
<polygon fill="#63b8ff" stroke="#63b8ff" points="151.48,-151.26 162.06,-150.69 153.43,-144.54 151.48,-151.26"/>
</g>
<!-- Node7&#45;&gt;Node6 -->
<g id="edge8" class="edge">
<title>Node7&#45;&gt;Node6</title>
<path fill="none" stroke="#63b8ff" d="M164.85,-98.12C145.54,-102.83 123.9,-108.12 105.71,-112.56"/>
<polygon fill="#63b8ff" stroke="#63b8ff" points="165.55,-101.55 174.43,-95.77 163.89,-94.75 165.55,-101.55"/>
</g>
<!-- Node7&#45;&gt;Node8 -->
<g id="edge7" class="edge">
<title>Node7&#45;&gt;Node8</title>
<path fill="none" stroke="#63b8ff" d="M164.85,-72.88C145.54,-68.17 123.9,-62.88 105.71,-58.44"/>
<polygon fill="#63b8ff" stroke="#63b8ff" points="163.89,-76.25 174.43,-75.23 165.55,-69.45 163.89,-76.25"/>
</g>
<!-- Node9 -->
<g id="node9" class="node">
<title>Node9</title>
<g id="a_node9"><a xlink:href="group__utility.html#ga860cfe310c0207e449c3b382cc49794b" target="_top" xlink:title="convert this percentage value into a string from &#45;1.0 to +1.0">
<polygon fill="white" stroke="#666666" points="108,-95 20,-95 20,-76 108,-76 108,-95"/>
<text text-anchor="middle" x="64" y="-83" font-family="Helvetica,sans-Serif" font-size="10.00">embed::to_string</text>
</a>
</g>
</g>
<!-- Node7&#45;&gt;Node9 -->
<g id="edge9" class="edge">
<title>Node7&#45;&gt;Node9</title>
<path fill="none" stroke="#63b8ff" d="M153.39,-85.5C138.26,-85.5 122.43,-85.5 108.42,-85.5"/>
<polygon fill="#63b8ff" stroke="#63b8ff" points="153.27,-89 163.27,-85.5 153.27,-82 153.27,-89"/>
</g>
</g>
</svg>
