<?xml version="1.0" encoding="UTF-8" standalone="no"?>
<!DOCTYPE svg PUBLIC "-//W3C//DTD SVG 1.1//EN"
 "http://www.w3.org/Graphics/SVG/1.1/DTD/svg11.dtd">
<!-- Generated by graphviz version 7.0.4 (20221203.1631)
 -->
<!-- Title: embed::servo Pages: 1 -->
<svg width="218pt" height="82pt"
 viewBox="0.00 0.00 217.50 82.00" xmlns="http://www.w3.org/2000/svg" xmlns:xlink="http://www.w3.org/1999/xlink">
<g id="graph0" class="graph" transform="scale(1 1) rotate(0) translate(4 78)">
<title>embed::servo</title>
<!-- Node1 -->
<g id="node1" class="node">
<title>Node1</title>
<g id="a_node1"><a xlink:title="Hardware abstraction for closed loop positional rotary and linear actuators.">
<polygon fill="#999999" stroke="#666666" points="145.5,-74 71.5,-74 71.5,-55 145.5,-55 145.5,-74"/>
<text text-anchor="middle" x="108.5" y="-62" font-family="Helvetica,sans-Serif" font-size="10.00">embed::servo</text>
</a>
</g>
</g>
<!-- Node2 -->
<g id="node2" class="node">
<title>Node2</title>
<g id="a_node2"><a xlink:href="structembed_1_1mock_1_1servo.html" target="_top" xlink:title="mock servo implementation for use in unit tests and simulations.">
<polygon fill="white" stroke="#666666" points="103,-19 0,-19 0,0 103,0 103,-19"/>
<text text-anchor="middle" x="51.5" y="-7" font-family="Helvetica,sans-Serif" font-size="10.00">embed::mock::servo</text>
</a>
</g>
</g>
<!-- Node1&#45;&gt;Node2 -->
<g id="edge1" class="edge">
<title>Node1&#45;&gt;Node2</title>
<path fill="none" stroke="#63b8ff" d="M90.55,-46.81C80.77,-37.72 69.06,-26.82 61.03,-19.36"/>
<polygon fill="#63b8ff" stroke="#63b8ff" points="88.02,-49.23 97.72,-53.48 92.78,-44.11 88.02,-49.23"/>
</g>
<!-- Node3 -->
<g id="node3" class="node">
<title>Node3</title>
<g id="a_node3"><a xlink:href="classembed_1_1rc__servo.html" target="_top" xlink:title="Generic RC servo driver.">
<polygon fill="white" stroke="#666666" points="209.5,-19 121.5,-19 121.5,0 209.5,0 209.5,-19"/>
<text text-anchor="middle" x="165.5" y="-7" font-family="Helvetica,sans-Serif" font-size="10.00">embed::rc_servo</text>
</a>
</g>
</g>
<!-- Node1&#45;&gt;Node3 -->
<g id="edge2" class="edge">
<title>Node1&#45;&gt;Node3</title>
<path fill="none" stroke="#63b8ff" d="M126.45,-46.81C136.23,-37.72 147.94,-26.82 155.97,-19.36"/>
<polygon fill="#63b8ff" stroke="#63b8ff" points="124.22,-44.11 119.28,-53.48 128.98,-49.23 124.22,-44.11"/>
</g>
</g>
</svg>
