<?xml version="1.0" encoding="UTF-8" standalone="no"?>
<!DOCTYPE svg PUBLIC "-//W3C//DTD SVG 1.1//EN"
 "http://www.w3.org/Graphics/SVG/1.1/DTD/svg11.dtd">
<!-- Generated by graphviz version 7.0.5 (20221223.1930)
 -->
<!-- Title: embed::counter_timeout::create Pages: 1 -->
<svg width="593pt" height="64pt"
 viewBox="0.00 0.00 593.00 64.00" xmlns="http://www.w3.org/2000/svg" xmlns:xlink="http://www.w3.org/1999/xlink">
<g id="graph0" class="graph" transform="scale(1 1) rotate(0) translate(4 60)">
<title>embed::counter_timeout::create</title>
<!-- Node1 -->
<g id="node1" class="node">
<title>Node1</title>
<g id="a_node1"><a xlink:title="Create a counter_timeout.">
<polygon fill="#999999" stroke="#666666" points="120,-42.5 0,-42.5 0,-12.5 120,-12.5 120,-42.5"/>
<text text-anchor="start" x="8" y="-30.5" font-family="Helvetica,sans-Serif" font-size="10.00">embed::counter_timeout</text>
<text text-anchor="middle" x="60" y="-19.5" font-family="Helvetica,sans-Serif" font-size="10.00">::create</text>
</a>
</g>
</g>
<!-- Node2 -->
<g id="node2" class="node">
<title>Node2</title>
<g id="a_node2"><a xlink:href="group__utility.html#ga61711bf3d8c25b82fb37db4f53426ef0" target="_top" xlink:title="Calculate the number of cycles of this frequency within the time duration. This function is meant for...">
<polygon fill="white" stroke="#666666" points="262.5,-56 165.5,-56 165.5,-37 262.5,-37 262.5,-56"/>
<text text-anchor="middle" x="214" y="-44" font-family="Helvetica,sans-Serif" font-size="10.00">embed::cycles_per</text>
</a>
</g>
</g>
<!-- Node1&#45;&gt;Node2 -->
<g id="edge1" class="edge">
<title>Node1&#45;&gt;Node2</title>
<path fill="none" stroke="#63b8ff" d="M120.2,-34.9C131.34,-36.29 142.98,-37.75 154.11,-39.14"/>
<polygon fill="#63b8ff" stroke="#63b8ff" points="153.61,-42.6 163.97,-40.37 154.48,-35.66 153.61,-42.6"/>
</g>
<!-- Node5 -->
<g id="node5" class="node">
<title>Node5</title>
<g id="a_node5"><a xlink:href="classembed_1_1counter.html#a02c24fbeaac81ef1030ff8e1a41b0738" target="_top" xlink:title="Get the uptime of the counter since it has started.">
<polygon fill="white" stroke="#666666" points="272,-19 156,-19 156,0 272,0 272,-19"/>
<text text-anchor="middle" x="214" y="-7" font-family="Helvetica,sans-Serif" font-size="10.00">embed::counter::uptime</text>
</a>
</g>
</g>
<!-- Node1&#45;&gt;Node5 -->
<g id="edge5" class="edge">
<title>Node1&#45;&gt;Node5</title>
<path fill="none" stroke="#63b8ff" d="M120.2,-20.49C128.13,-19.55 136.32,-18.58 144.4,-17.62"/>
<polygon fill="#63b8ff" stroke="#63b8ff" points="144.68,-21.11 154.2,-16.46 143.86,-14.16 144.68,-21.11"/>
</g>
<!-- Node3 -->
<g id="node3" class="node">
<title>Node3</title>
<g id="a_node3"><a xlink:href="group__utility.html#ga6f0922a28ac81378eb689b2ab4bc299a" target="_top" xlink:title="Generic absolute value function that works for integer types.">
<polygon fill="white" stroke="#666666" points="585,-56 469,-56 469,-37 585,-37 585,-56"/>
<text text-anchor="middle" x="527" y="-44" font-family="Helvetica,sans-Serif" font-size="10.00">embed::absolute_value</text>
</a>
</g>
</g>
<!-- Node2&#45;&gt;Node3 -->
<g id="edge2" class="edge">
<title>Node2&#45;&gt;Node3</title>
<path fill="none" stroke="#63b8ff" d="M262.91,-46.5C314.83,-46.5 398.12,-46.5 457.06,-46.5"/>
<polygon fill="#63b8ff" stroke="#63b8ff" points="457,-50 467,-46.5 457,-43 457,-50"/>
</g>
<!-- Node4 -->
<g id="node4" class="node">
<title>Node4</title>
<g id="a_node4"><a xlink:href="group__utility.html#ga84ea33bb969785c47247cfe0da9aa98e" target="_top" xlink:title="Perform integer division and round the value up if the next decimal place is greater than or equal to...">
<polygon fill="white" stroke="#666666" points="433,-37 308,-37 308,-18 433,-18 433,-37"/>
<text text-anchor="middle" x="370.5" y="-25" font-family="Helvetica,sans-Serif" font-size="10.00">embed::rounding_division</text>
</a>
</g>
</g>
<!-- Node2&#45;&gt;Node4 -->
<g id="edge3" class="edge">
<title>Node2&#45;&gt;Node4</title>
<path fill="none" stroke="#63b8ff" d="M262.62,-40.64C273.26,-39.34 284.78,-37.92 296.19,-36.52"/>
<polygon fill="#63b8ff" stroke="#63b8ff" points="296.52,-40 306.02,-35.31 295.67,-33.05 296.52,-40"/>
</g>
<!-- Node4&#45;&gt;Node3 -->
<g id="edge4" class="edge">
<title>Node4&#45;&gt;Node3</title>
<path fill="none" stroke="#63b8ff" d="M433.45,-35.12C441.23,-36.08 449.23,-37.06 457.12,-38.03"/>
<polygon fill="#63b8ff" stroke="#63b8ff" points="456.69,-41.5 467.04,-39.25 457.54,-34.55 456.69,-41.5"/>
</g>
</g>
</svg>
