<?xml version="1.0" encoding="UTF-8" standalone="no"?>
<!DOCTYPE svg PUBLIC "-//W3C//DTD SVG 1.1//EN"
 "http://www.w3.org/Graphics/SVG/1.1/DTD/svg11.dtd">
<!-- Generated by graphviz version 7.0.4 (20221203.1631)
 -->
<!-- Title: embed::rc_servo::create Pages: 1 -->
<svg width="592pt" height="138pt"
 viewBox="0.00 0.00 592.00 138.00" xmlns="http://www.w3.org/2000/svg" xmlns:xlink="http://www.w3.org/1999/xlink">
<g id="graph0" class="graph" transform="scale(1 1) rotate(0) translate(4 134)">
<title>embed::rc_servo::create</title>
<!-- Node1 -->
<g id="node1" class="node">
<title>Node1</title>
<g id="a_node1"><a xlink:title="Factory function to create a rc_servo object.">
<polygon fill="#999999" stroke="#666666" points="119,-95 0,-95 0,-76 119,-76 119,-95"/>
<text text-anchor="middle" x="59.5" y="-83" font-family="Helvetica,sans-Serif" font-size="10.00">embed::rc_servo::create</text>
</a>
</g>
</g>
<!-- Node2 -->
<g id="node2" class="node">
<title>Node2</title>
<g id="a_node2"><a xlink:href="classembed_1_1pwm.html#aa1d32008d56245740502bab1e0d2e18b" target="_top" xlink:title="Configure pwm to match the settings supplied.">
<polygon fill="white" stroke="#666666" points="270,-117 155,-117 155,-98 270,-98 270,-117"/>
<text text-anchor="middle" x="212.5" y="-105" font-family="Helvetica,sans-Serif" font-size="10.00">embed::pwm::configure</text>
</a>
</g>
</g>
<!-- Node1&#45;&gt;Node2 -->
<g id="edge1" class="edge">
<title>Node1&#45;&gt;Node2</title>
<path fill="none" stroke="#63b8ff" d="M119.31,-94.07C127.19,-95.22 135.33,-96.4 143.35,-97.57"/>
<polygon fill="#63b8ff" stroke="#63b8ff" points="142.68,-101.01 153.08,-98.99 143.69,-94.08 142.68,-101.01"/>
</g>
<!-- Node3 -->
<g id="node3" class="node">
<title>Node3</title>
<g id="a_node3"><a xlink:href="classembed_1_1percent.html#a3031fcd41ebdbc14fe77114d239c0b27" target="_top" xlink:title="Generate a percentage based on input relative to the maximum possible value.">
<polygon fill="white" stroke="#666666" points="266,-79.5 159,-79.5 159,-49.5 266,-49.5 266,-79.5"/>
<text text-anchor="start" x="167" y="-67.5" font-family="Helvetica,sans-Serif" font-size="10.00">embed::percent::from</text>
<text text-anchor="middle" x="212.5" y="-56.5" font-family="Helvetica,sans-Serif" font-size="10.00">_ratio</text>
</a>
</g>
</g>
<!-- Node1&#45;&gt;Node3 -->
<g id="edge2" class="edge">
<title>Node1&#45;&gt;Node3</title>
<path fill="none" stroke="#63b8ff" d="M119.31,-77.32C128.5,-76.04 138.03,-74.72 147.32,-73.43"/>
<polygon fill="#63b8ff" stroke="#63b8ff" points="147.59,-76.92 157.01,-72.08 146.62,-69.99 147.59,-76.92"/>
</g>
<!-- Node4 -->
<g id="node4" class="node">
<title>Node4</title>
<g id="a_node4"><a xlink:href="classembed_1_1percent.html#a3635a4d8e47f6a65226ee6391509f3a1" target="_top" xlink:title="Construct 0% percent object.">
<polygon fill="white" stroke="#666666" points="428.5,-130 309.5,-130 309.5,-111 428.5,-111 428.5,-130"/>
<text text-anchor="middle" x="369" y="-118" font-family="Helvetica,sans-Serif" font-size="10.00">embed::percent::percent</text>
</a>
</g>
</g>
<!-- Node3&#45;&gt;Node4 -->
<g id="edge3" class="edge">
<title>Node3&#45;&gt;Node4</title>
<path fill="none" stroke="#63b8ff" d="M248.3,-79.83C265.5,-87.14 286.66,-95.74 306,-102.5 310.71,-104.15 315.66,-105.76 320.62,-107.31"/>
<polygon fill="#63b8ff" stroke="#63b8ff" points="319.37,-110.59 329.95,-110.14 321.4,-103.89 319.37,-110.59"/>
</g>
<!-- Node5 -->
<g id="node5" class="node">
<title>Node5</title>
<g id="a_node5"><a xlink:href="classembed_1_1percent.html#a18867853ebb7f7101932f298ef9ac059" target="_top" xlink:title="Get the 100% value in its raw representation.">
<polygon fill="white" stroke="#666666" points="432,-93 306,-93 306,-74 432,-74 432,-93"/>
<text text-anchor="middle" x="369" y="-81" font-family="Helvetica,sans-Serif" font-size="10.00">embed::percent::raw_max</text>
</a>
</g>
</g>
<!-- Node3&#45;&gt;Node5 -->
<g id="edge4" class="edge">
<title>Node3&#45;&gt;Node5</title>
<path fill="none" stroke="#63b8ff" d="M266.24,-70.99C275.35,-72.11 284.97,-73.29 294.51,-74.46"/>
<polygon fill="#63b8ff" stroke="#63b8ff" points="293.78,-77.9 304.14,-75.65 294.64,-70.95 293.78,-77.9"/>
</g>
<!-- Node6 -->
<g id="node6" class="node">
<title>Node6</title>
<g id="a_node6"><a xlink:href="classembed_1_1percent.html#addd3062c4b442314f9b135b532367c44" target="_top" xlink:title="Get the &#45;100% value in its raw representation.">
<polygon fill="white" stroke="#666666" points="431,-56 307,-56 307,-37 431,-37 431,-56"/>
<text text-anchor="middle" x="369" y="-44" font-family="Helvetica,sans-Serif" font-size="10.00">embed::percent::raw_min</text>
</a>
</g>
</g>
<!-- Node3&#45;&gt;Node6 -->
<g id="edge5" class="edge">
<title>Node3&#45;&gt;Node6</title>
<path fill="none" stroke="#63b8ff" d="M266.24,-58.36C275.6,-57.27 285.5,-56.11 295.3,-54.97"/>
<polygon fill="#63b8ff" stroke="#63b8ff" points="295.69,-58.45 305.21,-53.81 294.88,-51.5 295.69,-58.45"/>
</g>
<!-- Node7 -->
<g id="node7" class="node">
<title>Node7</title>
<g id="a_node7"><a xlink:href="group__utility.html#ga84ea33bb969785c47247cfe0da9aa98e" target="_top" xlink:title="Perform integer division and round the value up if the next decimal place is greater than or equal to...">
<polygon fill="white" stroke="#666666" points="431.5,-19 306.5,-19 306.5,0 431.5,0 431.5,-19"/>
<text text-anchor="middle" x="369" y="-7" font-family="Helvetica,sans-Serif" font-size="10.00">embed::rounding_division</text>
</a>
</g>
</g>
<!-- Node3&#45;&gt;Node7 -->
<g id="edge6" class="edge">
<title>Node3&#45;&gt;Node7</title>
<path fill="none" stroke="#63b8ff" d="M251.07,-49.15C267.78,-42.51 287.77,-34.83 306,-28.5 311.51,-26.59 317.33,-24.67 323.1,-22.83"/>
<polygon fill="#63b8ff" stroke="#63b8ff" points="324.12,-26.18 332.62,-19.86 322.03,-19.5 324.12,-26.18"/>
</g>
<!-- Node8 -->
<g id="node8" class="node">
<title>Node8</title>
<g id="a_node8"><a xlink:href="group__utility.html#ga6f0922a28ac81378eb689b2ab4bc299a" target="_top" xlink:title="Generic absolute value function that works for integer types.">
<polygon fill="white" stroke="#666666" points="584,-19 468,-19 468,0 584,0 584,-19"/>
<text text-anchor="middle" x="526" y="-7" font-family="Helvetica,sans-Serif" font-size="10.00">embed::absolute_value</text>
</a>
</g>
</g>
<!-- Node7&#45;&gt;Node8 -->
<g id="edge7" class="edge">
<title>Node7&#45;&gt;Node8</title>
<path fill="none" stroke="#63b8ff" d="M431.71,-9.5C439.74,-9.5 448.01,-9.5 456.15,-9.5"/>
<polygon fill="#63b8ff" stroke="#63b8ff" points="456.02,-13 466.02,-9.5 456.02,-6 456.02,-13"/>
</g>
</g>
</svg>
