<?xml version="1.0" encoding="UTF-8" standalone="no"?>
<!DOCTYPE svg PUBLIC "-//W3C//DTD SVG 1.1//EN"
 "http://www.w3.org/Graphics/SVG/1.1/DTD/svg11.dtd">
<!-- Generated by graphviz version 7.0.4 (20221203.1631)
 -->
<!-- Title: embed::counter::uptime Pages: 1 -->
<svg width="645pt" height="99pt"
 viewBox="0.00 0.00 645.00 98.50" xmlns="http://www.w3.org/2000/svg" xmlns:xlink="http://www.w3.org/1999/xlink">
<g id="graph0" class="graph" transform="scale(1 1) rotate(0) translate(4 94.5)">
<title>embed::counter::uptime</title>
<!-- Node1 -->
<g id="node1" class="node">
<title>Node1</title>
<g id="a_node1"><a xlink:title="Get the uptime of the counter since it has started.">
<polygon fill="#999999" stroke="#666666" points="637,-48.5 521,-48.5 521,-29.5 637,-29.5 637,-48.5"/>
<text text-anchor="middle" x="579" y="-36.5" font-family="Helvetica,sans-Serif" font-size="10.00">embed::counter::uptime</text>
</a>
</g>
</g>
<!-- Node2 -->
<g id="node2" class="node">
<title>Node2</title>
<g id="a_node2"><a xlink:href="classembed_1_1counter__timeout.html#aa5741370521bba1742b8d4080f26ac0d" target="_top" xlink:title="Create a counter_timeout.">
<polygon fill="white" stroke="#666666" points="485,-78 365,-78 365,-48 485,-48 485,-78"/>
<text text-anchor="start" x="373" y="-66" font-family="Helvetica,sans-Serif" font-size="10.00">embed::counter_timeout</text>
<text text-anchor="middle" x="425" y="-55" font-family="Helvetica,sans-Serif" font-size="10.00">::create</text>
</a>
</g>
</g>
<!-- Node1&#45;&gt;Node2 -->
<g id="edge1" class="edge">
<title>Node1&#45;&gt;Node2</title>
<path fill="none" stroke="#63b8ff" d="M509.32,-49.84C501.31,-51.11 493.19,-52.39 485.32,-53.63"/>
<polygon fill="#63b8ff" stroke="#63b8ff" points="509.71,-53.33 519.04,-48.31 508.62,-46.41 509.71,-53.33"/>
</g>
<!-- Node6 -->
<g id="node6" class="node">
<title>Node6</title>
<g id="a_node6"><a xlink:href="classembed_1_1counter__timeout.html#a0e0ca951312cdae3cd016e8984eff74b" target="_top" xlink:title="Call this object to check if it has timed out.">
<polygon fill="white" stroke="#666666" points="485,-30 365,-30 365,0 485,0 485,-30"/>
<text text-anchor="start" x="373" y="-18" font-family="Helvetica,sans-Serif" font-size="10.00">embed::counter_timeout</text>
<text text-anchor="middle" x="425" y="-7" font-family="Helvetica,sans-Serif" font-size="10.00">::operator()</text>
</a>
</g>
</g>
<!-- Node1&#45;&gt;Node6 -->
<g id="edge6" class="edge">
<title>Node1&#45;&gt;Node6</title>
<path fill="none" stroke="#63b8ff" d="M509.32,-28.16C501.31,-26.89 493.19,-25.61 485.32,-24.37"/>
<polygon fill="#63b8ff" stroke="#63b8ff" points="508.62,-31.59 519.04,-29.69 509.71,-24.67 508.62,-31.59"/>
</g>
<!-- Node3 -->
<g id="node3" class="node">
<title>Node3</title>
<g id="a_node3"><a xlink:href="group__counter.html#ga4f1edcd06bf52209d5293e54d0d1beb6" target="_top" xlink:title="Create a timeout object based on embed::counter.">
<polygon fill="white" stroke="#666666" points="329,-72.5 214,-72.5 214,-53.5 329,-53.5 329,-72.5"/>
<text text-anchor="middle" x="271.5" y="-60.5" font-family="Helvetica,sans-Serif" font-size="10.00">embed::create_timeout</text>
</a>
</g>
</g>
<!-- Node2&#45;&gt;Node3 -->
<g id="edge2" class="edge">
<title>Node2&#45;&gt;Node3</title>
<path fill="none" stroke="#63b8ff" d="M353.28,-63C345.24,-63 337.12,-63 329.29,-63"/>
<polygon fill="#63b8ff" stroke="#63b8ff" points="353.04,-66.5 363.04,-63 353.04,-59.5 353.04,-66.5"/>
</g>
<!-- Node4 -->
<g id="node4" class="node">
<title>Node4</title>
<g id="a_node4"><a xlink:href="group__counter.html#ga53e2d568aa13881c4213fe89a2e1c42e" target="_top" xlink:title="Delay execution for a duration of time using a hardware counter.">
<polygon fill="white" stroke="#666666" points="178,-72.5 105,-72.5 105,-53.5 178,-53.5 178,-72.5"/>
<text text-anchor="middle" x="141.5" y="-60.5" font-family="Helvetica,sans-Serif" font-size="10.00">embed::delay</text>
</a>
</g>
</g>
<!-- Node3&#45;&gt;Node4 -->
<g id="edge3" class="edge">
<title>Node3&#45;&gt;Node4</title>
<path fill="none" stroke="#63b8ff" d="M202.3,-63C194.01,-63 185.81,-63 178.26,-63"/>
<polygon fill="#63b8ff" stroke="#63b8ff" points="202.1,-66.5 212.1,-63 202.1,-59.5 202.1,-66.5"/>
</g>
<!-- Node4&#45;&gt;Node4 -->
<g id="edge4" class="edge">
<title>Node4&#45;&gt;Node4</title>
<path fill="none" stroke="#63b8ff" d="M160.49,-83.93C158.12,-87.79 151.79,-90.5 141.5,-90.5 122.69,-90.5 117.11,-81.44 124.75,-72.87"/>
<polygon fill="#63b8ff" stroke="#63b8ff" points="163.97,-83.46 158.55,-74.35 157.11,-84.85 163.97,-83.46"/>
</g>
<!-- Node5 -->
<g id="node5" class="node">
<title>Node5</title>
<g id="a_node5"><a xlink:href="group__serial.html#ga56439487351e68f734fdf9b6330da4d2" target="_top" xlink:title="Read bytes from a serial port.">
<polygon fill="white" stroke="#666666" points="69,-72.5 0,-72.5 0,-53.5 69,-53.5 69,-72.5"/>
<text text-anchor="middle" x="34.5" y="-60.5" font-family="Helvetica,sans-Serif" font-size="10.00">embed::read</text>
</a>
</g>
</g>
<!-- Node4&#45;&gt;Node5 -->
<g id="edge5" class="edge">
<title>Node4&#45;&gt;Node5</title>
<path fill="none" stroke="#63b8ff" d="M93.42,-63C85.33,-63 77.07,-63 69.41,-63"/>
<polygon fill="#63b8ff" stroke="#63b8ff" points="93.15,-66.5 103.15,-63 93.15,-59.5 93.15,-66.5"/>
</g>
</g>
</svg>
