<?xml version="1.0" encoding="UTF-8" standalone="no"?>
<!DOCTYPE svg PUBLIC "-//W3C//DTD SVG 1.1//EN"
 "http://www.w3.org/Graphics/SVG/1.1/DTD/svg11.dtd">
<!-- Generated by graphviz version 7.0.4 (20221203.1631)
 -->
<!-- Title: embed::static_memory_resource::memory_available Pages: 1 -->
<svg width="311pt" height="86pt"
 viewBox="0.00 0.00 311.00 86.00" xmlns="http://www.w3.org/2000/svg" xmlns:xlink="http://www.w3.org/1999/xlink">
<g id="graph0" class="graph" transform="scale(1 1) rotate(0) translate(4 82)">
<title>embed::static_memory_resource::memory_available</title>
<!-- Node1 -->
<g id="node1" class="node">
<title>Node1</title>
<g id="a_node1"><a xlink:title=" ">
<polygon fill="#999999" stroke="#666666" points="142,-54 0,-54 0,-24 142,-24 142,-54"/>
<text text-anchor="start" x="8" y="-42" font-family="Helvetica,sans-Serif" font-size="10.00">embed::static_memory</text>
<text text-anchor="middle" x="71" y="-31" font-family="Helvetica,sans-Serif" font-size="10.00">_resource::memory_available</text>
</a>
</g>
</g>
<!-- Node2 -->
<g id="node2" class="node">
<title>Node2</title>
<g id="a_node2"><a xlink:href="classembed_1_1static__memory__resource.html#acf992d62f5ef925856fda6efd9b8ba9d" target="_top" xlink:title=" ">
<polygon fill="white" stroke="#666666" points="297.5,-78 183.5,-78 183.5,-48 297.5,-48 297.5,-78"/>
<text text-anchor="start" x="191.5" y="-66" font-family="Helvetica,sans-Serif" font-size="10.00">embed::static_memory</text>
<text text-anchor="middle" x="240.5" y="-55" font-family="Helvetica,sans-Serif" font-size="10.00">_resource::capacity</text>
</a>
</g>
</g>
<!-- Node1&#45;&gt;Node2 -->
<g id="edge1" class="edge">
<title>Node1&#45;&gt;Node2</title>
<path fill="none" stroke="#63b8ff" d="M142.06,-49.04C151.92,-50.45 162.04,-51.9 171.85,-53.31"/>
<polygon fill="#63b8ff" stroke="#63b8ff" points="171.3,-56.76 181.7,-54.72 172.3,-49.83 171.3,-56.76"/>
</g>
<!-- Node3 -->
<g id="node3" class="node">
<title>Node3</title>
<g id="a_node3"><a xlink:href="classembed_1_1static__memory__resource.html#af461b8e05b7f1e0f064a17d51016a3e3" target="_top" xlink:title=" ">
<polygon fill="white" stroke="#666666" points="303,-30 178,-30 178,0 303,0 303,-30"/>
<text text-anchor="start" x="186" y="-18" font-family="Helvetica,sans-Serif" font-size="10.00">embed::static_memory</text>
<text text-anchor="middle" x="240.5" y="-7" font-family="Helvetica,sans-Serif" font-size="10.00">_resource::memory_used</text>
</a>
</g>
</g>
<!-- Node1&#45;&gt;Node3 -->
<g id="edge2" class="edge">
<title>Node1&#45;&gt;Node3</title>
<path fill="none" stroke="#63b8ff" d="M142.06,-28.96C150.11,-27.81 158.32,-26.63 166.41,-25.47"/>
<polygon fill="#63b8ff" stroke="#63b8ff" points="166.81,-28.95 176.21,-24.07 165.82,-22.02 166.81,-28.95"/>
</g>
</g>
</svg>
