<?xml version="1.0" encoding="UTF-8" standalone="no"?>
<!DOCTYPE svg PUBLIC "-//W3C//DTD SVG 1.1//EN"
 "http://www.w3.org/Graphics/SVG/1.1/DTD/svg11.dtd">
<!-- Generated by graphviz version 7.0.4 (20221203.1631)
 -->
<!-- Title: embed::percent::raw_value Pages: 1 -->
<svg width="281pt" height="64pt"
 viewBox="0.00 0.00 281.00 64.00" xmlns="http://www.w3.org/2000/svg" xmlns:xlink="http://www.w3.org/1999/xlink">
<g id="graph0" class="graph" transform="scale(1 1) rotate(0) translate(4 60)">
<title>embed::percent::raw_value</title>
<!-- Node1 -->
<g id="node1" class="node">
<title>Node1</title>
<g id="a_node1"><a xlink:title="Get raw integral value.">
<polygon fill="#999999" stroke="#666666" points="273,-42.5 170,-42.5 170,-12.5 273,-12.5 273,-42.5"/>
<text text-anchor="start" x="178" y="-30.5" font-family="Helvetica,sans-Serif" font-size="10.00">embed::percent::raw</text>
<text text-anchor="middle" x="221.5" y="-19.5" font-family="Helvetica,sans-Serif" font-size="10.00">_value</text>
</a>
</g>
</g>
<!-- Node2 -->
<g id="node2" class="node">
<title>Node2</title>
<g id="a_node2"><a xlink:href="classembed_1_1percent.html#a706fa1b17fbcb4ccdd8cc6b037b224ee" target="_top" xlink:title="Comparison operator.">
<polygon fill="white" stroke="#666666" points="134,-56 0,-56 0,-37 134,-37 134,-56"/>
<text text-anchor="middle" x="67" y="-44" font-family="Helvetica,sans-Serif" font-size="10.00">embed::percent::operator==</text>
</a>
</g>
</g>
<!-- Node1&#45;&gt;Node2 -->
<g id="edge1" class="edge">
<title>Node1&#45;&gt;Node2</title>
<path fill="none" stroke="#63b8ff" d="M158.31,-35.25C150.4,-36.23 142.27,-37.25 134.29,-38.24"/>
<polygon fill="#63b8ff" stroke="#63b8ff" points="158.73,-38.72 168.22,-34.01 157.86,-31.78 158.73,-38.72"/>
</g>
<!-- Node3 -->
<g id="node3" class="node">
<title>Node3</title>
<g id="a_node3"><a xlink:href="group__utility.html#ga860cfe310c0207e449c3b382cc49794b" target="_top" xlink:title="convert this percentage value into a string from &#45;1.0 to +1.0">
<polygon fill="white" stroke="#666666" points="111,-19 23,-19 23,0 111,0 111,-19"/>
<text text-anchor="middle" x="67" y="-7" font-family="Helvetica,sans-Serif" font-size="10.00">embed::to_string</text>
</a>
</g>
</g>
<!-- Node1&#45;&gt;Node3 -->
<g id="edge2" class="edge">
<title>Node1&#45;&gt;Node3</title>
<path fill="none" stroke="#63b8ff" d="M158.42,-20.17C142.65,-18.31 126.04,-16.35 111.42,-14.62"/>
<polygon fill="#63b8ff" stroke="#63b8ff" points="157.88,-23.63 168.22,-21.33 158.7,-16.68 157.88,-23.63"/>
</g>
</g>
</svg>
