<?xml version="1.0" encoding="UTF-8" standalone="no"?>
<!DOCTYPE svg PUBLIC "-//W3C//DTD SVG 1.1//EN"
 "http://www.w3.org/Graphics/SVG/1.1/DTD/svg11.dtd">
<!-- Generated by graphviz version 7.0.5 (20221223.1930)
 -->
<!-- Title: embed::percent::raw_min Pages: 1 -->
<svg width="439pt" height="224pt"
 viewBox="0.00 0.00 439.00 224.00" xmlns="http://www.w3.org/2000/svg" xmlns:xlink="http://www.w3.org/1999/xlink">
<g id="graph0" class="graph" transform="scale(1 1) rotate(0) translate(4 220)">
<title>embed::percent::raw_min</title>
<!-- Node1 -->
<g id="node1" class="node">
<title>Node1</title>
<g id="a_node1"><a xlink:title="Get the &#45;100% value in its raw representation.">
<polygon fill="#999999" stroke="#666666" points="431,-93 307,-93 307,-74 431,-74 431,-93"/>
<text text-anchor="middle" x="369" y="-81" font-family="Helvetica,sans-Serif" font-size="10.00">embed::percent::raw_min</text>
</a>
</g>
</g>
<!-- Node2 -->
<g id="node2" class="node">
<title>Node2</title>
<g id="a_node2"><a xlink:href="classembed_1_1percent.html#a3031fcd41ebdbc14fe77114d239c0b27" target="_top" xlink:title="Generate a percentage based on input relative to the maximum possible value.">
<polygon fill="white" stroke="#666666" points="271,-141.5 164,-141.5 164,-111.5 271,-111.5 271,-141.5"/>
<text text-anchor="start" x="172" y="-129.5" font-family="Helvetica,sans-Serif" font-size="10.00">embed::percent::from</text>
<text text-anchor="middle" x="217.5" y="-118.5" font-family="Helvetica,sans-Serif" font-size="10.00">_ratio</text>
</a>
</g>
</g>
<!-- Node1&#45;&gt;Node2 -->
<g id="edge1" class="edge">
<title>Node1&#45;&gt;Node2</title>
<path fill="none" stroke="#63b8ff" d="M322.55,-96.57C306.43,-101.21 288.14,-106.47 271.44,-111.27"/>
<polygon fill="#63b8ff" stroke="#63b8ff" points="323.23,-100.02 331.87,-93.89 321.29,-93.29 323.23,-100.02"/>
</g>
<!-- Node6 -->
<g id="node6" class="node">
<title>Node6</title>
<g id="a_node6"><a xlink:href="classembed_1_1percent.html#afa379fbbb92bc5dc22f0dce8bcf7ea1b" target="_top" xlink:title="Get the percent after it is scaled to a range. The output percent is bound within the given range....">
<polygon fill="white" stroke="#666666" points="119,-93 9,-93 9,-74 119,-74 119,-93"/>
<text text-anchor="middle" x="64" y="-81" font-family="Helvetica,sans-Serif" font-size="10.00">embed::percent::scale</text>
</a>
</g>
</g>
<!-- Node1&#45;&gt;Node6 -->
<g id="edge10" class="edge">
<title>Node1&#45;&gt;Node6</title>
<path fill="none" stroke="#63b8ff" d="M295.41,-83.5C241.2,-83.5 168.28,-83.5 119.12,-83.5"/>
<polygon fill="#63b8ff" stroke="#63b8ff" points="295.17,-87 305.17,-83.5 295.17,-80 295.17,-87"/>
</g>
<!-- Node7 -->
<g id="node7" class="node">
<title>Node7</title>
<g id="a_node7"><a xlink:href="classembed_1_1percent.html#a82d4dc647320164d22dc480723c9671b" target="_top" xlink:title="Get &#45;100% percentage.">
<polygon fill="white" stroke="#666666" points="269,-55 166,-55 166,-36 269,-36 269,-55"/>
<text text-anchor="middle" x="217.5" y="-43" font-family="Helvetica,sans-Serif" font-size="10.00">embed::percent::min</text>
</a>
</g>
</g>
<!-- Node1&#45;&gt;Node7 -->
<g id="edge6" class="edge">
<title>Node1&#45;&gt;Node7</title>
<path fill="none" stroke="#63b8ff" d="M317.57,-70.68C298.06,-65.72 276.07,-60.13 257.78,-55.48"/>
<polygon fill="#63b8ff" stroke="#63b8ff" points="316.7,-74.07 327.25,-73.14 318.42,-67.29 316.7,-74.07"/>
</g>
<!-- Node3 -->
<g id="node3" class="node">
<title>Node3</title>
<g id="a_node3"><a xlink:href="classembed_1_1rc__servo.html#a026639b8cea2066eb30b175a5bb4c3d0" target="_top" xlink:title="Factory function to create a rc_servo object.">
<polygon fill="white" stroke="#666666" points="123.5,-216 4.5,-216 4.5,-197 123.5,-197 123.5,-216"/>
<text text-anchor="middle" x="64" y="-204" font-family="Helvetica,sans-Serif" font-size="10.00">embed::rc_servo::create</text>
</a>
</g>
</g>
<!-- Node2&#45;&gt;Node3 -->
<g id="edge2" class="edge">
<title>Node2&#45;&gt;Node3</title>
<path fill="none" stroke="#63b8ff" d="M189.59,-148.91C172.76,-161.99 150.15,-177.95 128,-188.5 121.43,-191.63 114.2,-194.32 107.07,-196.6"/>
<polygon fill="#63b8ff" stroke="#63b8ff" points="191.46,-151.9 197.12,-142.94 187.11,-146.42 191.46,-151.9"/>
</g>
<!-- Node4 -->
<g id="node4" class="node">
<title>Node4</title>
<g id="a_node4"><a xlink:href="group__utility.html#gafa1bc584612147c23f340cfd2786199c" target="_top" xlink:title="Map an target value [x] from an input range [a,b] to an output range [c,d].">
<polygon fill="white" stroke="#666666" points="98.5,-179 29.5,-179 29.5,-160 98.5,-160 98.5,-179"/>
<text text-anchor="middle" x="64" y="-167" font-family="Helvetica,sans-Serif" font-size="10.00">embed::map</text>
</a>
</g>
</g>
<!-- Node2&#45;&gt;Node4 -->
<g id="edge3" class="edge">
<title>Node2&#45;&gt;Node4</title>
<path fill="none" stroke="#63b8ff" d="M152.49,-144.67C134.03,-149.91 114.61,-155.42 98.78,-159.91"/>
<polygon fill="#63b8ff" stroke="#63b8ff" points="153.39,-148.05 162.06,-141.95 151.48,-141.32 153.39,-148.05"/>
</g>
<!-- Node5 -->
<g id="node5" class="node">
<title>Node5</title>
<g id="a_node5"><a xlink:href="structembed_1_1duty__cycle.html#ae3211da17ad871387109a5d901a18183" target="_top" xlink:title="Conversion from duty cycle to percentage.">
<polygon fill="white" stroke="#666666" points="114.5,-141.5 13.5,-141.5 13.5,-111.5 114.5,-111.5 114.5,-141.5"/>
<text text-anchor="start" x="21.5" y="-129.5" font-family="Helvetica,sans-Serif" font-size="10.00">embed::duty_cycle::</text>
<text text-anchor="middle" x="64" y="-118.5" font-family="Helvetica,sans-Serif" font-size="10.00">operator percent</text>
</a>
</g>
</g>
<!-- Node2&#45;&gt;Node5 -->
<g id="edge4" class="edge">
<title>Node2&#45;&gt;Node5</title>
<path fill="none" stroke="#63b8ff" d="M152.21,-126.5C139.74,-126.5 126.84,-126.5 114.91,-126.5"/>
<polygon fill="#63b8ff" stroke="#63b8ff" points="152,-130 162,-126.5 152,-123 152,-130"/>
</g>
<!-- Node2&#45;&gt;Node6 -->
<g id="edge5" class="edge">
<title>Node2&#45;&gt;Node6</title>
<path fill="none" stroke="#63b8ff" d="M152.5,-108.33C134.56,-103.24 115.73,-97.9 100.14,-93.47"/>
<polygon fill="#63b8ff" stroke="#63b8ff" points="151.48,-111.68 162.06,-111.05 153.39,-104.95 151.48,-111.68"/>
</g>
<!-- Node7&#45;&gt;Node6 -->
<g id="edge8" class="edge">
<title>Node7&#45;&gt;Node6</title>
<path fill="none" stroke="#63b8ff" d="M165.67,-58.25C145.83,-63.23 123.43,-68.84 104.8,-73.52"/>
<polygon fill="#63b8ff" stroke="#63b8ff" points="166.38,-61.68 175.23,-55.85 164.68,-54.89 166.38,-61.68"/>
</g>
<!-- Node8 -->
<g id="node8" class="node">
<title>Node8</title>
<g id="a_node8"><a xlink:href="classembed_1_1percent.html#af2a395e77ca5d840fc8ee29c4354dacb" target="_top" xlink:title="Assignment operator for a percent object based on a floating point value.">
<polygon fill="white" stroke="#666666" points="128,-56 0,-56 0,-37 128,-37 128,-56"/>
<text text-anchor="middle" x="64" y="-44" font-family="Helvetica,sans-Serif" font-size="10.00">embed::percent::operator=</text>
</a>
</g>
</g>
<!-- Node7&#45;&gt;Node8 -->
<g id="edge7" class="edge">
<title>Node7&#45;&gt;Node8</title>
<path fill="none" stroke="#63b8ff" d="M154.2,-45.91C145.68,-45.97 136.92,-46.03 128.38,-46.08"/>
<polygon fill="#63b8ff" stroke="#63b8ff" points="154.14,-49.41 164.12,-45.85 154.09,-42.41 154.14,-49.41"/>
</g>
<!-- Node9 -->
<g id="node9" class="node">
<title>Node9</title>
<g id="a_node9"><a xlink:href="group__utility.html#ga860cfe310c0207e449c3b382cc49794b" target="_top" xlink:title="convert this percentage value into a string from &#45;1.0 to +1.0">
<polygon fill="white" stroke="#666666" points="108,-19 20,-19 20,0 108,0 108,-19"/>
<text text-anchor="middle" x="64" y="-7" font-family="Helvetica,sans-Serif" font-size="10.00">embed::to_string</text>
</a>
</g>
</g>
<!-- Node7&#45;&gt;Node9 -->
<g id="edge9" class="edge">
<title>Node7&#45;&gt;Node9</title>
<path fill="none" stroke="#63b8ff" d="M163.73,-32.96C145.14,-28.54 124.5,-23.64 106.93,-19.46"/>
<polygon fill="#63b8ff" stroke="#63b8ff" points="162.69,-36.31 173.23,-35.22 164.31,-29.5 162.69,-36.31"/>
</g>
</g>
</svg>
