<?xml version="1.0" encoding="UTF-8" standalone="no"?>
<!DOCTYPE svg PUBLIC "-//W3C//DTD SVG 1.1//EN"
 "http://www.w3.org/Graphics/SVG/1.1/DTD/svg11.dtd">
<!-- Generated by graphviz version 7.0.4 (20221203.1631)
 -->
<!-- Title: embed::percent::from_ratio Pages: 1 -->
<svg width="270pt" height="150pt"
 viewBox="0.00 0.00 270.00 150.00" xmlns="http://www.w3.org/2000/svg" xmlns:xlink="http://www.w3.org/1999/xlink">
<g id="graph0" class="graph" transform="scale(1 1) rotate(0) translate(4 146)">
<title>embed::percent::from_ratio</title>
<!-- Node1 -->
<g id="node1" class="node">
<title>Node1</title>
<g id="a_node1"><a xlink:title="Generate a percentage based on input relative to the maximum possible value.">
<polygon fill="#999999" stroke="#666666" points="262,-88.5 155,-88.5 155,-58.5 262,-58.5 262,-88.5"/>
<text text-anchor="start" x="163" y="-76.5" font-family="Helvetica,sans-Serif" font-size="10.00">embed::percent::from</text>
<text text-anchor="middle" x="208.5" y="-65.5" font-family="Helvetica,sans-Serif" font-size="10.00">_ratio</text>
</a>
</g>
</g>
<!-- Node2 -->
<g id="node2" class="node">
<title>Node2</title>
<g id="a_node2"><a xlink:href="classembed_1_1rc__servo.html#a026639b8cea2066eb30b175a5bb4c3d0" target="_top" xlink:title="Factory function to create a rc_servo object.">
<polygon fill="white" stroke="#666666" points="119,-142 0,-142 0,-123 119,-123 119,-142"/>
<text text-anchor="middle" x="59.5" y="-130" font-family="Helvetica,sans-Serif" font-size="10.00">embed::rc_servo::create</text>
</a>
</g>
</g>
<!-- Node1&#45;&gt;Node2 -->
<g id="edge1" class="edge">
<title>Node1&#45;&gt;Node2</title>
<path fill="none" stroke="#63b8ff" d="M166.48,-93.91C151.7,-100.89 134.78,-108.45 119,-114.5 111.56,-117.35 103.46,-120.08 95.72,-122.51"/>
<polygon fill="#63b8ff" stroke="#63b8ff" points="167.94,-97.09 175.45,-89.62 164.92,-90.78 167.94,-97.09"/>
</g>
<!-- Node3 -->
<g id="node3" class="node">
<title>Node3</title>
<g id="a_node3"><a xlink:href="group__utility.html#gafa1bc584612147c23f340cfd2786199c" target="_top" xlink:title="Map an target value [x] from an input range [a,b] to an output range [c,d].">
<polygon fill="white" stroke="#666666" points="94,-105 25,-105 25,-86 94,-86 94,-105"/>
<text text-anchor="middle" x="59.5" y="-93" font-family="Helvetica,sans-Serif" font-size="10.00">embed::map</text>
</a>
</g>
</g>
<!-- Node1&#45;&gt;Node3 -->
<g id="edge2" class="edge">
<title>Node1&#45;&gt;Node3</title>
<path fill="none" stroke="#63b8ff" d="M143.83,-83.03C126.85,-85.57 109.16,-88.22 94.46,-90.42"/>
<polygon fill="#63b8ff" stroke="#63b8ff" points="143.98,-86.55 153.35,-81.6 142.94,-79.62 143.98,-86.55"/>
</g>
<!-- Node4 -->
<g id="node4" class="node">
<title>Node4</title>
<g id="a_node4"><a xlink:href="structembed_1_1duty__cycle.html#ae3211da17ad871387109a5d901a18183" target="_top" xlink:title="Conversion from duty cycle to percentage.">
<polygon fill="white" stroke="#666666" points="110,-67.5 9,-67.5 9,-37.5 110,-37.5 110,-67.5"/>
<text text-anchor="start" x="17" y="-55.5" font-family="Helvetica,sans-Serif" font-size="10.00">embed::duty_cycle::</text>
<text text-anchor="middle" x="59.5" y="-44.5" font-family="Helvetica,sans-Serif" font-size="10.00">operator percent</text>
</a>
</g>
</g>
<!-- Node1&#45;&gt;Node4 -->
<g id="edge3" class="edge">
<title>Node1&#45;&gt;Node4</title>
<path fill="none" stroke="#63b8ff" d="M143.79,-64.4C132.59,-62.8 121.08,-61.15 110.33,-59.62"/>
<polygon fill="#63b8ff" stroke="#63b8ff" points="142.95,-67.81 153.35,-65.76 143.94,-60.88 142.95,-67.81"/>
</g>
<!-- Node5 -->
<g id="node5" class="node">
<title>Node5</title>
<g id="a_node5"><a xlink:href="classembed_1_1percent.html#afa379fbbb92bc5dc22f0dce8bcf7ea1b" target="_top" xlink:title="Get the percent after it is scaled to a range. The output percent is bound within the given range....">
<polygon fill="white" stroke="#666666" points="114.5,-19 4.5,-19 4.5,0 114.5,0 114.5,-19"/>
<text text-anchor="middle" x="59.5" y="-7" font-family="Helvetica,sans-Serif" font-size="10.00">embed::percent::scale</text>
</a>
</g>
</g>
<!-- Node1&#45;&gt;Node5 -->
<g id="edge4" class="edge">
<title>Node1&#45;&gt;Node5</title>
<path fill="none" stroke="#63b8ff" d="M170.33,-52.97C154.74,-44.78 136.25,-35.63 119,-28.5 111.11,-25.23 102.43,-22.15 94.24,-19.46"/>
<polygon fill="#63b8ff" stroke="#63b8ff" points="168.31,-55.86 178.79,-57.46 171.6,-49.68 168.31,-55.86"/>
</g>
</g>
</svg>
