<?xml version="1.0" encoding="UTF-8" standalone="no"?>
<!DOCTYPE svg PUBLIC "-//W3C//DTD SVG 1.1//EN"
 "http://www.w3.org/Graphics/SVG/1.1/DTD/svg11.dtd">
<!-- Generated by graphviz version 7.0.5 (20221223.1930)
 -->
<!-- Title: embed::percent::scale Pages: 1 -->
<svg width="442pt" height="138pt"
 viewBox="0.00 0.00 442.00 138.00" xmlns="http://www.w3.org/2000/svg" xmlns:xlink="http://www.w3.org/1999/xlink">
<g id="graph0" class="graph" transform="scale(1 1) rotate(0) translate(4 134)">
<title>embed::percent::scale</title>
<!-- Node1 -->
<g id="node1" class="node">
<title>Node1</title>
<g id="a_node1"><a xlink:title="Get the value of the percent after it is scaled to a range. The output value is bound within the give...">
<polygon fill="#999999" stroke="#666666" points="110,-74 0,-74 0,-55 110,-55 110,-74"/>
<text text-anchor="middle" x="55" y="-62" font-family="Helvetica,sans-Serif" font-size="10.00">embed::percent::scale</text>
</a>
</g>
</g>
<!-- Node2 -->
<g id="node2" class="node">
<title>Node2</title>
<g id="a_node2"><a xlink:href="classembed_1_1percent.html#a0f9fc596e3daa1948d0112b98544ef4f" target="_top" xlink:title="Get +100% percentage.">
<polygon fill="white" stroke="#666666" points="261.5,-93 156.5,-93 156.5,-74 261.5,-74 261.5,-93"/>
<text text-anchor="middle" x="209" y="-81" font-family="Helvetica,sans-Serif" font-size="10.00">embed::percent::max</text>
</a>
</g>
</g>
<!-- Node1&#45;&gt;Node2 -->
<g id="edge1" class="edge">
<title>Node1&#45;&gt;Node2</title>
<path fill="none" stroke="#63b8ff" d="M110.45,-71.31C121.63,-72.7 133.49,-74.19 144.94,-75.62"/>
<polygon fill="#63b8ff" stroke="#63b8ff" points="144.36,-79.07 154.72,-76.84 145.23,-72.13 144.36,-79.07"/>
</g>
<!-- Node4 -->
<g id="node4" class="node">
<title>Node4</title>
<g id="a_node4"><a xlink:href="classembed_1_1percent.html#a18867853ebb7f7101932f298ef9ac059" target="_top" xlink:title="Get the 100% value in its raw representation.">
<polygon fill="white" stroke="#666666" points="434,-130 308,-130 308,-111 434,-111 434,-130"/>
<text text-anchor="middle" x="371" y="-118" font-family="Helvetica,sans-Serif" font-size="10.00">embed::percent::raw_max</text>
</a>
</g>
</g>
<!-- Node1&#45;&gt;Node4 -->
<g id="edge7" class="edge">
<title>Node1&#45;&gt;Node4</title>
<path fill="none" stroke="#63b8ff" d="M74.7,-74.49C92.5,-83.48 120.3,-96.21 146,-102.5 195.33,-114.56 252.41,-119.01 296.6,-120.47"/>
<polygon fill="#63b8ff" stroke="#63b8ff" points="296.23,-123.96 306.32,-120.75 296.42,-116.97 296.23,-123.96"/>
</g>
<!-- Node5 -->
<g id="node5" class="node">
<title>Node5</title>
<g id="a_node5"><a xlink:href="classembed_1_1percent.html#a82d4dc647320164d22dc480723c9671b" target="_top" xlink:title="Get &#45;100% percentage.">
<polygon fill="white" stroke="#666666" points="260.5,-56 157.5,-56 157.5,-37 260.5,-37 260.5,-56"/>
<text text-anchor="middle" x="209" y="-44" font-family="Helvetica,sans-Serif" font-size="10.00">embed::percent::min</text>
</a>
</g>
</g>
<!-- Node1&#45;&gt;Node5 -->
<g id="edge4" class="edge">
<title>Node1&#45;&gt;Node5</title>
<path fill="none" stroke="#63b8ff" d="M110.45,-58.05C122,-56.68 134.28,-55.23 146.09,-53.83"/>
<polygon fill="#63b8ff" stroke="#63b8ff" points="146.21,-57.34 155.73,-52.69 145.38,-50.39 146.21,-57.34"/>
</g>
<!-- Node7 -->
<g id="node7" class="node">
<title>Node7</title>
<g id="a_node7"><a xlink:href="classembed_1_1percent.html#ad205fdaffa0fc8a9b7c227b704571b74" target="_top" xlink:title="Get the 0% value in its raw representation.">
<polygon fill="white" stroke="#666666" points="272,-19 146,-19 146,0 272,0 272,-19"/>
<text text-anchor="middle" x="209" y="-7" font-family="Helvetica,sans-Serif" font-size="10.00">embed::percent::raw_zero</text>
</a>
</g>
</g>
<!-- Node1&#45;&gt;Node7 -->
<g id="edge8" class="edge">
<title>Node1&#45;&gt;Node7</title>
<path fill="none" stroke="#63b8ff" d="M78.3,-54.55C96.36,-46.68 122.56,-35.7 146,-27.5 150.71,-25.85 155.66,-24.24 160.62,-22.69"/>
<polygon fill="#63b8ff" stroke="#63b8ff" points="161.4,-26.11 169.95,-19.86 159.37,-19.41 161.4,-26.11"/>
</g>
<!-- Node3 -->
<g id="node3" class="node">
<title>Node3</title>
<g id="a_node3"><a xlink:href="classembed_1_1percent.html#a3635a4d8e47f6a65226ee6391509f3a1" target="_top" xlink:title="Construct 0% percent object.">
<polygon fill="white" stroke="#666666" points="430.5,-93 311.5,-93 311.5,-74 430.5,-74 430.5,-93"/>
<text text-anchor="middle" x="371" y="-81" font-family="Helvetica,sans-Serif" font-size="10.00">embed::percent::percent</text>
</a>
</g>
</g>
<!-- Node2&#45;&gt;Node3 -->
<g id="edge2" class="edge">
<title>Node2&#45;&gt;Node3</title>
<path fill="none" stroke="#63b8ff" d="M261.95,-83.5C273.96,-83.5 286.95,-83.5 299.6,-83.5"/>
<polygon fill="#63b8ff" stroke="#63b8ff" points="299.59,-87 309.59,-83.5 299.59,-80 299.59,-87"/>
</g>
<!-- Node2&#45;&gt;Node4 -->
<g id="edge3" class="edge">
<title>Node2&#45;&gt;Node4</title>
<path fill="none" stroke="#63b8ff" d="M252.88,-93.42C272.25,-97.89 295.35,-103.24 315.89,-107.99"/>
<polygon fill="#63b8ff" stroke="#63b8ff" points="315,-111.37 325.53,-110.22 316.58,-104.55 315,-111.37"/>
</g>
<!-- Node5&#45;&gt;Node3 -->
<g id="edge5" class="edge">
<title>Node5&#45;&gt;Node3</title>
<path fill="none" stroke="#63b8ff" d="M252.88,-56.42C272.25,-60.89 295.35,-66.24 315.89,-70.99"/>
<polygon fill="#63b8ff" stroke="#63b8ff" points="315,-74.37 325.53,-73.22 316.58,-67.55 315,-74.37"/>
</g>
<!-- Node6 -->
<g id="node6" class="node">
<title>Node6</title>
<g id="a_node6"><a xlink:href="classembed_1_1percent.html#addd3062c4b442314f9b135b532367c44" target="_top" xlink:title="Get the &#45;100% value in its raw representation.">
<polygon fill="white" stroke="#666666" points="433,-56 309,-56 309,-37 433,-37 433,-56"/>
<text text-anchor="middle" x="371" y="-44" font-family="Helvetica,sans-Serif" font-size="10.00">embed::percent::raw_min</text>
</a>
</g>
</g>
<!-- Node5&#45;&gt;Node6 -->
<g id="edge6" class="edge">
<title>Node5&#45;&gt;Node6</title>
<path fill="none" stroke="#63b8ff" d="M260.62,-46.5C272.33,-46.5 285.01,-46.5 297.45,-46.5"/>
<polygon fill="#63b8ff" stroke="#63b8ff" points="297.26,-50 307.26,-46.5 297.26,-43 297.26,-50"/>
</g>
</g>
</svg>
