<?xml version="1.0" encoding="UTF-8" standalone="no"?>
<!DOCTYPE svg PUBLIC "-//W3C//DTD SVG 1.1//EN"
 "http://www.w3.org/Graphics/SVG/1.1/DTD/svg11.dtd">
<!-- Generated by graphviz version 7.0.5 (20221223.1930)
 -->
<!-- Title: embed::percent::operator= Pages: 1 -->
<svg width="439pt" height="101pt"
 viewBox="0.00 0.00 439.00 101.00" xmlns="http://www.w3.org/2000/svg" xmlns:xlink="http://www.w3.org/1999/xlink">
<g id="graph0" class="graph" transform="scale(1 1) rotate(0) translate(4 97)">
<title>embed::percent::operator=</title>
<!-- Node1 -->
<g id="node1" class="node">
<title>Node1</title>
<g id="a_node1"><a xlink:title="Assignment operator for a percent object based on a floating point value.">
<polygon fill="#999999" stroke="#666666" points="128,-56 0,-56 0,-37 128,-37 128,-56"/>
<text text-anchor="middle" x="64" y="-44" font-family="Helvetica,sans-Serif" font-size="10.00">embed::percent::operator=</text>
</a>
</g>
</g>
<!-- Node2 -->
<g id="node2" class="node">
<title>Node2</title>
<g id="a_node2"><a xlink:href="classembed_1_1percent.html#a0f9fc596e3daa1948d0112b98544ef4f" target="_top" xlink:title="Get +100% percentage.">
<polygon fill="white" stroke="#666666" points="269,-56 164,-56 164,-37 269,-37 269,-56"/>
<text text-anchor="middle" x="216.5" y="-44" font-family="Helvetica,sans-Serif" font-size="10.00">embed::percent::max</text>
</a>
</g>
</g>
<!-- Node1&#45;&gt;Node2 -->
<g id="edge1" class="edge">
<title>Node1&#45;&gt;Node2</title>
<path fill="none" stroke="#63b8ff" d="M128.39,-46.5C136.27,-46.5 144.33,-46.5 152.21,-46.5"/>
<polygon fill="#63b8ff" stroke="#63b8ff" points="152.07,-50 162.07,-46.5 152.07,-43 152.07,-50"/>
</g>
<!-- Node4 -->
<g id="node4" class="node">
<title>Node4</title>
<g id="a_node4"><a xlink:href="classembed_1_1percent.html#a18867853ebb7f7101932f298ef9ac059" target="_top" xlink:title="Get the 100% value in its raw representation.">
<polygon fill="white" stroke="#666666" points="431,-93 305,-93 305,-74 431,-74 431,-93"/>
<text text-anchor="middle" x="368" y="-81" font-family="Helvetica,sans-Serif" font-size="10.00">embed::percent::raw_max</text>
</a>
</g>
</g>
<!-- Node1&#45;&gt;Node4 -->
<g id="edge7" class="edge">
<title>Node1&#45;&gt;Node4</title>
<path fill="none" stroke="#63b8ff" d="M111.67,-56.46C128.15,-59.71 146.84,-63.1 164,-65.5 206.74,-71.48 254.83,-75.85 293.47,-78.78"/>
<polygon fill="#63b8ff" stroke="#63b8ff" points="292.88,-82.25 303.11,-79.5 293.4,-75.27 292.88,-82.25"/>
</g>
<!-- Node5 -->
<g id="node5" class="node">
<title>Node5</title>
<g id="a_node5"><a xlink:href="classembed_1_1percent.html#a82d4dc647320164d22dc480723c9671b" target="_top" xlink:title="Get &#45;100% percentage.">
<polygon fill="white" stroke="#666666" points="268,-19 165,-19 165,0 268,0 268,-19"/>
<text text-anchor="middle" x="216.5" y="-7" font-family="Helvetica,sans-Serif" font-size="10.00">embed::percent::min</text>
</a>
</g>
</g>
<!-- Node1&#45;&gt;Node5 -->
<g id="edge4" class="edge">
<title>Node1&#45;&gt;Node5</title>
<path fill="none" stroke="#63b8ff" d="M105.33,-36.58C123.38,-32.15 144.88,-26.86 164.07,-22.14"/>
<polygon fill="#63b8ff" stroke="#63b8ff" points="164.71,-25.59 173.59,-19.8 163.04,-18.79 164.71,-25.59"/>
</g>
<!-- Node3 -->
<g id="node3" class="node">
<title>Node3</title>
<g id="a_node3"><a xlink:href="classembed_1_1percent.html#a3635a4d8e47f6a65226ee6391509f3a1" target="_top" xlink:title="Construct 0% percent object.">
<polygon fill="white" stroke="#666666" points="427.5,-56 308.5,-56 308.5,-37 427.5,-37 427.5,-56"/>
<text text-anchor="middle" x="368" y="-44" font-family="Helvetica,sans-Serif" font-size="10.00">embed::percent::percent</text>
</a>
</g>
</g>
<!-- Node2&#45;&gt;Node3 -->
<g id="edge2" class="edge">
<title>Node2&#45;&gt;Node3</title>
<path fill="none" stroke="#63b8ff" d="M269.37,-46.5C278.14,-46.5 287.39,-46.5 296.54,-46.5"/>
<polygon fill="#63b8ff" stroke="#63b8ff" points="296.54,-50 306.54,-46.5 296.54,-43 296.54,-50"/>
</g>
<!-- Node2&#45;&gt;Node4 -->
<g id="edge3" class="edge">
<title>Node2&#45;&gt;Node4</title>
<path fill="none" stroke="#63b8ff" d="M257.56,-56.42C275.49,-60.85 296.85,-66.14 315.91,-70.86"/>
<polygon fill="#63b8ff" stroke="#63b8ff" points="314.81,-74.19 325.36,-73.19 316.49,-67.39 314.81,-74.19"/>
</g>
<!-- Node5&#45;&gt;Node3 -->
<g id="edge5" class="edge">
<title>Node5&#45;&gt;Node3</title>
<path fill="none" stroke="#63b8ff" d="M257.56,-19.42C275.49,-23.85 296.85,-29.14 315.91,-33.86"/>
<polygon fill="#63b8ff" stroke="#63b8ff" points="314.81,-37.19 325.36,-36.19 316.49,-30.39 314.81,-37.19"/>
</g>
<!-- Node6 -->
<g id="node6" class="node">
<title>Node6</title>
<g id="a_node6"><a xlink:href="classembed_1_1percent.html#addd3062c4b442314f9b135b532367c44" target="_top" xlink:title="Get the &#45;100% value in its raw representation.">
<polygon fill="white" stroke="#666666" points="430,-19 306,-19 306,0 430,0 430,-19"/>
<text text-anchor="middle" x="368" y="-7" font-family="Helvetica,sans-Serif" font-size="10.00">embed::percent::raw_min</text>
</a>
</g>
</g>
<!-- Node5&#45;&gt;Node6 -->
<g id="edge6" class="edge">
<title>Node5&#45;&gt;Node6</title>
<path fill="none" stroke="#63b8ff" d="M268.11,-9.5C276.48,-9.5 285.29,-9.5 294.07,-9.5"/>
<polygon fill="#63b8ff" stroke="#63b8ff" points="294.05,-13 304.05,-9.5 294.05,-6 294.05,-13"/>
</g>
</g>
</svg>
