<?xml version="1.0" encoding="UTF-8" standalone="no"?>
<!DOCTYPE svg PUBLIC "-//W3C//DTD SVG 1.1//EN"
 "http://www.w3.org/Graphics/SVG/1.1/DTD/svg11.dtd">
<!-- Generated by graphviz version 7.0.5 (20221223.1930)
 -->
<!-- Title: embed::spy_handler::reset Pages: 1 -->
<svg width="272pt" height="316pt"
 viewBox="0.00 0.00 272.00 316.00" xmlns="http://www.w3.org/2000/svg" xmlns:xlink="http://www.w3.org/1999/xlink">
<g id="graph0" class="graph" transform="scale(1 1) rotate(0) translate(4 312)">
<title>embed::spy_handler::reset</title>
<!-- Node1 -->
<g id="node1" class="node">
<title>Node1</title>
<g id="a_node1"><a xlink:title="Reset call recordings and turns off error trigger.">
<polygon fill="#999999" stroke="#666666" points="264,-169 162,-169 162,-139 264,-139 264,-169"/>
<text text-anchor="start" x="170" y="-157" font-family="Helvetica,sans-Serif" font-size="10.00">embed::spy_handler</text>
<text text-anchor="middle" x="213" y="-146" font-family="Helvetica,sans-Serif" font-size="10.00">::reset</text>
</a>
</g>
</g>
<!-- Node2 -->
<g id="node2" class="node">
<title>Node2</title>
<g id="a_node2"><a xlink:href="structembed_1_1mock_1_1input__pin.html#a3e658cb2b6cb764a01dd2a8f3a53e92b" target="_top" xlink:title="Reset spy information for configure()">
<polygon fill="white" stroke="#666666" points="113,-308 13,-308 13,-278 113,-278 113,-308"/>
<text text-anchor="start" x="21" y="-296" font-family="Helvetica,sans-Serif" font-size="10.00">embed::mock::input</text>
<text text-anchor="middle" x="63" y="-285" font-family="Helvetica,sans-Serif" font-size="10.00">_pin::reset</text>
</a>
</g>
</g>
<!-- Node1&#45;&gt;Node2 -->
<g id="edge1" class="edge">
<title>Node1&#45;&gt;Node2</title>
<path fill="none" stroke="#63b8ff" d="M198.91,-178.97C184.26,-204.73 158.29,-244.5 126,-269 121.77,-272.21 117.06,-275.04 112.17,-277.52"/>
<polygon fill="#63b8ff" stroke="#63b8ff" points="201.8,-180.97 203.57,-170.52 195.67,-177.58 201.8,-180.97"/>
</g>
<!-- Node3 -->
<g id="node3" class="node">
<title>Node3</title>
<g id="a_node3"><a xlink:href="structembed_1_1mock_1_1interrupt__pin.html#a758edeb276743e3cc33f10409aa9ba96" target="_top" xlink:title="Reset spy information for configure(), attach_interrupt(), and detach_interrupt()">
<polygon fill="white" stroke="#666666" points="120,-260 6,-260 6,-230 120,-230 120,-260"/>
<text text-anchor="start" x="14" y="-248" font-family="Helvetica,sans-Serif" font-size="10.00">embed::mock::interrupt</text>
<text text-anchor="middle" x="63" y="-237" font-family="Helvetica,sans-Serif" font-size="10.00">_pin::reset</text>
</a>
</g>
</g>
<!-- Node1&#45;&gt;Node3 -->
<g id="edge2" class="edge">
<title>Node1&#45;&gt;Node3</title>
<path fill="none" stroke="#63b8ff" d="M186.8,-176.84C170.36,-190.91 147.95,-208.56 126,-221 120.48,-224.13 114.47,-227.02 108.43,-229.64"/>
<polygon fill="#63b8ff" stroke="#63b8ff" points="188.9,-179.66 194.14,-170.45 184.3,-174.38 188.9,-179.66"/>
</g>
<!-- Node4 -->
<g id="node4" class="node">
<title>Node4</title>
<g id="a_node4"><a xlink:href="structembed_1_1mock_1_1output__pin.html#acd5bf6f217722d71b181b94ca6da5cca" target="_top" xlink:title="Reset spy information for configure() and level()">
<polygon fill="white" stroke="#666666" points="116,-212 10,-212 10,-182 116,-182 116,-212"/>
<text text-anchor="start" x="18" y="-200" font-family="Helvetica,sans-Serif" font-size="10.00">embed::mock::output</text>
<text text-anchor="middle" x="63" y="-189" font-family="Helvetica,sans-Serif" font-size="10.00">_pin::reset</text>
</a>
</g>
</g>
<!-- Node1&#45;&gt;Node4 -->
<g id="edge3" class="edge">
<title>Node1&#45;&gt;Node4</title>
<path fill="none" stroke="#63b8ff" d="M151.02,-171.72C139.5,-175.06 127.55,-178.54 116.33,-181.8"/>
<polygon fill="#63b8ff" stroke="#63b8ff" points="151.81,-175.13 160.44,-168.98 149.86,-168.41 151.81,-175.13"/>
</g>
<!-- Node5 -->
<g id="node5" class="node">
<title>Node5</title>
<g id="a_node5"><a xlink:href="structembed_1_1mock_1_1pwm.html#a8114258c054ca72c39bb8dcd0a695b05" target="_top" xlink:title="Reset spy information for both configure() and duty_cycle()">
<polygon fill="white" stroke="#666666" points="126,-163.5 0,-163.5 0,-144.5 126,-144.5 126,-163.5"/>
<text text-anchor="middle" x="63" y="-151.5" font-family="Helvetica,sans-Serif" font-size="10.00">embed::mock::pwm::reset</text>
</a>
</g>
</g>
<!-- Node1&#45;&gt;Node5 -->
<g id="edge4" class="edge">
<title>Node1&#45;&gt;Node5</title>
<path fill="none" stroke="#63b8ff" d="M150.44,-154C142.49,-154 134.35,-154 126.39,-154"/>
<polygon fill="#63b8ff" stroke="#63b8ff" points="150.38,-157.5 160.38,-154 150.38,-150.5 150.38,-157.5"/>
</g>
<!-- Node6 -->
<g id="node6" class="node">
<title>Node6</title>
<g id="a_node6"><a xlink:href="structembed_1_1mock_1_1servo.html#a23a049f510c93c52a0f2784c0d10d7fa" target="_top" xlink:title="Reset spy information for position()">
<polygon fill="white" stroke="#666666" points="114.5,-126 11.5,-126 11.5,-96 114.5,-96 114.5,-126"/>
<text text-anchor="start" x="19.5" y="-114" font-family="Helvetica,sans-Serif" font-size="10.00">embed::mock::servo</text>
<text text-anchor="middle" x="63" y="-103" font-family="Helvetica,sans-Serif" font-size="10.00">::reset</text>
</a>
</g>
</g>
<!-- Node1&#45;&gt;Node6 -->
<g id="edge5" class="edge">
<title>Node1&#45;&gt;Node6</title>
<path fill="none" stroke="#63b8ff" d="M151.01,-136.28C138.98,-132.78 126.47,-129.15 114.81,-125.76"/>
<polygon fill="#63b8ff" stroke="#63b8ff" points="149.86,-139.59 160.44,-139.02 151.81,-132.87 149.86,-139.59"/>
</g>
<!-- Node7 -->
<g id="node7" class="node">
<title>Node7</title>
<g id="a_node7"><a xlink:href="structembed_1_1mock_1_1write__only__spi.html#a668ae8bd2effa6d165a9c87ce89ddb3a" target="_top" xlink:title="Reset spy information for both configure() and transfer()">
<polygon fill="white" stroke="#666666" points="113,-78 13,-78 13,-48 113,-48 113,-78"/>
<text text-anchor="start" x="21" y="-66" font-family="Helvetica,sans-Serif" font-size="10.00">embed::mock::write</text>
<text text-anchor="middle" x="63" y="-55" font-family="Helvetica,sans-Serif" font-size="10.00">_only_spi::reset</text>
</a>
</g>
</g>
<!-- Node1&#45;&gt;Node7 -->
<g id="edge6" class="edge">
<title>Node1&#45;&gt;Node7</title>
<path fill="none" stroke="#63b8ff" d="M186.8,-131.16C170.36,-117.09 147.95,-99.44 126,-87 120.48,-83.87 114.47,-80.98 108.43,-78.36"/>
<polygon fill="#63b8ff" stroke="#63b8ff" points="184.3,-133.62 194.14,-137.55 188.9,-128.34 184.3,-133.62"/>
</g>
<!-- Node8 -->
<g id="node8" class="node">
<title>Node8</title>
<g id="a_node8"><a xlink:href="structembed_1_1mock_1_1timer.html#a6f12fd38291d5ac3f3370aaef857d8e2" target="_top" xlink:title="Reset spy information for schedule(), clear(), and is_running()">
<polygon fill="white" stroke="#666666" points="113.5,-30 12.5,-30 12.5,0 113.5,0 113.5,-30"/>
<text text-anchor="start" x="20.5" y="-18" font-family="Helvetica,sans-Serif" font-size="10.00">embed::mock::timer</text>
<text text-anchor="middle" x="63" y="-7" font-family="Helvetica,sans-Serif" font-size="10.00">::reset</text>
</a>
</g>
</g>
<!-- Node1&#45;&gt;Node8 -->
<g id="edge7" class="edge">
<title>Node1&#45;&gt;Node8</title>
<path fill="none" stroke="#63b8ff" d="M198.91,-129.03C184.26,-103.27 158.29,-63.5 126,-39 121.77,-35.79 117.06,-32.96 112.17,-30.48"/>
<polygon fill="#63b8ff" stroke="#63b8ff" points="195.67,-130.42 203.57,-137.48 201.8,-127.03 195.67,-130.42"/>
</g>
</g>
</svg>
