<?xml version="1.0" encoding="UTF-8" standalone="no"?>
<!DOCTYPE svg PUBLIC "-//W3C//DTD SVG 1.1//EN"
 "http://www.w3.org/Graphics/SVG/1.1/DTD/svg11.dtd">
<!-- Generated by graphviz version 7.0.4 (20221203.1631)
 -->
<!-- Title: embed::percentage::value Pages: 1 -->
<svg width="250pt" height="86pt"
 viewBox="0.00 0.00 250.00 86.00" xmlns="http://www.w3.org/2000/svg" xmlns:xlink="http://www.w3.org/1999/xlink">
<g id="graph0" class="graph" transform="scale(1 1) rotate(0) translate(4 82)">
<title>embed::percentage::value</title>
<!-- Node1 -->
<g id="node1" class="node">
<title>Node1</title>
<g id="a_node1"><a xlink:title=" ">
<polygon fill="#999999" stroke="#666666" points="242,-54 139,-54 139,-24 242,-24 242,-54"/>
<text text-anchor="start" x="147" y="-42" font-family="Helvetica,sans-Serif" font-size="10.00">embed::percentage::</text>
<text text-anchor="middle" x="190.5" y="-31" font-family="Helvetica,sans-Serif" font-size="10.00">value</text>
</a>
</g>
</g>
<!-- Node2 -->
<g id="node2" class="node">
<title>Node2</title>
<g id="a_node2"><a xlink:href="classembed_1_1percentage.html#a5b73dbc22dcb0a064afe6ee745565684" target="_top" xlink:title=" ">
<polygon fill="white" stroke="#666666" points="103,-78 0,-78 0,-48 103,-48 103,-78"/>
<text text-anchor="start" x="8" y="-66" font-family="Helvetica,sans-Serif" font-size="10.00">embed::percentage::</text>
<text text-anchor="middle" x="51.5" y="-55" font-family="Helvetica,sans-Serif" font-size="10.00">operator=</text>
</a>
</g>
</g>
<!-- Node1&#45;&gt;Node2 -->
<g id="edge1" class="edge">
<title>Node1&#45;&gt;Node2</title>
<path fill="none" stroke="#63b8ff" d="M127.56,-49.85C119.47,-51.27 111.26,-52.71 103.37,-54.09"/>
<polygon fill="#63b8ff" stroke="#63b8ff" points="128.14,-53.3 137.38,-48.13 126.93,-46.41 128.14,-53.3"/>
</g>
<!-- Node3 -->
<g id="node3" class="node">
<title>Node3</title>
<g id="a_node3"><a xlink:href="classembed_1_1percentage.html#af8a0005927d64ae3aad62be7bdce9d7c" target="_top" xlink:title=" ">
<polygon fill="white" stroke="#666666" points="103,-30 0,-30 0,0 103,0 103,-30"/>
<text text-anchor="start" x="8" y="-18" font-family="Helvetica,sans-Serif" font-size="10.00">embed::percentage::</text>
<text text-anchor="middle" x="51.5" y="-7" font-family="Helvetica,sans-Serif" font-size="10.00">percentage</text>
</a>
</g>
</g>
<!-- Node1&#45;&gt;Node3 -->
<g id="edge2" class="edge">
<title>Node1&#45;&gt;Node3</title>
<path fill="none" stroke="#63b8ff" d="M127.56,-28.15C119.47,-26.73 111.26,-25.29 103.37,-23.91"/>
<polygon fill="#63b8ff" stroke="#63b8ff" points="126.93,-31.59 137.38,-29.87 128.14,-24.7 126.93,-31.59"/>
</g>
</g>
</svg>
