<?xml version="1.0" encoding="UTF-8" standalone="no"?>
<!DOCTYPE svg PUBLIC "-//W3C//DTD SVG 1.1//EN"
 "http://www.w3.org/Graphics/SVG/1.1/DTD/svg11.dtd">
<!-- Generated by graphviz version 7.0.4 (20221203.1631)
 -->
<!-- Title: embed::percent::max Pages: 1 -->
<svg width="275pt" height="64pt"
 viewBox="0.00 0.00 275.00 64.00" xmlns="http://www.w3.org/2000/svg" xmlns:xlink="http://www.w3.org/1999/xlink">
<g id="graph0" class="graph" transform="scale(1 1) rotate(0) translate(4 60)">
<title>embed::percent::max</title>
<!-- Node1 -->
<g id="node1" class="node">
<title>Node1</title>
<g id="a_node1"><a xlink:title="Get +100% percentage.">
<polygon fill="#999999" stroke="#666666" points="105,-37 0,-37 0,-18 105,-18 105,-37"/>
<text text-anchor="middle" x="52.5" y="-25" font-family="Helvetica,sans-Serif" font-size="10.00">embed::percent::max</text>
</a>
</g>
</g>
<!-- Node2 -->
<g id="node2" class="node">
<title>Node2</title>
<g id="a_node2"><a xlink:href="classembed_1_1percent.html#a3635a4d8e47f6a65226ee6391509f3a1" target="_top" xlink:title="Construct 0% percent object.">
<polygon fill="white" stroke="#666666" points="263.5,-56 144.5,-56 144.5,-37 263.5,-37 263.5,-56"/>
<text text-anchor="middle" x="204" y="-44" font-family="Helvetica,sans-Serif" font-size="10.00">embed::percent::percent</text>
</a>
</g>
</g>
<!-- Node1&#45;&gt;Node2 -->
<g id="edge1" class="edge">
<title>Node1&#45;&gt;Node2</title>
<path fill="none" stroke="#63b8ff" d="M105.37,-34.09C114.24,-35.22 123.59,-36.41 132.85,-37.58"/>
<polygon fill="#63b8ff" stroke="#63b8ff" points="132.19,-41.03 142.55,-38.82 133.07,-34.08 132.19,-41.03"/>
</g>
<!-- Node3 -->
<g id="node3" class="node">
<title>Node3</title>
<g id="a_node3"><a xlink:href="classembed_1_1percent.html#a18867853ebb7f7101932f298ef9ac059" target="_top" xlink:title="Get the 100% value in its raw representation.">
<polygon fill="white" stroke="#666666" points="267,-19 141,-19 141,0 267,0 267,-19"/>
<text text-anchor="middle" x="204" y="-7" font-family="Helvetica,sans-Serif" font-size="10.00">embed::percent::raw_max</text>
</a>
</g>
</g>
<!-- Node1&#45;&gt;Node3 -->
<g id="edge2" class="edge">
<title>Node1&#45;&gt;Node3</title>
<path fill="none" stroke="#63b8ff" d="M105.37,-21.25C113.11,-20.32 121.21,-19.35 129.29,-18.37"/>
<polygon fill="#63b8ff" stroke="#63b8ff" points="129.66,-21.86 139.17,-17.19 128.82,-14.91 129.66,-21.86"/>
</g>
</g>
</svg>
