<?xml version="1.0" encoding="UTF-8" standalone="no"?>
<!DOCTYPE svg PUBLIC "-//W3C//DTD SVG 1.1//EN"
 "http://www.w3.org/Graphics/SVG/1.1/DTD/svg11.dtd">
<!-- Generated by graphviz version 7.0.5 (20221223.1930)
 -->
<!-- Title: embed::i2c::transaction Pages: 1 -->
<svg width="434pt" height="101pt"
 viewBox="0.00 0.00 434.00 101.00" xmlns="http://www.w3.org/2000/svg" xmlns:xlink="http://www.w3.org/1999/xlink">
<g id="graph0" class="graph" transform="scale(1 1) rotate(0) translate(4 97)">
<title>embed::i2c::transaction</title>
<!-- Node1 -->
<g id="node1" class="node">
<title>Node1</title>
<g id="a_node1"><a xlink:title="perform an i2c transaction with another device on the bus. The type of transaction depends on values ...">
<polygon fill="#999999" stroke="#666666" points="426,-56 310,-56 310,-37 426,-37 426,-56"/>
<text text-anchor="middle" x="368" y="-44" font-family="Helvetica,sans-Serif" font-size="10.00">embed::i2c::transaction</text>
</a>
</g>
</g>
<!-- Node2 -->
<g id="node2" class="node">
<title>Node2</title>
<g id="a_node2"><a xlink:href="group__i2c.html#gaef748fa7125b16c5b9672e0e9aaf3787" target="_top" xlink:title="read bytes from target device on i2c bus">
<polygon fill="white" stroke="#666666" points="249,-93 180,-93 180,-74 249,-74 249,-93"/>
<text text-anchor="middle" x="214.5" y="-81" font-family="Helvetica,sans-Serif" font-size="10.00">embed::read</text>
</a>
</g>
</g>
<!-- Node1&#45;&gt;Node2 -->
<g id="edge1" class="edge">
<title>Node1&#45;&gt;Node2</title>
<path fill="none" stroke="#63b8ff" d="M315.27,-59.13C293.37,-64.48 268.48,-70.56 249.05,-75.31"/>
<polygon fill="#63b8ff" stroke="#63b8ff" points="316.05,-62.55 324.93,-56.77 314.39,-55.75 316.05,-62.55"/>
</g>
<!-- Node5 -->
<g id="node5" class="node">
<title>Node5</title>
<g id="a_node5"><a xlink:href="group__i2c.html#gad98774e04252c5c5568a11b94b0282ac" target="_top" xlink:title="write data to a target device on the i2c bus">
<polygon fill="white" stroke="#666666" points="250,-56 179,-56 179,-37 250,-37 250,-56"/>
<text text-anchor="middle" x="214.5" y="-44" font-family="Helvetica,sans-Serif" font-size="10.00">embed::write</text>
</a>
</g>
</g>
<!-- Node1&#45;&gt;Node5 -->
<g id="edge4" class="edge">
<title>Node1&#45;&gt;Node5</title>
<path fill="none" stroke="#63b8ff" d="M298.35,-46.5C281.77,-46.5 264.72,-46.5 250.44,-46.5"/>
<polygon fill="#63b8ff" stroke="#63b8ff" points="298.21,-50 308.21,-46.5 298.21,-43 298.21,-50"/>
</g>
<!-- Node6 -->
<g id="node6" class="node">
<title>Node6</title>
<g id="a_node6"><a xlink:href="group__i2c.html#gaaacac7f062beb4f4835ddefc305ca640" target="_top" xlink:title="write and then read bytes from target device on i2c bus">
<polygon fill="white" stroke="#666666" points="274,-19 155,-19 155,0 274,0 274,-19"/>
<text text-anchor="middle" x="214.5" y="-7" font-family="Helvetica,sans-Serif" font-size="10.00">embed::write_then_read</text>
</a>
</g>
</g>
<!-- Node1&#45;&gt;Node6 -->
<g id="edge6" class="edge">
<title>Node1&#45;&gt;Node6</title>
<path fill="none" stroke="#63b8ff" d="M315.35,-33.88C296.04,-29.17 274.4,-23.88 256.21,-19.44"/>
<polygon fill="#63b8ff" stroke="#63b8ff" points="314.39,-37.25 324.93,-36.23 316.05,-30.45 314.39,-37.25"/>
</g>
<!-- Node3 -->
<g id="node3" class="node">
<title>Node3</title>
<g id="a_node3"><a xlink:href="group__i2c.html#ga91b1991656f7b94b2412c709b12bb530" target="_top" xlink:title="return array of read bytes from target device on i2c bus">
<polygon fill="white" stroke="#666666" points="94,-93 25,-93 25,-74 94,-74 94,-93"/>
<text text-anchor="middle" x="59.5" y="-81" font-family="Helvetica,sans-Serif" font-size="10.00">embed::read</text>
</a>
</g>
</g>
<!-- Node2&#45;&gt;Node3 -->
<g id="edge2" class="edge">
<title>Node2&#45;&gt;Node3</title>
<path fill="none" stroke="#63b8ff" d="M168.03,-83.5C144.41,-83.5 116.03,-83.5 94.36,-83.5"/>
<polygon fill="#63b8ff" stroke="#63b8ff" points="168.03,-87 178.03,-83.5 168.03,-80 168.03,-87"/>
</g>
<!-- Node4 -->
<g id="node4" class="node">
<title>Node4</title>
<g id="a_node4"><a xlink:href="group__serial.html#ga5321e41f41aa9aa1f64454f3534fa581" target="_top" xlink:title="Perform a write then read transaction over serial.">
<polygon fill="white" stroke="#666666" points="119,-56 0,-56 0,-37 119,-37 119,-56"/>
<text text-anchor="middle" x="59.5" y="-44" font-family="Helvetica,sans-Serif" font-size="10.00">embed::write_then_read</text>
</a>
</g>
</g>
<!-- Node2&#45;&gt;Node4 -->
<g id="edge3" class="edge">
<title>Node2&#45;&gt;Node4</title>
<path fill="none" stroke="#63b8ff" d="M168.57,-72.63C147.42,-67.52 122.37,-61.46 101.71,-56.47"/>
<polygon fill="#63b8ff" stroke="#63b8ff" points="167.53,-75.98 178.07,-74.93 169.18,-69.18 167.53,-75.98"/>
</g>
<!-- Node5&#45;&gt;Node4 -->
<g id="edge5" class="edge">
<title>Node5&#45;&gt;Node4</title>
<path fill="none" stroke="#63b8ff" d="M167.62,-46.5C152.46,-46.5 135.39,-46.5 119.4,-46.5"/>
<polygon fill="#63b8ff" stroke="#63b8ff" points="167.27,-50 177.27,-46.5 167.27,-43 167.27,-50"/>
</g>
<!-- Node7 -->
<g id="node7" class="node">
<title>Node7</title>
<g id="a_node7"><a xlink:href="group__i2c.html#ga7866586194c3dc419a59d5f91631e57f" target="_top" xlink:title="write and then return an array of read bytes from target device on i2c bus">
<polygon fill="white" stroke="#666666" points="119,-19 0,-19 0,0 119,0 119,-19"/>
<text text-anchor="middle" x="59.5" y="-7" font-family="Helvetica,sans-Serif" font-size="10.00">embed::write_then_read</text>
</a>
</g>
</g>
<!-- Node6&#45;&gt;Node7 -->
<g id="edge7" class="edge">
<title>Node6&#45;&gt;Node7</title>
<path fill="none" stroke="#63b8ff" d="M143.47,-9.5C135.39,-9.5 127.22,-9.5 119.31,-9.5"/>
<polygon fill="#63b8ff" stroke="#63b8ff" points="143.27,-13 153.27,-9.5 143.27,-6 143.27,-13"/>
</g>
</g>
</svg>
