<?xml version="1.0" encoding="UTF-8" standalone="no"?>
<!DOCTYPE svg PUBLIC "-//W3C//DTD SVG 1.1//EN"
 "http://www.w3.org/Graphics/SVG/1.1/DTD/svg11.dtd">
<!-- Generated by graphviz version 7.0.5 (20221223.1930)
 -->
<!-- Title: embed::percent::operator== Pages: 1 -->
<svg width="281pt" height="76pt"
 viewBox="0.00 0.00 281.00 75.50" xmlns="http://www.w3.org/2000/svg" xmlns:xlink="http://www.w3.org/1999/xlink">
<g id="graph0" class="graph" transform="scale(1 1) rotate(0) translate(4 71.5)">
<title>embed::percent::operator==</title>
<!-- Node1 -->
<g id="node1" class="node">
<title>Node1</title>
<g id="a_node1"><a xlink:title="Comparison operator.">
<polygon fill="#999999" stroke="#666666" points="134,-45.5 0,-45.5 0,-26.5 134,-26.5 134,-45.5"/>
<text text-anchor="middle" x="67" y="-33.5" font-family="Helvetica,sans-Serif" font-size="10.00">embed::percent::operator==</text>
</a>
</g>
</g>
<!-- Node2 -->
<g id="node2" class="node">
<title>Node2</title>
<g id="a_node2"><a xlink:href="group__utility.html#ga0abcbcb6d4ed9f8dc86ca404255d36d1" target="_top" xlink:title="Calculates the distance between two values (L1 Norm or Manhattan distance), the absolute value of the...">
<polygon fill="white" stroke="#666666" points="265,-67.5 178,-67.5 178,-48.5 265,-48.5 265,-67.5"/>
<text text-anchor="middle" x="221.5" y="-55.5" font-family="Helvetica,sans-Serif" font-size="10.00">embed::distance</text>
</a>
</g>
</g>
<!-- Node1&#45;&gt;Node2 -->
<g id="edge1" class="edge">
<title>Node1&#45;&gt;Node2</title>
<path fill="none" stroke="#63b8ff" d="M134.45,-45.59C145.06,-47.12 155.93,-48.69 166.22,-50.17"/>
<polygon fill="#63b8ff" stroke="#63b8ff" points="165.65,-53.62 176.04,-51.59 166.65,-46.69 165.65,-53.62"/>
</g>
<!-- Node3 -->
<g id="node3" class="node">
<title>Node3</title>
<g id="a_node3"><a xlink:href="classembed_1_1percent.html#ad776812c80964b900f3d1644bea1d773" target="_top" xlink:title="Get raw integral value.">
<polygon fill="white" stroke="#666666" points="273,-30 170,-30 170,0 273,0 273,-30"/>
<text text-anchor="start" x="178" y="-18" font-family="Helvetica,sans-Serif" font-size="10.00">embed::percent::raw</text>
<text text-anchor="middle" x="221.5" y="-7" font-family="Helvetica,sans-Serif" font-size="10.00">_value</text>
</a>
</g>
</g>
<!-- Node1&#45;&gt;Node3 -->
<g id="edge2" class="edge">
<title>Node1&#45;&gt;Node3</title>
<path fill="none" stroke="#63b8ff" d="M134.45,-26.85C142.43,-25.75 150.55,-24.63 158.47,-23.54"/>
<polygon fill="#63b8ff" stroke="#63b8ff" points="158.94,-27.01 168.37,-22.18 157.99,-20.08 158.94,-27.01"/>
</g>
</g>
</svg>
