<?xml version="1.0" encoding="UTF-8" standalone="no"?>
<!DOCTYPE svg PUBLIC "-//W3C//DTD SVG 1.1//EN"
 "http://www.w3.org/Graphics/SVG/1.1/DTD/svg11.dtd">
<!-- Generated by graphviz version 7.0.5 (20221223.1930)
 -->
<!-- Title: /github/workspace/include/libembeddedhal Pages: 1 -->
<svg width="944pt" height="149pt"
 viewBox="0.00 0.00 944.00 149.00" xmlns="http://www.w3.org/2000/svg" xmlns:xlink="http://www.w3.org/1999/xlink">
<g id="graph0" class="graph" transform="scale(1 1) rotate(0) translate(4 145)">
<title>/github/workspace/include/libembeddedhal</title>
<g id="clust1" class="cluster">
<title>clusterdir_d44c64559bbebec7f509842c48db8b23</title>
<g id="a_clust1"><a xlink:href="dir_d44c64559bbebec7f509842c48db8b23.html" target="_top" xlink:title="include">
<polygon fill="#edf0f7" stroke="#404040" stroke-dasharray="5,2" points="8,-8 8,-133 928,-133 928,-8 8,-8"/>
<text text-anchor="middle" x="468" y="-121" font-family="Helvetica,sans-Serif" font-size="10.00">include</text>
</a>
</g>
</g>
<g id="clust2" class="cluster">
<title>clusterdir_d44e2fde02e0e8a6a790ae54b19f7024</title>
<g id="a_clust2"><a xlink:href="dir_d44e2fde02e0e8a6a790ae54b19f7024.html" target="_top">
<polygon fill="#edf0f7" stroke="#404040" stroke-width="2" points="16,-16 16,-106 920,-106 920,-16 16,-16"/>
</a>
</g>
</g>
<!-- dir_d44e2fde02e0e8a6a790ae54b19f7024 -->
<g id="node1" class="node">
<title>dir_d44e2fde02e0e8a6a790ae54b19f7024</title>
<text text-anchor="middle" x="870" y="-86" font-family="Helvetica,sans-Serif" font-size="10.00">libembeddedhal</text>
</g>
<!-- dir_927caa68e237d360131c9e07c9afa597 -->
<g id="node2" class="node">
<title>dir_927caa68e237d360131c9e07c9afa597</title>
<g id="a_node2"><a xlink:href="dir_927caa68e237d360131c9e07c9afa597.html" target="_top" xlink:title="adc">
<polygon fill="#a2b4d6" stroke="#404040" points="810,-98 778,-98 778,-79 810,-79 810,-98"/>
<text text-anchor="middle" x="794" y="-86" font-family="Helvetica,sans-Serif" font-size="10.00">adc</text>
</a>
</g>
</g>
<!-- dir_e20bf4e9710363826966b0b412d4debd -->
<g id="node3" class="node">
<title>dir_e20bf4e9710363826966b0b412d4debd</title>
<g id="a_node3"><a xlink:href="dir_e20bf4e9710363826966b0b412d4debd.html" target="_top" xlink:title="can">
<polygon fill="#a2b4d6" stroke="#404040" points="760,-98 728,-98 728,-79 760,-79 760,-98"/>
<text text-anchor="middle" x="744" y="-86" font-family="Helvetica,sans-Serif" font-size="10.00">can</text>
</a>
</g>
</g>
<!-- dir_ad8ece6cee1ba925824cfdb6f5c3da75 -->
<g id="node4" class="node">
<title>dir_ad8ece6cee1ba925824cfdb6f5c3da75</title>
<g id="a_node4"><a xlink:href="dir_ad8ece6cee1ba925824cfdb6f5c3da75.html" target="_top" xlink:title="counter">
<polygon fill="#a2b4d6" stroke="#404040" points="709.5,-98 660.5,-98 660.5,-79 709.5,-79 709.5,-98"/>
<text text-anchor="middle" x="685" y="-86" font-family="Helvetica,sans-Serif" font-size="10.00">counter</text>
</a>
</g>
</g>
<!-- dir_721e551b0c5204a89226dce355491e85 -->
<g id="node5" class="node">
<title>dir_721e551b0c5204a89226dce355491e85</title>
<g id="a_node5"><a xlink:href="dir_721e551b0c5204a89226dce355491e85.html" target="_top" xlink:title="dac">
<polygon fill="#a2b4d6" stroke="#404040" points="642,-98 610,-98 610,-79 642,-79 642,-98"/>
<text text-anchor="middle" x="626" y="-86" font-family="Helvetica,sans-Serif" font-size="10.00">dac</text>
</a>
</g>
</g>
<!-- dir_179ad4e804ac1f3a911f2dd640ab6d52 -->
<g id="node6" class="node">
<title>dir_179ad4e804ac1f3a911f2dd640ab6d52</title>
<g id="a_node6"><a xlink:href="dir_179ad4e804ac1f3a911f2dd640ab6d52.html" target="_top" xlink:title="experimental">
<polygon fill="#a2b4d6" stroke="#404040" points="591.5,-98 520.5,-98 520.5,-79 591.5,-79 591.5,-98"/>
<text text-anchor="middle" x="556" y="-86" font-family="Helvetica,sans-Serif" font-size="10.00">experimental</text>
</a>
</g>
</g>
<!-- dir_4b54f0ad81c942e33daad38b7db927e0 -->
<g id="node7" class="node">
<title>dir_4b54f0ad81c942e33daad38b7db927e0</title>
<g id="a_node7"><a xlink:href="dir_4b54f0ad81c942e33daad38b7db927e0.html" target="_top" xlink:title="i2c">
<polygon fill="#a2b4d6" stroke="#404040" points="502.5,-98 473.5,-98 473.5,-79 502.5,-79 502.5,-98"/>
<text text-anchor="middle" x="488" y="-86" font-family="Helvetica,sans-Serif" font-size="10.00">i2c</text>
</a>
</g>
</g>
<!-- dir_664b7c012d50b2ad7561a69b0cbbb538 -->
<g id="node8" class="node">
<title>dir_664b7c012d50b2ad7561a69b0cbbb538</title>
<g id="a_node8"><a xlink:href="dir_664b7c012d50b2ad7561a69b0cbbb538.html" target="_top" xlink:title="input_pin">
<polygon fill="#a2b4d6" stroke="#404040" points="376,-43 320,-43 320,-24 376,-24 376,-43"/>
<text text-anchor="middle" x="348" y="-31" font-family="Helvetica,sans-Serif" font-size="10.00">input_pin</text>
</a>
</g>
</g>
<!-- dir_03089a427f583ede769bcc8ef83df64d -->
<g id="node9" class="node">
<title>dir_03089a427f583ede769bcc8ef83df64d</title>
<g id="a_node9"><a xlink:href="dir_03089a427f583ede769bcc8ef83df64d.html" target="_top" xlink:title="interrupt_pin">
<polygon fill="#a2b4d6" stroke="#404040" points="455,-98 385,-98 385,-79 455,-79 455,-98"/>
<text text-anchor="middle" x="420" y="-86" font-family="Helvetica,sans-Serif" font-size="10.00">interrupt_pin</text>
</a>
</g>
</g>
<!-- dir_03089a427f583ede769bcc8ef83df64d&#45;&gt;dir_664b7c012d50b2ad7561a69b0cbbb538 -->
<g id="edge1" class="edge">
<title>dir_03089a427f583ede769bcc8ef83df64d&#45;&gt;dir_664b7c012d50b2ad7561a69b0cbbb538</title>
<path fill="none" stroke="#63b8ff" d="M407.79,-78.51C397.17,-70.7 381.56,-59.21 368.96,-49.93"/>
<polygon fill="#63b8ff" stroke="#63b8ff" points="371.38,-47.36 361.25,-44.26 367.23,-53 371.38,-47.36"/>
<g id="a_edge1&#45;headlabel"><a xlink:href="dir_000012_000011.html" target="_top" xlink:title="1">
<text text-anchor="middle" x="374.74" y="-43.81" font-family="Helvetica,sans-Serif" font-size="10.00" fill="#63b8ff">1</text>
</a>
</g>
</g>
<!-- dir_58e4103d875554236015b36ecebd4a7c -->
<g id="node10" class="node">
<title>dir_58e4103d875554236015b36ecebd4a7c</title>
<g id="a_node10"><a xlink:href="dir_58e4103d875554236015b36ecebd4a7c.html" target="_top" xlink:title="motor">
<polygon fill="#a2b4d6" stroke="#404040" points="366.5,-98 325.5,-98 325.5,-79 366.5,-79 366.5,-98"/>
<text text-anchor="middle" x="346" y="-86" font-family="Helvetica,sans-Serif" font-size="10.00">motor</text>
</a>
</g>
</g>
<!-- dir_4270506bb9341b5874383f939f643f81 -->
<g id="node11" class="node">
<title>dir_4270506bb9341b5874383f939f643f81</title>
<g id="a_node11"><a xlink:href="dir_4270506bb9341b5874383f939f643f81.html" target="_top" xlink:title="output_pin">
<polygon fill="#a2b4d6" stroke="#404040" points="307,-98 245,-98 245,-79 307,-79 307,-98"/>
<text text-anchor="middle" x="276" y="-86" font-family="Helvetica,sans-Serif" font-size="10.00">output_pin</text>
</a>
</g>
</g>
<!-- dir_4270506bb9341b5874383f939f643f81&#45;&gt;dir_664b7c012d50b2ad7561a69b0cbbb538 -->
<g id="edge2" class="edge">
<title>dir_4270506bb9341b5874383f939f643f81&#45;&gt;dir_664b7c012d50b2ad7561a69b0cbbb538</title>
<path fill="none" stroke="#63b8ff" d="M288.21,-78.51C298.83,-70.7 314.44,-59.21 327.04,-49.93"/>
<polygon fill="#63b8ff" stroke="#63b8ff" points="328.77,-53 334.75,-44.26 324.62,-47.36 328.77,-53"/>
<g id="a_edge2&#45;headlabel"><a xlink:href="dir_000016_000011.html" target="_top" xlink:title="1">
<text text-anchor="middle" x="328.78" y="-54.02" font-family="Helvetica,sans-Serif" font-size="10.00" fill="#63b8ff">1</text>
</a>
</g>
</g>
<!-- dir_7c0c2efd89501992642cef17876e123b -->
<g id="node12" class="node">
<title>dir_7c0c2efd89501992642cef17876e123b</title>
<g id="a_node12"><a xlink:href="dir_7c0c2efd89501992642cef17876e123b.html" target="_top" xlink:title="pwm">
<polygon fill="#a2b4d6" stroke="#404040" points="167,-43 129,-43 129,-24 167,-24 167,-43"/>
<text text-anchor="middle" x="148" y="-31" font-family="Helvetica,sans-Serif" font-size="10.00">pwm</text>
</a>
</g>
</g>
<!-- dir_9ed38be3b360acaf3dfe962d6d8e508f -->
<g id="node13" class="node">
<title>dir_9ed38be3b360acaf3dfe962d6d8e508f</title>
<g id="a_node13"><a xlink:href="dir_9ed38be3b360acaf3dfe962d6d8e508f.html" target="_top" xlink:title="serial">
<polygon fill="#a2b4d6" stroke="#404040" points="227,-98 187,-98 187,-79 227,-79 227,-98"/>
<text text-anchor="middle" x="207" y="-86" font-family="Helvetica,sans-Serif" font-size="10.00">serial</text>
</a>
</g>
</g>
<!-- dir_a94b0012b336e8176d1a2b1a950398c8 -->
<g id="node14" class="node">
<title>dir_a94b0012b336e8176d1a2b1a950398c8</title>
<g id="a_node14"><a xlink:href="dir_a94b0012b336e8176d1a2b1a950398c8.html" target="_top" xlink:title="servo">
<polygon fill="#a2b4d6" stroke="#404040" points="168.5,-98 127.5,-98 127.5,-79 168.5,-79 168.5,-98"/>
<text text-anchor="middle" x="148" y="-86" font-family="Helvetica,sans-Serif" font-size="10.00">servo</text>
</a>
</g>
</g>
<!-- dir_a94b0012b336e8176d1a2b1a950398c8&#45;&gt;dir_7c0c2efd89501992642cef17876e123b -->
<g id="edge3" class="edge">
<title>dir_a94b0012b336e8176d1a2b1a950398c8&#45;&gt;dir_7c0c2efd89501992642cef17876e123b</title>
<path fill="none" stroke="#63b8ff" d="M148,-78.75C148,-72.27 148,-63.16 148,-54.9"/>
<polygon fill="#63b8ff" stroke="#63b8ff" points="151.5,-54.96 148,-44.96 144.5,-54.96 151.5,-54.96"/>
<g id="a_edge3&#45;headlabel"><a xlink:href="dir_000022_000018.html" target="_top" xlink:title="1">
<text text-anchor="middle" x="154.34" y="-54.54" font-family="Helvetica,sans-Serif" font-size="10.00" fill="#63b8ff">1</text>
</a>
</g>
</g>
<!-- dir_fad7e47fb7d2c086310d40fe47f863bc -->
<g id="node15" class="node">
<title>dir_fad7e47fb7d2c086310d40fe47f863bc</title>
<g id="a_node15"><a xlink:href="dir_fad7e47fb7d2c086310d40fe47f863bc.html" target="_top" xlink:title="spi">
<polygon fill="#a2b4d6" stroke="#404040" points="109.5,-98 80.5,-98 80.5,-79 109.5,-79 109.5,-98"/>
<text text-anchor="middle" x="95" y="-86" font-family="Helvetica,sans-Serif" font-size="10.00">spi</text>
</a>
</g>
</g>
<!-- dir_b9f1d506e6dc52cb20d5a67ec9072e27 -->
<g id="node16" class="node">
<title>dir_b9f1d506e6dc52cb20d5a67ec9072e27</title>
<g id="a_node16"><a xlink:href="dir_b9f1d506e6dc52cb20d5a67ec9072e27.html" target="_top" xlink:title="timer">
<polygon fill="#a2b4d6" stroke="#404040" points="62,-98 24,-98 24,-79 62,-79 62,-98"/>
<text text-anchor="middle" x="43" y="-86" font-family="Helvetica,sans-Serif" font-size="10.00">timer</text>
</a>
</g>
</g>
</g>
</svg>
