<?xml version="1.0" encoding="UTF-8" standalone="no"?>
<!DOCTYPE svg PUBLIC "-//W3C//DTD SVG 1.1//EN"
 "http://www.w3.org/Graphics/SVG/1.1/DTD/svg11.dtd">
<!-- Generated by graphviz version 7.0.5 (20221223.1930)
 -->
<!-- Title: embed::cycles_per Pages: 1 -->
<svg width="418pt" height="46pt"
 viewBox="0.00 0.00 418.00 46.00" xmlns="http://www.w3.org/2000/svg" xmlns:xlink="http://www.w3.org/1999/xlink">
<g id="graph0" class="graph" transform="scale(1 1) rotate(0) translate(4 42)">
<title>embed::cycles_per</title>
<!-- Node1 -->
<g id="node1" class="node">
<title>Node1</title>
<g id="a_node1"><a xlink:title="Calculate the number of cycles of this frequency within the time duration. This function is meant for...">
<polygon fill="#999999" stroke="#666666" points="97,-38 0,-38 0,-19 97,-19 97,-38"/>
<text text-anchor="middle" x="48.5" y="-26" font-family="Helvetica,sans-Serif" font-size="10.00">embed::cycles_per</text>
</a>
</g>
</g>
<!-- Node2 -->
<g id="node2" class="node">
<title>Node2</title>
<g id="a_node2"><a xlink:href="group__utility.html#ga6f0922a28ac81378eb689b2ab4bc299a" target="_top" xlink:title="Generic absolute value function that works for integer types.">
<polygon fill="white" stroke="#666666" points="410,-38 294,-38 294,-19 410,-19 410,-38"/>
<text text-anchor="middle" x="352" y="-26" font-family="Helvetica,sans-Serif" font-size="10.00">embed::absolute_value</text>
</a>
</g>
</g>
<!-- Node1&#45;&gt;Node2 -->
<g id="edge1" class="edge">
<title>Node1&#45;&gt;Node2</title>
<path fill="none" stroke="#63b8ff" d="M97.27,-28.5C147.14,-28.5 225.8,-28.5 282.32,-28.5"/>
<polygon fill="#63b8ff" stroke="#63b8ff" points="282.15,-32 292.15,-28.5 282.15,-25 282.15,-32"/>
</g>
<!-- Node3 -->
<g id="node3" class="node">
<title>Node3</title>
<g id="a_node3"><a xlink:href="group__utility.html#ga84ea33bb969785c47247cfe0da9aa98e" target="_top" xlink:title="Perform integer division and round the value up if the next decimal place is greater than or equal to...">
<polygon fill="white" stroke="#666666" points="258,-19 133,-19 133,0 258,0 258,-19"/>
<text text-anchor="middle" x="195.5" y="-7" font-family="Helvetica,sans-Serif" font-size="10.00">embed::rounding_division</text>
</a>
</g>
</g>
<!-- Node1&#45;&gt;Node3 -->
<g id="edge2" class="edge">
<title>Node1&#45;&gt;Node3</title>
<path fill="none" stroke="#63b8ff" d="M97.38,-22.23C105.15,-21.21 113.35,-20.13 121.55,-19.06"/>
<polygon fill="#63b8ff" stroke="#63b8ff" points="121.75,-22.56 131.21,-17.79 120.84,-15.62 121.75,-22.56"/>
</g>
<!-- Node3&#45;&gt;Node2 -->
<g id="edge3" class="edge">
<title>Node3&#45;&gt;Node2</title>
<path fill="none" stroke="#63b8ff" d="M258.45,-17.12C266.23,-18.08 274.23,-19.06 282.12,-20.03"/>
<polygon fill="#63b8ff" stroke="#63b8ff" points="281.69,-23.5 292.04,-21.25 282.54,-16.55 281.69,-23.5"/>
</g>
</g>
</svg>
