<?xml version="1.0" encoding="UTF-8" standalone="no"?>
<!DOCTYPE svg PUBLIC "-//W3C//DTD SVG 1.1//EN"
 "http://www.w3.org/Graphics/SVG/1.1/DTD/svg11.dtd">
<!-- Generated by graphviz version 7.0.4 (20221203.1631)
 -->
<!-- Title: embed::write_then_read Pages: 1 -->
<svg width="434pt" height="27pt"
 viewBox="0.00 0.00 434.00 27.00" xmlns="http://www.w3.org/2000/svg" xmlns:xlink="http://www.w3.org/1999/xlink">
<g id="graph0" class="graph" transform="scale(1 1) rotate(0) translate(4 23)">
<title>embed::write_then_read</title>
<!-- Node1 -->
<g id="node1" class="node">
<title>Node1</title>
<g id="a_node1"><a xlink:title="Perform a write then read transaction over serial.">
<polygon fill="#999999" stroke="#666666" points="119,-19 0,-19 0,0 119,0 119,-19"/>
<text text-anchor="middle" x="59.5" y="-7" font-family="Helvetica,sans-Serif" font-size="10.00">embed::write_then_read</text>
</a>
</g>
</g>
<!-- Node2 -->
<g id="node2" class="node">
<title>Node2</title>
<g id="a_node2"><a xlink:href="group__i2c.html#gaaacac7f062beb4f4835ddefc305ca640" target="_top" xlink:title="write and then read bytes from target device on i2c bus">
<polygon fill="white" stroke="#666666" points="274,-19 155,-19 155,0 274,0 274,-19"/>
<text text-anchor="middle" x="214.5" y="-7" font-family="Helvetica,sans-Serif" font-size="10.00">embed::write_then_read</text>
</a>
</g>
</g>
<!-- Node1&#45;&gt;Node2 -->
<g id="edge1" class="edge">
<title>Node1&#45;&gt;Node2</title>
<path fill="none" stroke="#63b8ff" d="M119.22,-9.5C127.12,-9.5 135.29,-9.5 143.37,-9.5"/>
<polygon fill="#63b8ff" stroke="#63b8ff" points="143.17,-13 153.17,-9.5 143.17,-6 143.17,-13"/>
</g>
<!-- Node3 -->
<g id="node3" class="node">
<title>Node3</title>
<g id="a_node3"><a xlink:href="classembed_1_1i2c.html#a9bb87faac04a2d098572c50f106f7183" target="_top" xlink:title="perform an i2c transaction with another device on the bus. The type of transaction depends on values ...">
<polygon fill="white" stroke="#666666" points="426,-19 310,-19 310,0 426,0 426,-19"/>
<text text-anchor="middle" x="368" y="-7" font-family="Helvetica,sans-Serif" font-size="10.00">embed::i2c::transaction</text>
</a>
</g>
</g>
<!-- Node2&#45;&gt;Node3 -->
<g id="edge2" class="edge">
<title>Node2&#45;&gt;Node3</title>
<path fill="none" stroke="#63b8ff" d="M274.07,-9.5C282,-9.5 290.19,-9.5 298.27,-9.5"/>
<polygon fill="#63b8ff" stroke="#63b8ff" points="298.07,-13 308.07,-9.5 298.07,-6 298.07,-13"/>
</g>
</g>
</svg>
