<?xml version="1.0" encoding="UTF-8" standalone="no"?>
<!DOCTYPE svg PUBLIC "-//W3C//DTD SVG 1.1//EN"
 "http://www.w3.org/Graphics/SVG/1.1/DTD/svg11.dtd">
<!-- Generated by graphviz version 7.0.4 (20221203.1631)
 -->
<!-- Title: embed::read Pages: 1 -->
<svg width="958pt" height="64pt"
 viewBox="0.00 0.00 958.00 64.00" xmlns="http://www.w3.org/2000/svg" xmlns:xlink="http://www.w3.org/1999/xlink">
<g id="graph0" class="graph" transform="scale(1 1) rotate(0) translate(4 60)">
<title>embed::read</title>
<!-- Node1 -->
<g id="node1" class="node">
<title>Node1</title>
<g id="a_node1"><a xlink:title="Read bytes from a serial port and return an array.">
<polygon fill="#999999" stroke="#666666" points="69,-37 0,-37 0,-18 69,-18 69,-37"/>
<text text-anchor="middle" x="34.5" y="-25" font-family="Helvetica,sans-Serif" font-size="10.00">embed::read</text>
</a>
</g>
</g>
<!-- Node2 -->
<g id="node2" class="node">
<title>Node2</title>
<g id="a_node2"><a xlink:href="group__counter.html#ga53e2d568aa13881c4213fe89a2e1c42e" target="_top" xlink:title="Delay execution for a duration of time using a hardware counter.">
<polygon fill="white" stroke="#666666" points="178,-37 105,-37 105,-18 178,-18 178,-37"/>
<text text-anchor="middle" x="141.5" y="-25" font-family="Helvetica,sans-Serif" font-size="10.00">embed::delay</text>
</a>
</g>
</g>
<!-- Node1&#45;&gt;Node2 -->
<g id="edge1" class="edge">
<title>Node1&#45;&gt;Node2</title>
<path fill="none" stroke="#63b8ff" d="M69.3,-27.5C76.96,-27.5 85.23,-27.5 93.33,-27.5"/>
<polygon fill="#63b8ff" stroke="#63b8ff" points="93.08,-31 103.08,-27.5 93.08,-24 93.08,-31"/>
</g>
<!-- Node2&#45;&gt;Node2 -->
<g id="edge9" class="edge">
<title>Node2&#45;&gt;Node2</title>
<path fill="none" stroke="#63b8ff" d="M124.75,-37.37C117.11,-45.94 122.69,-55 141.5,-55 151.79,-55 158.12,-52.29 160.49,-48.43"/>
<polygon fill="#63b8ff" stroke="#63b8ff" points="163.97,-47.96 158.55,-38.85 157.11,-49.35 163.97,-47.96"/>
</g>
<!-- Node3 -->
<g id="node3" class="node">
<title>Node3</title>
<g id="a_node3"><a xlink:href="group__counter.html#ga4f1edcd06bf52209d5293e54d0d1beb6" target="_top" xlink:title="Create a timeout object based on embed::counter.">
<polygon fill="white" stroke="#666666" points="329,-37 214,-37 214,-18 329,-18 329,-37"/>
<text text-anchor="middle" x="271.5" y="-25" font-family="Helvetica,sans-Serif" font-size="10.00">embed::create_timeout</text>
</a>
</g>
</g>
<!-- Node2&#45;&gt;Node3 -->
<g id="edge2" class="edge">
<title>Node2&#45;&gt;Node3</title>
<path fill="none" stroke="#63b8ff" d="M178.5,-27.5C186.02,-27.5 194.19,-27.5 202.44,-27.5"/>
<polygon fill="#63b8ff" stroke="#63b8ff" points="202.19,-31 212.19,-27.5 202.19,-24 202.19,-31"/>
</g>
<!-- Node4 -->
<g id="node4" class="node">
<title>Node4</title>
<g id="a_node4"><a xlink:href="classembed_1_1counter__timeout.html#aa5741370521bba1742b8d4080f26ac0d" target="_top" xlink:title="Create a counter_timeout.">
<polygon fill="white" stroke="#666666" points="485,-42.5 365,-42.5 365,-12.5 485,-12.5 485,-42.5"/>
<text text-anchor="start" x="373" y="-30.5" font-family="Helvetica,sans-Serif" font-size="10.00">embed::counter_timeout</text>
<text text-anchor="middle" x="425" y="-19.5" font-family="Helvetica,sans-Serif" font-size="10.00">::create</text>
</a>
</g>
</g>
<!-- Node3&#45;&gt;Node4 -->
<g id="edge3" class="edge">
<title>Node3&#45;&gt;Node4</title>
<path fill="none" stroke="#63b8ff" d="M329.34,-27.5C337.16,-27.5 345.27,-27.5 353.3,-27.5"/>
<polygon fill="#63b8ff" stroke="#63b8ff" points="353.05,-31 363.05,-27.5 353.05,-24 353.05,-31"/>
</g>
<!-- Node5 -->
<g id="node5" class="node">
<title>Node5</title>
<g id="a_node5"><a xlink:href="group__utility.html#ga61711bf3d8c25b82fb37db4f53426ef0" target="_top" xlink:title="Calculate the number of cycles of this frequency within the time duration. This function is meant for...">
<polygon fill="white" stroke="#666666" points="627.5,-56 530.5,-56 530.5,-37 627.5,-37 627.5,-56"/>
<text text-anchor="middle" x="579" y="-44" font-family="Helvetica,sans-Serif" font-size="10.00">embed::cycles_per</text>
</a>
</g>
</g>
<!-- Node4&#45;&gt;Node5 -->
<g id="edge4" class="edge">
<title>Node4&#45;&gt;Node5</title>
<path fill="none" stroke="#63b8ff" d="M485.2,-34.9C496.34,-36.29 507.98,-37.75 519.11,-39.14"/>
<polygon fill="#63b8ff" stroke="#63b8ff" points="518.61,-42.6 528.97,-40.37 519.48,-35.66 518.61,-42.6"/>
</g>
<!-- Node8 -->
<g id="node8" class="node">
<title>Node8</title>
<g id="a_node8"><a xlink:href="classembed_1_1counter.html#a02c24fbeaac81ef1030ff8e1a41b0738" target="_top" xlink:title="Get the uptime of the counter since it has started.">
<polygon fill="white" stroke="#666666" points="637,-19 521,-19 521,0 637,0 637,-19"/>
<text text-anchor="middle" x="579" y="-7" font-family="Helvetica,sans-Serif" font-size="10.00">embed::counter::uptime</text>
</a>
</g>
</g>
<!-- Node4&#45;&gt;Node8 -->
<g id="edge8" class="edge">
<title>Node4&#45;&gt;Node8</title>
<path fill="none" stroke="#63b8ff" d="M485.2,-20.49C493.13,-19.55 501.32,-18.58 509.4,-17.62"/>
<polygon fill="#63b8ff" stroke="#63b8ff" points="509.68,-21.11 519.2,-16.46 508.86,-14.16 509.68,-21.11"/>
</g>
<!-- Node6 -->
<g id="node6" class="node">
<title>Node6</title>
<g id="a_node6"><a xlink:href="group__utility.html#ga6f0922a28ac81378eb689b2ab4bc299a" target="_top" xlink:title="Generic absolute value function that works for integer types.">
<polygon fill="white" stroke="#666666" points="950,-56 834,-56 834,-37 950,-37 950,-56"/>
<text text-anchor="middle" x="892" y="-44" font-family="Helvetica,sans-Serif" font-size="10.00">embed::absolute_value</text>
</a>
</g>
</g>
<!-- Node5&#45;&gt;Node6 -->
<g id="edge5" class="edge">
<title>Node5&#45;&gt;Node6</title>
<path fill="none" stroke="#63b8ff" d="M627.91,-46.5C679.83,-46.5 763.12,-46.5 822.06,-46.5"/>
<polygon fill="#63b8ff" stroke="#63b8ff" points="822,-50 832,-46.5 822,-43 822,-50"/>
</g>
<!-- Node7 -->
<g id="node7" class="node">
<title>Node7</title>
<g id="a_node7"><a xlink:href="group__utility.html#ga84ea33bb969785c47247cfe0da9aa98e" target="_top" xlink:title="Perform integer division and round the value up if the next decimal place is greater than or equal to...">
<polygon fill="white" stroke="#666666" points="798,-37 673,-37 673,-18 798,-18 798,-37"/>
<text text-anchor="middle" x="735.5" y="-25" font-family="Helvetica,sans-Serif" font-size="10.00">embed::rounding_division</text>
</a>
</g>
</g>
<!-- Node5&#45;&gt;Node7 -->
<g id="edge6" class="edge">
<title>Node5&#45;&gt;Node7</title>
<path fill="none" stroke="#63b8ff" d="M627.62,-40.64C638.26,-39.34 649.78,-37.92 661.19,-36.52"/>
<polygon fill="#63b8ff" stroke="#63b8ff" points="661.52,-40 671.02,-35.31 660.67,-33.05 661.52,-40"/>
</g>
<!-- Node7&#45;&gt;Node6 -->
<g id="edge7" class="edge">
<title>Node7&#45;&gt;Node6</title>
<path fill="none" stroke="#63b8ff" d="M798.45,-35.12C806.23,-36.08 814.23,-37.06 822.12,-38.03"/>
<polygon fill="#63b8ff" stroke="#63b8ff" points="821.69,-41.5 832.04,-39.25 822.54,-34.55 821.69,-41.5"/>
</g>
</g>
</svg>
