<?xml version="1.0" encoding="UTF-8" standalone="no"?>
<!DOCTYPE svg PUBLIC "-//W3C//DTD SVG 1.1//EN"
 "http://www.w3.org/Graphics/SVG/1.1/DTD/svg11.dtd">
<!-- Generated by graphviz version 7.0.4 (20221203.1631)
 -->
<!-- Title: embed::value Pages: 1 -->
<svg width="268pt" height="64pt"
 viewBox="0.00 0.00 268.00 64.00" xmlns="http://www.w3.org/2000/svg" xmlns:xlink="http://www.w3.org/1999/xlink">
<g id="graph0" class="graph" transform="scale(1 1) rotate(0) translate(4 60)">
<title>embed::value</title>
<!-- Node1 -->
<g id="node1" class="node">
<title>Node1</title>
<g id="a_node1"><a xlink:title="Helper function to convert an enum to its integral value.">
<polygon fill="#999999" stroke="#666666" points="260,-37 186,-37 186,-18 260,-18 260,-37"/>
<text text-anchor="middle" x="223" y="-25" font-family="Helvetica,sans-Serif" font-size="10.00">embed::value</text>
</a>
</g>
</g>
<!-- Node2 -->
<g id="node2" class="node">
<title>Node2</title>
<g id="a_node2"><a xlink:href="namespaceembed_1_1literals.html#a8ff30f018521a0365e263942785e2877" target="_top" xlink:title="user defined literals for making frequencies in the kilohertz.">
<polygon fill="white" stroke="#666666" points="148.5,-56 1.5,-56 1.5,-37 148.5,-37 148.5,-56"/>
<text text-anchor="middle" x="75" y="-44" font-family="Helvetica,sans-Serif" font-size="10.00">embed::literals::operator&quot;&quot;_kHz</text>
</a>
</g>
</g>
<!-- Node1&#45;&gt;Node2 -->
<g id="edge1" class="edge">
<title>Node1&#45;&gt;Node2</title>
<path fill="none" stroke="#63b8ff" d="M174.31,-33.71C166.11,-34.77 157.42,-35.9 148.74,-37.03"/>
<polygon fill="#63b8ff" stroke="#63b8ff" points="174.57,-37.2 184.03,-32.44 173.67,-30.26 174.57,-37.2"/>
</g>
<!-- Node3 -->
<g id="node3" class="node">
<title>Node3</title>
<g id="a_node3"><a xlink:href="namespaceembed_1_1literals.html#ae39d4e8306f326d1534b89579286ba92" target="_top" xlink:title="user defined literals for making frequencies in the megahertz.">
<polygon fill="white" stroke="#666666" points="150,-19 0,-19 0,0 150,0 150,-19"/>
<text text-anchor="middle" x="75" y="-7" font-family="Helvetica,sans-Serif" font-size="10.00">embed::literals::operator&quot;&quot;_MHz</text>
</a>
</g>
</g>
<!-- Node1&#45;&gt;Node3 -->
<g id="edge2" class="edge">
<title>Node1&#45;&gt;Node3</title>
<path fill="none" stroke="#63b8ff" d="M174.3,-21.62C166.64,-20.68 158.57,-19.68 150.46,-18.68"/>
<polygon fill="#63b8ff" stroke="#63b8ff" points="173.68,-25.07 184.03,-22.82 174.54,-18.12 173.68,-25.07"/>
</g>
</g>
</svg>
