<?xml version="1.0" encoding="UTF-8" standalone="no"?>
<!DOCTYPE svg PUBLIC "-//W3C//DTD SVG 1.1//EN"
 "http://www.w3.org/Graphics/SVG/1.1/DTD/svg11.dtd">
<!-- Generated by graphviz version 7.0.5 (20221223.1930)
 -->
<!-- Title: embed::calculate_duty_cycle Pages: 1 -->
<svg width="583pt" height="95pt"
 viewBox="0.00 0.00 583.00 94.50" xmlns="http://www.w3.org/2000/svg" xmlns:xlink="http://www.w3.org/1999/xlink">
<g id="graph0" class="graph" transform="scale(1 1) rotate(0) translate(4 90.5)">
<title>embed::calculate_duty_cycle</title>
<!-- Node1 -->
<g id="node1" class="node">
<title>Node1</title>
<g id="a_node1"><a xlink:title="Calculate a duty cycle based on a source frequency, target wavelength and a percentage.">
<polygon fill="#999999" stroke="#666666" points="113,-64.5 0,-64.5 0,-34.5 113,-34.5 113,-64.5"/>
<text text-anchor="start" x="8" y="-52.5" font-family="Helvetica,sans-Serif" font-size="10.00">embed::calculate_duty</text>
<text text-anchor="middle" x="56.5" y="-41.5" font-family="Helvetica,sans-Serif" font-size="10.00">_cycle</text>
</a>
</g>
</g>
<!-- Node2 -->
<g id="node2" class="node">
<title>Node2</title>
<g id="a_node2"><a xlink:href="group__utility.html#gac197fc46936b832a6e9219b248e2f9bb" target="_top" xlink:title="Generate a duty_cycle object based on the percent value and the input count value....">
<polygon fill="white" stroke="#666666" points="262,-86.5 149,-86.5 149,-56.5 262,-56.5 262,-86.5"/>
<text text-anchor="start" x="157" y="-74.5" font-family="Helvetica,sans-Serif" font-size="10.00">embed::calculate_duty</text>
<text text-anchor="middle" x="205.5" y="-63.5" font-family="Helvetica,sans-Serif" font-size="10.00">_cycle</text>
</a>
</g>
</g>
<!-- Node1&#45;&gt;Node2 -->
<g id="edge1" class="edge">
<title>Node1&#45;&gt;Node2</title>
<path fill="none" stroke="#63b8ff" d="M113.49,-57.88C121.32,-59.05 129.44,-60.27 137.45,-61.46"/>
<polygon fill="#63b8ff" stroke="#63b8ff" points="136.76,-64.9 147.17,-62.92 137.79,-57.98 136.76,-64.9"/>
</g>
<!-- Node3 -->
<g id="node3" class="node">
<title>Node3</title>
<g id="a_node3"><a xlink:href="group__utility.html#ga61711bf3d8c25b82fb37db4f53426ef0" target="_top" xlink:title="Calculate the number of cycles of this frequency within the time duration. This function is meant for...">
<polygon fill="white" stroke="#666666" points="254,-38 157,-38 157,-19 254,-19 254,-38"/>
<text text-anchor="middle" x="205.5" y="-26" font-family="Helvetica,sans-Serif" font-size="10.00">embed::cycles_per</text>
</a>
</g>
</g>
<!-- Node1&#45;&gt;Node3 -->
<g id="edge2" class="edge">
<title>Node1&#45;&gt;Node3</title>
<path fill="none" stroke="#63b8ff" d="M113.49,-41.5C123.98,-40 134.97,-38.43 145.55,-36.92"/>
<polygon fill="#63b8ff" stroke="#63b8ff" points="145.91,-40.41 155.31,-35.53 144.92,-33.48 145.91,-40.41"/>
</g>
<!-- Node4 -->
<g id="node4" class="node">
<title>Node4</title>
<g id="a_node4"><a xlink:href="group__utility.html#ga6f0922a28ac81378eb689b2ab4bc299a" target="_top" xlink:title="Generic absolute value function that works for integer types.">
<polygon fill="white" stroke="#666666" points="575,-38 459,-38 459,-19 575,-19 575,-38"/>
<text text-anchor="middle" x="517" y="-26" font-family="Helvetica,sans-Serif" font-size="10.00">embed::absolute_value</text>
</a>
</g>
</g>
<!-- Node3&#45;&gt;Node4 -->
<g id="edge3" class="edge">
<title>Node3&#45;&gt;Node4</title>
<path fill="none" stroke="#63b8ff" d="M254.18,-28.5C305.77,-28.5 388.48,-28.5 447.13,-28.5"/>
<polygon fill="#63b8ff" stroke="#63b8ff" points="447,-32 457,-28.5 447,-25 447,-32"/>
</g>
<!-- Node5 -->
<g id="node5" class="node">
<title>Node5</title>
<g id="a_node5"><a xlink:href="group__utility.html#ga84ea33bb969785c47247cfe0da9aa98e" target="_top" xlink:title="Perform integer division and round the value up if the next decimal place is greater than or equal to...">
<polygon fill="white" stroke="#666666" points="423,-19 298,-19 298,0 423,0 423,-19"/>
<text text-anchor="middle" x="360.5" y="-7" font-family="Helvetica,sans-Serif" font-size="10.00">embed::rounding_division</text>
</a>
</g>
</g>
<!-- Node3&#45;&gt;Node5 -->
<g id="edge4" class="edge">
<title>Node3&#45;&gt;Node5</title>
<path fill="none" stroke="#63b8ff" d="M254.49,-22.54C264.64,-21.28 275.56,-19.92 286.4,-18.58"/>
<polygon fill="#63b8ff" stroke="#63b8ff" points="286.63,-22.08 296.12,-17.37 285.77,-15.13 286.63,-22.08"/>
</g>
<!-- Node5&#45;&gt;Node4 -->
<g id="edge5" class="edge">
<title>Node5&#45;&gt;Node4</title>
<path fill="none" stroke="#63b8ff" d="M423.45,-17.12C431.23,-18.08 439.23,-19.06 447.12,-20.03"/>
<polygon fill="#63b8ff" stroke="#63b8ff" points="446.69,-23.5 457.04,-21.25 447.54,-16.55 446.69,-23.5"/>
</g>
</g>
</svg>
