<?xml version="1.0" encoding="UTF-8" standalone="no"?>
<!DOCTYPE svg PUBLIC "-//W3C//DTD SVG 1.1//EN"
 "http://www.w3.org/Graphics/SVG/1.1/DTD/svg11.dtd">
<!-- Generated by graphviz version 7.0.5 (20221223.1930)
 -->
<!-- Title: embed::create_timeout Pages: 1 -->
<svg width="337pt" height="45pt"
 viewBox="0.00 0.00 337.00 45.00" xmlns="http://www.w3.org/2000/svg" xmlns:xlink="http://www.w3.org/1999/xlink">
<g id="graph0" class="graph" transform="scale(1 1) rotate(0) translate(4 41)">
<title>embed::create_timeout</title>
<!-- Node1 -->
<g id="node1" class="node">
<title>Node1</title>
<g id="a_node1"><a xlink:title="Create a timeout object based on embed::counter.">
<polygon fill="#999999" stroke="#666666" points="329,-19 214,-19 214,0 329,0 329,-19"/>
<text text-anchor="middle" x="271.5" y="-7" font-family="Helvetica,sans-Serif" font-size="10.00">embed::create_timeout</text>
</a>
</g>
</g>
<!-- Node2 -->
<g id="node2" class="node">
<title>Node2</title>
<g id="a_node2"><a xlink:href="group__counter.html#ga53e2d568aa13881c4213fe89a2e1c42e" target="_top" xlink:title="Delay execution for a duration of time using a hardware counter.">
<polygon fill="white" stroke="#666666" points="178,-19 105,-19 105,0 178,0 178,-19"/>
<text text-anchor="middle" x="141.5" y="-7" font-family="Helvetica,sans-Serif" font-size="10.00">embed::delay</text>
</a>
</g>
</g>
<!-- Node1&#45;&gt;Node2 -->
<g id="edge1" class="edge">
<title>Node1&#45;&gt;Node2</title>
<path fill="none" stroke="#63b8ff" d="M202.3,-9.5C194.01,-9.5 185.81,-9.5 178.26,-9.5"/>
<polygon fill="#63b8ff" stroke="#63b8ff" points="202.1,-13 212.1,-9.5 202.1,-6 202.1,-13"/>
</g>
<!-- Node2&#45;&gt;Node2 -->
<g id="edge2" class="edge">
<title>Node2&#45;&gt;Node2</title>
<path fill="none" stroke="#63b8ff" d="M160.49,-30.43C158.12,-34.29 151.79,-37 141.5,-37 122.69,-37 117.11,-27.94 124.75,-19.37"/>
<polygon fill="#63b8ff" stroke="#63b8ff" points="163.97,-29.96 158.55,-20.85 157.11,-31.35 163.97,-29.96"/>
</g>
<!-- Node3 -->
<g id="node3" class="node">
<title>Node3</title>
<g id="a_node3"><a xlink:href="group__serial.html#ga56439487351e68f734fdf9b6330da4d2" target="_top" xlink:title="Read bytes from a serial port.">
<polygon fill="white" stroke="#666666" points="69,-19 0,-19 0,0 69,0 69,-19"/>
<text text-anchor="middle" x="34.5" y="-7" font-family="Helvetica,sans-Serif" font-size="10.00">embed::read</text>
</a>
</g>
</g>
<!-- Node2&#45;&gt;Node3 -->
<g id="edge3" class="edge">
<title>Node2&#45;&gt;Node3</title>
<path fill="none" stroke="#63b8ff" d="M93.42,-9.5C85.33,-9.5 77.07,-9.5 69.41,-9.5"/>
<polygon fill="#63b8ff" stroke="#63b8ff" points="93.15,-13 103.15,-9.5 93.15,-6 93.15,-13"/>
</g>
</g>
</svg>
