<?xml version="1.0" encoding="UTF-8" standalone="no"?>
<!DOCTYPE svg PUBLIC "-//W3C//DTD SVG 1.1//EN"
 "http://www.w3.org/Graphics/SVG/1.1/DTD/svg11.dtd">
<!-- Generated by graphviz version 7.0.5 (20221223.1930)
 -->
<!-- Title: embed::read Pages: 1 -->
<svg width="232pt" height="64pt"
 viewBox="0.00 0.00 232.00 64.00" xmlns="http://www.w3.org/2000/svg" xmlns:xlink="http://www.w3.org/1999/xlink">
<g id="graph0" class="graph" transform="scale(1 1) rotate(0) translate(4 60)">
<title>embed::read</title>
<!-- Node1 -->
<g id="node1" class="node">
<title>Node1</title>
<g id="a_node1"><a xlink:title="read bytes from target device on i2c bus">
<polygon fill="#999999" stroke="#666666" points="224,-37 155,-37 155,-18 224,-18 224,-37"/>
<text text-anchor="middle" x="189.5" y="-25" font-family="Helvetica,sans-Serif" font-size="10.00">embed::read</text>
</a>
</g>
</g>
<!-- Node2 -->
<g id="node2" class="node">
<title>Node2</title>
<g id="a_node2"><a xlink:href="group__i2c.html#ga91b1991656f7b94b2412c709b12bb530" target="_top" xlink:title="return array of read bytes from target device on i2c bus">
<polygon fill="white" stroke="#666666" points="94,-56 25,-56 25,-37 94,-37 94,-56"/>
<text text-anchor="middle" x="59.5" y="-44" font-family="Helvetica,sans-Serif" font-size="10.00">embed::read</text>
</a>
</g>
</g>
<!-- Node1&#45;&gt;Node2 -->
<g id="edge1" class="edge">
<title>Node1&#45;&gt;Node2</title>
<path fill="none" stroke="#63b8ff" d="M143.16,-34.23C127.03,-36.62 109.16,-39.28 94.18,-41.5"/>
<polygon fill="#63b8ff" stroke="#63b8ff" points="143.66,-37.69 153.04,-32.76 142.63,-30.77 143.66,-37.69"/>
</g>
<!-- Node3 -->
<g id="node3" class="node">
<title>Node3</title>
<g id="a_node3"><a xlink:href="group__serial.html#ga5321e41f41aa9aa1f64454f3534fa581" target="_top" xlink:title="Perform a write then read transaction over serial.">
<polygon fill="white" stroke="#666666" points="119,-19 0,-19 0,0 119,0 119,-19"/>
<text text-anchor="middle" x="59.5" y="-7" font-family="Helvetica,sans-Serif" font-size="10.00">embed::write_then_read</text>
</a>
</g>
</g>
<!-- Node1&#45;&gt;Node3 -->
<g id="edge2" class="edge">
<title>Node1&#45;&gt;Node3</title>
<path fill="none" stroke="#63b8ff" d="M143.2,-21.13C135.49,-20.05 127.38,-18.91 119.38,-17.78"/>
<polygon fill="#63b8ff" stroke="#63b8ff" points="142.65,-24.59 153.04,-22.51 143.62,-17.65 142.65,-24.59"/>
</g>
</g>
</svg>
