<?xml version="1.0" encoding="UTF-8" standalone="no"?>
<!DOCTYPE svg PUBLIC "-//W3C//DTD SVG 1.1//EN"
 "http://www.w3.org/Graphics/SVG/1.1/DTD/svg11.dtd">
<!-- Generated by graphviz version 7.0.4 (20221203.1631)
 -->
<!-- Title: embed::to_string Pages: 1 -->
<svg width="399pt" height="131pt"
 viewBox="0.00 0.00 399.00 130.50" xmlns="http://www.w3.org/2000/svg" xmlns:xlink="http://www.w3.org/1999/xlink">
<g id="graph0" class="graph" transform="scale(1 1) rotate(0) translate(4 126.5)">
<title>embed::to_string</title>
<!-- Node1 -->
<g id="node1" class="node">
<title>Node1</title>
<g id="a_node1"><a xlink:title="convert this percentage value into a string from &#45;1.0 to +1.0">
<polygon fill="#999999" stroke="#666666" points="88,-67.5 0,-67.5 0,-48.5 88,-48.5 88,-67.5"/>
<text text-anchor="middle" x="44" y="-55.5" font-family="Helvetica,sans-Serif" font-size="10.00">embed::to_string</text>
</a>
</g>
</g>
<!-- Node2 -->
<g id="node2" class="node">
<title>Node2</title>
<g id="a_node2"><a xlink:href="classembed_1_1percent.html#a0f9fc596e3daa1948d0112b98544ef4f" target="_top" xlink:title="Get +100% percentage.">
<polygon fill="white" stroke="#666666" points="229,-104.5 124,-104.5 124,-85.5 229,-85.5 229,-104.5"/>
<text text-anchor="middle" x="176.5" y="-92.5" font-family="Helvetica,sans-Serif" font-size="10.00">embed::percent::max</text>
</a>
</g>
</g>
<!-- Node1&#45;&gt;Node2 -->
<g id="edge1" class="edge">
<title>Node1&#45;&gt;Node2</title>
<path fill="none" stroke="#63b8ff" d="M79.97,-67.92C95.18,-72.23 113.22,-77.34 129.5,-81.96"/>
<polygon fill="#63b8ff" stroke="#63b8ff" points="128.4,-85.28 138.98,-84.64 130.31,-78.55 128.4,-85.28"/>
</g>
<!-- Node5 -->
<g id="node5" class="node">
<title>Node5</title>
<g id="a_node5"><a xlink:href="classembed_1_1percent.html#a82d4dc647320164d22dc480723c9671b" target="_top" xlink:title="Get &#45;100% percentage.">
<polygon fill="white" stroke="#666666" points="228,-67.5 125,-67.5 125,-48.5 228,-48.5 228,-67.5"/>
<text text-anchor="middle" x="176.5" y="-55.5" font-family="Helvetica,sans-Serif" font-size="10.00">embed::percent::min</text>
</a>
</g>
</g>
<!-- Node1&#45;&gt;Node5 -->
<g id="edge4" class="edge">
<title>Node1&#45;&gt;Node5</title>
<path fill="none" stroke="#63b8ff" d="M88.45,-58C96.41,-58 104.85,-58 113.22,-58"/>
<polygon fill="#63b8ff" stroke="#63b8ff" points="113.04,-61.5 123.04,-58 113.04,-54.5 113.04,-61.5"/>
</g>
<!-- Node7 -->
<g id="node7" class="node">
<title>Node7</title>
<g id="a_node7"><a xlink:href="classembed_1_1percent.html#ad776812c80964b900f3d1644bea1d773" target="_top" xlink:title="Get raw integral value.">
<polygon fill="white" stroke="#666666" points="228,-30 125,-30 125,0 228,0 228,-30"/>
<text text-anchor="start" x="133" y="-18" font-family="Helvetica,sans-Serif" font-size="10.00">embed::percent::raw</text>
<text text-anchor="middle" x="176.5" y="-7" font-family="Helvetica,sans-Serif" font-size="10.00">_value</text>
</a>
</g>
</g>
<!-- Node1&#45;&gt;Node7 -->
<g id="edge7" class="edge">
<title>Node1&#45;&gt;Node7</title>
<path fill="none" stroke="#63b8ff" d="M75.27,-48.03C87.99,-43.83 103.23,-38.81 117.95,-33.96"/>
<polygon fill="#63b8ff" stroke="#63b8ff" points="118.68,-37.41 127.09,-30.95 116.49,-30.76 118.68,-37.41"/>
</g>
<!-- Node3 -->
<g id="node3" class="node">
<title>Node3</title>
<g id="a_node3"><a xlink:href="classembed_1_1percent.html#a3635a4d8e47f6a65226ee6391509f3a1" target="_top" xlink:title="Construct 0% percent object.">
<polygon fill="white" stroke="#666666" points="387.5,-85.5 268.5,-85.5 268.5,-66.5 387.5,-66.5 387.5,-85.5"/>
<text text-anchor="middle" x="328" y="-73.5" font-family="Helvetica,sans-Serif" font-size="10.00">embed::percent::percent</text>
</a>
</g>
</g>
<!-- Node2&#45;&gt;Node3 -->
<g id="edge2" class="edge">
<title>Node2&#45;&gt;Node3</title>
<path fill="none" stroke="#63b8ff" d="M229.37,-88.41C238.24,-87.28 247.59,-86.09 256.85,-84.92"/>
<polygon fill="#63b8ff" stroke="#63b8ff" points="257.07,-88.42 266.55,-83.68 256.19,-81.47 257.07,-88.42"/>
</g>
<!-- Node4 -->
<g id="node4" class="node">
<title>Node4</title>
<g id="a_node4"><a xlink:href="classembed_1_1percent.html#a18867853ebb7f7101932f298ef9ac059" target="_top" xlink:title="Get the 100% value in its raw representation.">
<polygon fill="white" stroke="#666666" points="391,-122.5 265,-122.5 265,-103.5 391,-103.5 391,-122.5"/>
<text text-anchor="middle" x="328" y="-110.5" font-family="Helvetica,sans-Serif" font-size="10.00">embed::percent::raw_max</text>
</a>
</g>
</g>
<!-- Node2&#45;&gt;Node4 -->
<g id="edge3" class="edge">
<title>Node2&#45;&gt;Node4</title>
<path fill="none" stroke="#63b8ff" d="M229.37,-101.25C237.11,-102.18 245.21,-103.15 253.29,-104.13"/>
<polygon fill="#63b8ff" stroke="#63b8ff" points="252.82,-107.59 263.17,-105.31 253.66,-100.64 252.82,-107.59"/>
</g>
<!-- Node5&#45;&gt;Node3 -->
<g id="edge5" class="edge">
<title>Node5&#45;&gt;Node3</title>
<path fill="none" stroke="#63b8ff" d="M228.11,-64.09C237.37,-65.21 247.18,-66.39 256.88,-67.56"/>
<polygon fill="#63b8ff" stroke="#63b8ff" points="256.33,-71.02 266.68,-68.74 257.17,-64.07 256.33,-71.02"/>
</g>
<!-- Node6 -->
<g id="node6" class="node">
<title>Node6</title>
<g id="a_node6"><a xlink:href="classembed_1_1percent.html#addd3062c4b442314f9b135b532367c44" target="_top" xlink:title="Get the &#45;100% value in its raw representation.">
<polygon fill="white" stroke="#666666" points="390,-48.5 266,-48.5 266,-29.5 390,-29.5 390,-48.5"/>
<text text-anchor="middle" x="328" y="-36.5" font-family="Helvetica,sans-Serif" font-size="10.00">embed::percent::raw_min</text>
</a>
</g>
</g>
<!-- Node5&#45;&gt;Node6 -->
<g id="edge6" class="edge">
<title>Node5&#45;&gt;Node6</title>
<path fill="none" stroke="#63b8ff" d="M228.11,-51.57C236.57,-50.49 245.49,-49.36 254.37,-48.23"/>
<polygon fill="#63b8ff" stroke="#63b8ff" points="254.58,-51.73 264.06,-47 253.7,-44.79 254.58,-51.73"/>
</g>
</g>
</svg>
