<?xml version="1.0" encoding="UTF-8" standalone="no"?>
<!DOCTYPE svg PUBLIC "-//W3C//DTD SVG 1.1//EN"
 "http://www.w3.org/Graphics/SVG/1.1/DTD/svg11.dtd">
<!-- Generated by graphviz version 7.0.5 (20221223.1930)
 -->
<!-- Title: embed::distance Pages: 1 -->
<svg width="271pt" height="101pt"
 viewBox="0.00 0.00 271.00 101.00" xmlns="http://www.w3.org/2000/svg" xmlns:xlink="http://www.w3.org/1999/xlink">
<g id="graph0" class="graph" transform="scale(1 1) rotate(0) translate(4 97)">
<title>embed::distance</title>
<!-- Node1 -->
<g id="node1" class="node">
<title>Node1</title>
<g id="a_node1"><a xlink:title="Calculates the distance between two values (L1 Norm or Manhattan distance), the absolute value of the...">
<polygon fill="#999999" stroke="#666666" points="263,-56 176,-56 176,-37 263,-37 263,-56"/>
<text text-anchor="middle" x="219.5" y="-44" font-family="Helvetica,sans-Serif" font-size="10.00">embed::distance</text>
</a>
</g>
</g>
<!-- Node2 -->
<g id="node2" class="node">
<title>Node2</title>
<g id="a_node2"><a xlink:href="group__utility.html#ga7c61114c56c371ced7e50428411220db" target="_top" xlink:title="Calculate divider for the closest resulting frequency to target.">
<polygon fill="white" stroke="#666666" points="111,-93 29,-93 29,-74 111,-74 111,-93"/>
<text text-anchor="middle" x="70" y="-81" font-family="Helvetica,sans-Serif" font-size="10.00">embed::closest</text>
</a>
</g>
</g>
<!-- Node1&#45;&gt;Node2 -->
<g id="edge1" class="edge">
<title>Node1&#45;&gt;Node2</title>
<path fill="none" stroke="#63b8ff" d="M167.95,-59.18C149.21,-63.88 128.26,-69.14 110.64,-73.56"/>
<polygon fill="#63b8ff" stroke="#63b8ff" points="168.66,-62.61 177.5,-56.78 166.95,-55.82 168.66,-62.61"/>
</g>
<!-- Node3 -->
<g id="node3" class="node">
<title>Node3</title>
<g id="a_node3"><a xlink:href="structembed_1_1map__range.html#a1358d673be561b9550aaa727ce65085c" target="_top" xlink:title=" ">
<polygon fill="white" stroke="#666666" points="140,-56 0,-56 0,-37 140,-37 140,-56"/>
<text text-anchor="middle" x="70" y="-44" font-family="Helvetica,sans-Serif" font-size="10.00">embed::map_range::distance</text>
</a>
</g>
</g>
<!-- Node1&#45;&gt;Node3 -->
<g id="edge2" class="edge">
<title>Node1&#45;&gt;Node3</title>
<path fill="none" stroke="#63b8ff" d="M164.54,-46.5C156.63,-46.5 148.4,-46.5 140.24,-46.5"/>
<polygon fill="#63b8ff" stroke="#63b8ff" points="164.32,-50 174.32,-46.5 164.32,-43 164.32,-50"/>
</g>
<!-- Node4 -->
<g id="node4" class="node">
<title>Node4</title>
<g id="a_node4"><a xlink:href="classembed_1_1percent.html#a706fa1b17fbcb4ccdd8cc6b037b224ee" target="_top" xlink:title="Comparison operator.">
<polygon fill="white" stroke="#666666" points="137,-19 3,-19 3,0 137,0 137,-19"/>
<text text-anchor="middle" x="70" y="-7" font-family="Helvetica,sans-Serif" font-size="10.00">embed::percent::operator==</text>
</a>
</g>
</g>
<!-- Node1&#45;&gt;Node4 -->
<g id="edge3" class="edge">
<title>Node1&#45;&gt;Node4</title>
<path fill="none" stroke="#63b8ff" d="M167.95,-33.82C149.21,-29.12 128.26,-23.86 110.64,-19.44"/>
<polygon fill="#63b8ff" stroke="#63b8ff" points="166.95,-37.18 177.5,-36.22 168.66,-30.39 166.95,-37.18"/>
</g>
</g>
</svg>
