<?xml version="1.0" encoding="UTF-8" standalone="no"?>
<!DOCTYPE svg PUBLIC "-//W3C//DTD SVG 1.1//EN"
 "http://www.w3.org/Graphics/SVG/1.1/DTD/svg11.dtd">
<!-- Generated by graphviz version 7.0.4 (20221203.1631)
 -->
<!-- Title: embed::delay Pages: 1 -->
<svg width="853pt" height="64pt"
 viewBox="0.00 0.00 853.00 64.00" xmlns="http://www.w3.org/2000/svg" xmlns:xlink="http://www.w3.org/1999/xlink">
<g id="graph0" class="graph" transform="scale(1 1) rotate(0) translate(4 60)">
<title>embed::delay</title>
<!-- Node1 -->
<g id="node1" class="node">
<title>Node1</title>
<g id="a_node1"><a xlink:title="Delay execution for a duration of time using a hardware counter.">
<polygon fill="#999999" stroke="#666666" points="73,-37 0,-37 0,-18 73,-18 73,-37"/>
<text text-anchor="middle" x="36.5" y="-25" font-family="Helvetica,sans-Serif" font-size="10.00">embed::delay</text>
</a>
</g>
</g>
<!-- Node1&#45;&gt;Node1 -->
<g id="edge8" class="edge">
<title>Node1&#45;&gt;Node1</title>
<path fill="none" stroke="#63b8ff" d="M16.15,-37.37C6.86,-45.94 13.65,-55 36.5,-55 49,-55 56.69,-52.29 59.57,-48.43"/>
<polygon fill="#63b8ff" stroke="#63b8ff" points="63,-47.71 57.21,-38.84 56.21,-49.38 63,-47.71"/>
</g>
<!-- Node2 -->
<g id="node2" class="node">
<title>Node2</title>
<g id="a_node2"><a xlink:href="group__counter.html#ga4f1edcd06bf52209d5293e54d0d1beb6" target="_top" xlink:title="Create a timeout object based on embed::counter.">
<polygon fill="white" stroke="#666666" points="224,-37 109,-37 109,-18 224,-18 224,-37"/>
<text text-anchor="middle" x="166.5" y="-25" font-family="Helvetica,sans-Serif" font-size="10.00">embed::create_timeout</text>
</a>
</g>
</g>
<!-- Node1&#45;&gt;Node2 -->
<g id="edge1" class="edge">
<title>Node1&#45;&gt;Node2</title>
<path fill="none" stroke="#63b8ff" d="M73.5,-27.5C81.02,-27.5 89.19,-27.5 97.44,-27.5"/>
<polygon fill="#63b8ff" stroke="#63b8ff" points="97.19,-31 107.19,-27.5 97.19,-24 97.19,-31"/>
</g>
<!-- Node3 -->
<g id="node3" class="node">
<title>Node3</title>
<g id="a_node3"><a xlink:href="classembed_1_1counter__timeout.html#aa5741370521bba1742b8d4080f26ac0d" target="_top" xlink:title="Create a counter_timeout.">
<polygon fill="white" stroke="#666666" points="380,-42.5 260,-42.5 260,-12.5 380,-12.5 380,-42.5"/>
<text text-anchor="start" x="268" y="-30.5" font-family="Helvetica,sans-Serif" font-size="10.00">embed::counter_timeout</text>
<text text-anchor="middle" x="320" y="-19.5" font-family="Helvetica,sans-Serif" font-size="10.00">::create</text>
</a>
</g>
</g>
<!-- Node2&#45;&gt;Node3 -->
<g id="edge2" class="edge">
<title>Node2&#45;&gt;Node3</title>
<path fill="none" stroke="#63b8ff" d="M224.34,-27.5C232.16,-27.5 240.27,-27.5 248.3,-27.5"/>
<polygon fill="#63b8ff" stroke="#63b8ff" points="248.05,-31 258.05,-27.5 248.05,-24 248.05,-31"/>
</g>
<!-- Node4 -->
<g id="node4" class="node">
<title>Node4</title>
<g id="a_node4"><a xlink:href="group__utility.html#ga61711bf3d8c25b82fb37db4f53426ef0" target="_top" xlink:title="Calculate the number of cycles of this frequency within the time duration. This function is meant for...">
<polygon fill="white" stroke="#666666" points="522.5,-56 425.5,-56 425.5,-37 522.5,-37 522.5,-56"/>
<text text-anchor="middle" x="474" y="-44" font-family="Helvetica,sans-Serif" font-size="10.00">embed::cycles_per</text>
</a>
</g>
</g>
<!-- Node3&#45;&gt;Node4 -->
<g id="edge3" class="edge">
<title>Node3&#45;&gt;Node4</title>
<path fill="none" stroke="#63b8ff" d="M380.2,-34.9C391.34,-36.29 402.98,-37.75 414.11,-39.14"/>
<polygon fill="#63b8ff" stroke="#63b8ff" points="413.61,-42.6 423.97,-40.37 414.48,-35.66 413.61,-42.6"/>
</g>
<!-- Node7 -->
<g id="node7" class="node">
<title>Node7</title>
<g id="a_node7"><a xlink:href="classembed_1_1counter.html#a02c24fbeaac81ef1030ff8e1a41b0738" target="_top" xlink:title="Get the uptime of the counter since it has started.">
<polygon fill="white" stroke="#666666" points="532,-19 416,-19 416,0 532,0 532,-19"/>
<text text-anchor="middle" x="474" y="-7" font-family="Helvetica,sans-Serif" font-size="10.00">embed::counter::uptime</text>
</a>
</g>
</g>
<!-- Node3&#45;&gt;Node7 -->
<g id="edge7" class="edge">
<title>Node3&#45;&gt;Node7</title>
<path fill="none" stroke="#63b8ff" d="M380.2,-20.49C388.13,-19.55 396.32,-18.58 404.4,-17.62"/>
<polygon fill="#63b8ff" stroke="#63b8ff" points="404.68,-21.11 414.2,-16.46 403.86,-14.16 404.68,-21.11"/>
</g>
<!-- Node5 -->
<g id="node5" class="node">
<title>Node5</title>
<g id="a_node5"><a xlink:href="group__utility.html#ga6f0922a28ac81378eb689b2ab4bc299a" target="_top" xlink:title="Generic absolute value function that works for integer types.">
<polygon fill="white" stroke="#666666" points="845,-56 729,-56 729,-37 845,-37 845,-56"/>
<text text-anchor="middle" x="787" y="-44" font-family="Helvetica,sans-Serif" font-size="10.00">embed::absolute_value</text>
</a>
</g>
</g>
<!-- Node4&#45;&gt;Node5 -->
<g id="edge4" class="edge">
<title>Node4&#45;&gt;Node5</title>
<path fill="none" stroke="#63b8ff" d="M522.91,-46.5C574.83,-46.5 658.12,-46.5 717.06,-46.5"/>
<polygon fill="#63b8ff" stroke="#63b8ff" points="717,-50 727,-46.5 717,-43 717,-50"/>
</g>
<!-- Node6 -->
<g id="node6" class="node">
<title>Node6</title>
<g id="a_node6"><a xlink:href="group__utility.html#ga84ea33bb969785c47247cfe0da9aa98e" target="_top" xlink:title="Perform integer division and round the value up if the next decimal place is greater than or equal to...">
<polygon fill="white" stroke="#666666" points="693,-37 568,-37 568,-18 693,-18 693,-37"/>
<text text-anchor="middle" x="630.5" y="-25" font-family="Helvetica,sans-Serif" font-size="10.00">embed::rounding_division</text>
</a>
</g>
</g>
<!-- Node4&#45;&gt;Node6 -->
<g id="edge5" class="edge">
<title>Node4&#45;&gt;Node6</title>
<path fill="none" stroke="#63b8ff" d="M522.62,-40.64C533.26,-39.34 544.78,-37.92 556.19,-36.52"/>
<polygon fill="#63b8ff" stroke="#63b8ff" points="556.52,-40 566.02,-35.31 555.67,-33.05 556.52,-40"/>
</g>
<!-- Node6&#45;&gt;Node5 -->
<g id="edge6" class="edge">
<title>Node6&#45;&gt;Node5</title>
<path fill="none" stroke="#63b8ff" d="M693.45,-35.12C701.23,-36.08 709.23,-37.06 717.12,-38.03"/>
<polygon fill="#63b8ff" stroke="#63b8ff" points="716.69,-41.5 727.04,-39.25 717.54,-34.55 716.69,-41.5"/>
</g>
</g>
</svg>
