<?xml version="1.0" encoding="UTF-8" standalone="no"?>
<!DOCTYPE svg PUBLIC "-//W3C//DTD SVG 1.1//EN"
 "http://www.w3.org/Graphics/SVG/1.1/DTD/svg11.dtd">
<!-- Generated by graphviz version 7.0.5 (20221223.1930)
 -->
<!-- Title: embed::write_then_read Pages: 1 -->
<svg width="386pt" height="27pt"
 viewBox="0.00 0.00 386.00 27.00" xmlns="http://www.w3.org/2000/svg" xmlns:xlink="http://www.w3.org/1999/xlink">
<g id="graph0" class="graph" transform="scale(1 1) rotate(0) translate(4 23)">
<title>embed::write_then_read</title>
<!-- Node1 -->
<g id="node1" class="node">
<title>Node1</title>
<g id="a_node1"><a xlink:title="Write data to the SPI bus and ignore data sent from peripherals on the bus then read data from the SP...">
<polygon fill="#999999" stroke="#666666" points="119,-19 0,-19 0,0 119,0 119,-19"/>
<text text-anchor="middle" x="59.5" y="-7" font-family="Helvetica,sans-Serif" font-size="10.00">embed::write_then_read</text>
</a>
</g>
</g>
<!-- Node2 -->
<g id="node2" class="node">
<title>Node2</title>
<g id="a_node2"><a xlink:href="group__i2c.html#gad98774e04252c5c5568a11b94b0282ac" target="_top" xlink:title="write data to a target device on the i2c bus">
<polygon fill="white" stroke="#666666" points="226,-19 155,-19 155,0 226,0 226,-19"/>
<text text-anchor="middle" x="190.5" y="-7" font-family="Helvetica,sans-Serif" font-size="10.00">embed::write</text>
</a>
</g>
</g>
<!-- Node1&#45;&gt;Node2 -->
<g id="edge1" class="edge">
<title>Node1&#45;&gt;Node2</title>
<path fill="none" stroke="#63b8ff" d="M119.34,-9.5C127.37,-9.5 135.52,-9.5 143.28,-9.5"/>
<polygon fill="#63b8ff" stroke="#63b8ff" points="143.19,-13 153.19,-9.5 143.19,-6 143.19,-13"/>
</g>
<!-- Node3 -->
<g id="node3" class="node">
<title>Node3</title>
<g id="a_node3"><a xlink:href="classembed_1_1i2c.html#a9bb87faac04a2d098572c50f106f7183" target="_top" xlink:title="perform an i2c transaction with another device on the bus. The type of transaction depends on values ...">
<polygon fill="white" stroke="#666666" points="378,-19 262,-19 262,0 378,0 378,-19"/>
<text text-anchor="middle" x="320" y="-7" font-family="Helvetica,sans-Serif" font-size="10.00">embed::i2c::transaction</text>
</a>
</g>
</g>
<!-- Node2&#45;&gt;Node3 -->
<g id="edge2" class="edge">
<title>Node2&#45;&gt;Node3</title>
<path fill="none" stroke="#63b8ff" d="M226.34,-9.5C233.84,-9.5 242.02,-9.5 250.31,-9.5"/>
<polygon fill="#63b8ff" stroke="#63b8ff" points="250.12,-13 260.12,-9.5 250.12,-6 250.12,-13"/>
</g>
</g>
</svg>
