<?xml version="1.0" encoding="UTF-8" standalone="no"?>
<!DOCTYPE svg PUBLIC "-//W3C//DTD SVG 1.1//EN"
 "http://www.w3.org/Graphics/SVG/1.1/DTD/svg11.dtd">
<!-- Generated by graphviz version 7.0.5 (20221223.1930)
 -->
<!-- Title: embed::rounding_division Pages: 1 -->
<svg width="800pt" height="306pt"
 viewBox="0.00 0.00 800.00 305.50" xmlns="http://www.w3.org/2000/svg" xmlns:xlink="http://www.w3.org/1999/xlink">
<g id="graph0" class="graph" transform="scale(1 1) rotate(0) translate(4 301.5)">
<title>embed::rounding_division</title>
<!-- Node1 -->
<g id="node1" class="node">
<title>Node1</title>
<g id="a_node1"><a xlink:title="Perform integer division and round the value up if the next decimal place is greater than or equal to...">
<polygon fill="#999999" stroke="#666666" points="792,-115 667,-115 667,-96 792,-96 792,-115"/>
<text text-anchor="middle" x="729.5" y="-103" font-family="Helvetica,sans-Serif" font-size="10.00">embed::rounding_division</text>
</a>
</g>
</g>
<!-- Node2 -->
<g id="node2" class="node">
<title>Node2</title>
<g id="a_node2"><a xlink:href="group__utility.html#ga61711bf3d8c25b82fb37db4f53426ef0" target="_top" xlink:title="Calculate the number of cycles of this frequency within the time duration. This function is meant for...">
<polygon fill="white" stroke="#666666" points="624.5,-244 527.5,-244 527.5,-225 624.5,-225 624.5,-244"/>
<text text-anchor="middle" x="576" y="-232" font-family="Helvetica,sans-Serif" font-size="10.00">embed::cycles_per</text>
</a>
</g>
</g>
<!-- Node1&#45;&gt;Node2 -->
<g id="edge1" class="edge">
<title>Node1&#45;&gt;Node2</title>
<path fill="none" stroke="#63b8ff" d="M711.74,-123.63C693.01,-143.39 661.34,-175.41 631,-199.5 619.28,-208.81 605.03,-217.96 594.12,-224.57"/>
<polygon fill="#63b8ff" stroke="#63b8ff" points="714.05,-126.27 718.34,-116.59 708.95,-121.49 714.05,-126.27"/>
</g>
<!-- Node8 -->
<g id="node8" class="node">
<title>Node8</title>
<g id="a_node8"><a xlink:href="group__utility.html#ga19bf555b8e14f12184073b07791fd56b" target="_top" xlink:title="Calculate the amount of time it takes a frequency to oscillate a number of cycles.">
<polygon fill="white" stroke="#666666" points="631,-190.5 521,-190.5 521,-160.5 631,-160.5 631,-190.5"/>
<text text-anchor="start" x="529" y="-178.5" font-family="Helvetica,sans-Serif" font-size="10.00">embed::duration_from</text>
<text text-anchor="middle" x="576" y="-167.5" font-family="Helvetica,sans-Serif" font-size="10.00">_cycles</text>
</a>
</g>
</g>
<!-- Node1&#45;&gt;Node8 -->
<g id="edge8" class="edge">
<title>Node1&#45;&gt;Node8</title>
<path fill="none" stroke="#63b8ff" d="M697.78,-120.21C678.63,-129.33 653.44,-141.22 631,-151.5 624.84,-154.32 618.27,-157.28 611.91,-160.12"/>
<polygon fill="#63b8ff" stroke="#63b8ff" points="699.13,-123.44 706.65,-115.98 696.12,-117.12 699.13,-123.44"/>
</g>
<!-- Node9 -->
<g id="node9" class="node">
<title>Node9</title>
<g id="a_node9"><a xlink:href="classembed_1_1percent.html#a3031fcd41ebdbc14fe77114d239c0b27" target="_top" xlink:title="Generate a percentage based on input relative to the maximum possible value.">
<polygon fill="white" stroke="#666666" points="629.5,-142.5 522.5,-142.5 522.5,-112.5 629.5,-112.5 629.5,-142.5"/>
<text text-anchor="start" x="530.5" y="-130.5" font-family="Helvetica,sans-Serif" font-size="10.00">embed::percent::from</text>
<text text-anchor="middle" x="576" y="-119.5" font-family="Helvetica,sans-Serif" font-size="10.00">_ratio</text>
</a>
</g>
</g>
<!-- Node1&#45;&gt;Node9 -->
<g id="edge9" class="edge">
<title>Node1&#45;&gt;Node9</title>
<path fill="none" stroke="#63b8ff" d="M655.54,-116.09C646.87,-117.35 638.14,-118.62 629.83,-119.83"/>
<polygon fill="#63b8ff" stroke="#63b8ff" points="655.99,-119.57 665.38,-114.67 654.98,-112.64 655.99,-119.57"/>
</g>
<!-- Node13 -->
<g id="node13" class="node">
<title>Node13</title>
<g id="a_node13"><a xlink:href="classembed_1_1percent.html#afa379fbbb92bc5dc22f0dce8bcf7ea1b" target="_top" xlink:title="Get the percent after it is scaled to a range. The output percent is bound within the given range....">
<polygon fill="white" stroke="#666666" points="480,-78 370,-78 370,-59 480,-59 480,-78"/>
<text text-anchor="middle" x="425" y="-66" font-family="Helvetica,sans-Serif" font-size="10.00">embed::percent::scale</text>
</a>
</g>
</g>
<!-- Node1&#45;&gt;Node13 -->
<g id="edge15" class="edge">
<title>Node1&#45;&gt;Node13</title>
<path fill="none" stroke="#63b8ff" d="M655.33,-96.55C601.37,-89.95 529.13,-81.11 480.26,-75.14"/>
<polygon fill="#63b8ff" stroke="#63b8ff" points="654.7,-100 665.05,-97.74 655.55,-93.05 654.7,-100"/>
</g>
<!-- Node14 -->
<g id="node14" class="node">
<title>Node14</title>
<g id="a_node14"><a xlink:href="group__utility.html#gaae7b07b6a4aaa1b6342b676f9b864372" target="_top" xlink:title="Scale down a frequency by an integer factor.">
<polygon fill="white" stroke="#666666" points="620.5,-56 531.5,-56 531.5,-37 620.5,-37 620.5,-56"/>
<text text-anchor="middle" x="576" y="-44" font-family="Helvetica,sans-Serif" font-size="10.00">embed::operator/</text>
</a>
</g>
</g>
<!-- Node1&#45;&gt;Node14 -->
<g id="edge14" class="edge">
<title>Node1&#45;&gt;Node14</title>
<path fill="none" stroke="#63b8ff" d="M692.67,-91.55C664.92,-80.74 627.16,-66.03 602.44,-56.41"/>
<polygon fill="#63b8ff" stroke="#63b8ff" points="691.14,-94.71 701.73,-95.08 693.68,-88.19 691.14,-94.71"/>
</g>
<!-- Node15 -->
<g id="node15" class="node">
<title>Node15</title>
<g id="a_node15"><a xlink:href="group__utility.html#ga595b4275cff4d56d9d6226568c7c9809" target="_top" xlink:title="Calculates and returns the wavelength in seconds.">
<polygon fill="white" stroke="#666666" points="626,-19 526,-19 526,0 626,0 626,-19"/>
<text text-anchor="middle" x="576" y="-7" font-family="Helvetica,sans-Serif" font-size="10.00">embed::wavelength</text>
</a>
</g>
</g>
<!-- Node1&#45;&gt;Node15 -->
<g id="edge16" class="edge">
<title>Node1&#45;&gt;Node15</title>
<path fill="none" stroke="#63b8ff" d="M710.45,-87.76C691.88,-70.35 661.44,-44.06 631,-27.5 625.36,-24.43 619.1,-21.76 612.9,-19.48"/>
<polygon fill="#63b8ff" stroke="#63b8ff" points="707.82,-90.09 717.47,-94.47 712.66,-85.03 707.82,-90.09"/>
</g>
<!-- Node3 -->
<g id="node3" class="node">
<title>Node3</title>
<g id="a_node3"><a xlink:href="group__utility.html#gaa1a076554c019239de0fb3e3fb4edcf2" target="_top" xlink:title="Calculate a duty cycle based on a source frequency, target wavelength and a percentage.">
<polygon fill="white" stroke="#666666" points="481.5,-297.5 368.5,-297.5 368.5,-267.5 481.5,-267.5 481.5,-297.5"/>
<text text-anchor="start" x="376.5" y="-285.5" font-family="Helvetica,sans-Serif" font-size="10.00">embed::calculate_duty</text>
<text text-anchor="middle" x="425" y="-274.5" font-family="Helvetica,sans-Serif" font-size="10.00">_cycle</text>
</a>
</g>
</g>
<!-- Node2&#45;&gt;Node3 -->
<g id="edge2" class="edge">
<title>Node2&#45;&gt;Node3</title>
<path fill="none" stroke="#63b8ff" d="M533.39,-247.9C514.9,-253.86 493.02,-260.91 473.85,-267.08"/>
<polygon fill="#63b8ff" stroke="#63b8ff" points="534.24,-251.31 542.69,-244.91 532.09,-244.64 534.24,-251.31"/>
</g>
<!-- Node4 -->
<g id="node4" class="node">
<title>Node4</title>
<g id="a_node4"><a xlink:href="classembed_1_1counter__timeout.html#aa5741370521bba1742b8d4080f26ac0d" target="_top" xlink:title="Create a counter_timeout.">
<polygon fill="white" stroke="#666666" points="485,-249.5 365,-249.5 365,-219.5 485,-219.5 485,-249.5"/>
<text text-anchor="start" x="373" y="-237.5" font-family="Helvetica,sans-Serif" font-size="10.00">embed::counter_timeout</text>
<text text-anchor="middle" x="425" y="-226.5" font-family="Helvetica,sans-Serif" font-size="10.00">::create</text>
</a>
</g>
</g>
<!-- Node2&#45;&gt;Node4 -->
<g id="edge3" class="edge">
<title>Node2&#45;&gt;Node4</title>
<path fill="none" stroke="#63b8ff" d="M515.58,-234.5C505.63,-234.5 495.31,-234.5 485.36,-234.5"/>
<polygon fill="#63b8ff" stroke="#63b8ff" points="515.52,-238 525.52,-234.5 515.52,-231 515.52,-238"/>
</g>
<!-- Node5 -->
<g id="node5" class="node">
<title>Node5</title>
<g id="a_node5"><a xlink:href="group__counter.html#ga4f1edcd06bf52209d5293e54d0d1beb6" target="_top" xlink:title="Create a timeout object based on embed::counter.">
<polygon fill="white" stroke="#666666" points="329,-244 214,-244 214,-225 329,-225 329,-244"/>
<text text-anchor="middle" x="271.5" y="-232" font-family="Helvetica,sans-Serif" font-size="10.00">embed::create_timeout</text>
</a>
</g>
</g>
<!-- Node4&#45;&gt;Node5 -->
<g id="edge4" class="edge">
<title>Node4&#45;&gt;Node5</title>
<path fill="none" stroke="#63b8ff" d="M353.28,-234.5C345.24,-234.5 337.12,-234.5 329.29,-234.5"/>
<polygon fill="#63b8ff" stroke="#63b8ff" points="353.04,-238 363.04,-234.5 353.04,-231 353.04,-238"/>
</g>
<!-- Node6 -->
<g id="node6" class="node">
<title>Node6</title>
<g id="a_node6"><a xlink:href="group__counter.html#ga53e2d568aa13881c4213fe89a2e1c42e" target="_top" xlink:title="Delay execution for a duration of time using a hardware counter.">
<polygon fill="white" stroke="#666666" points="178,-244 105,-244 105,-225 178,-225 178,-244"/>
<text text-anchor="middle" x="141.5" y="-232" font-family="Helvetica,sans-Serif" font-size="10.00">embed::delay</text>
</a>
</g>
</g>
<!-- Node5&#45;&gt;Node6 -->
<g id="edge5" class="edge">
<title>Node5&#45;&gt;Node6</title>
<path fill="none" stroke="#63b8ff" d="M202.3,-234.5C194.01,-234.5 185.81,-234.5 178.26,-234.5"/>
<polygon fill="#63b8ff" stroke="#63b8ff" points="202.1,-238 212.1,-234.5 202.1,-231 202.1,-238"/>
</g>
<!-- Node6&#45;&gt;Node6 -->
<g id="edge6" class="edge">
<title>Node6&#45;&gt;Node6</title>
<path fill="none" stroke="#63b8ff" d="M160.49,-255.43C158.12,-259.29 151.79,-262 141.5,-262 122.69,-262 117.11,-252.94 124.75,-244.37"/>
<polygon fill="#63b8ff" stroke="#63b8ff" points="163.97,-254.96 158.55,-245.85 157.11,-256.35 163.97,-254.96"/>
</g>
<!-- Node7 -->
<g id="node7" class="node">
<title>Node7</title>
<g id="a_node7"><a xlink:href="group__serial.html#ga56439487351e68f734fdf9b6330da4d2" target="_top" xlink:title="Read bytes from a serial port.">
<polygon fill="white" stroke="#666666" points="69,-244 0,-244 0,-225 69,-225 69,-244"/>
<text text-anchor="middle" x="34.5" y="-232" font-family="Helvetica,sans-Serif" font-size="10.00">embed::read</text>
</a>
</g>
</g>
<!-- Node6&#45;&gt;Node7 -->
<g id="edge7" class="edge">
<title>Node6&#45;&gt;Node7</title>
<path fill="none" stroke="#63b8ff" d="M93.42,-234.5C85.33,-234.5 77.07,-234.5 69.41,-234.5"/>
<polygon fill="#63b8ff" stroke="#63b8ff" points="93.15,-238 103.15,-234.5 93.15,-231 93.15,-238"/>
</g>
<!-- Node10 -->
<g id="node10" class="node">
<title>Node10</title>
<g id="a_node10"><a xlink:href="classembed_1_1rc__servo.html#a026639b8cea2066eb30b175a5bb4c3d0" target="_top" xlink:title="Factory function to create a rc_servo object.">
<polygon fill="white" stroke="#666666" points="484.5,-201 365.5,-201 365.5,-182 484.5,-182 484.5,-201"/>
<text text-anchor="middle" x="425" y="-189" font-family="Helvetica,sans-Serif" font-size="10.00">embed::rc_servo::create</text>
</a>
</g>
</g>
<!-- Node9&#45;&gt;Node10 -->
<g id="edge10" class="edge">
<title>Node9&#45;&gt;Node10</title>
<path fill="none" stroke="#63b8ff" d="M528.2,-147.84C525.75,-149.05 523.34,-150.27 521,-151.5 504.4,-160.22 502.1,-165.81 485,-173.5 478.26,-176.53 470.87,-179.23 463.66,-181.57"/>
<polygon fill="#63b8ff" stroke="#63b8ff" points="529.49,-151.11 537.02,-143.65 526.48,-144.79 529.49,-151.11"/>
</g>
<!-- Node11 -->
<g id="node11" class="node">
<title>Node11</title>
<g id="a_node11"><a xlink:href="group__utility.html#gafa1bc584612147c23f340cfd2786199c" target="_top" xlink:title="Map an target value [x] from an input range [a,b] to an output range [c,d].">
<polygon fill="white" stroke="#666666" points="459.5,-164 390.5,-164 390.5,-145 459.5,-145 459.5,-164"/>
<text text-anchor="middle" x="425" y="-152" font-family="Helvetica,sans-Serif" font-size="10.00">embed::map</text>
</a>
</g>
</g>
<!-- Node9&#45;&gt;Node11 -->
<g id="edge11" class="edge">
<title>Node9&#45;&gt;Node11</title>
<path fill="none" stroke="#63b8ff" d="M510.92,-139.11C493.3,-142.3 474.89,-145.64 459.73,-148.39"/>
<polygon fill="#63b8ff" stroke="#63b8ff" points="511.34,-142.59 520.56,-137.37 510.1,-135.7 511.34,-142.59"/>
</g>
<!-- Node12 -->
<g id="node12" class="node">
<title>Node12</title>
<g id="a_node12"><a xlink:href="structembed_1_1duty__cycle.html#ae3211da17ad871387109a5d901a18183" target="_top" xlink:title="Conversion from duty cycle to percentage.">
<polygon fill="white" stroke="#666666" points="475.5,-126.5 374.5,-126.5 374.5,-96.5 475.5,-96.5 475.5,-126.5"/>
<text text-anchor="start" x="382.5" y="-114.5" font-family="Helvetica,sans-Serif" font-size="10.00">embed::duty_cycle::</text>
<text text-anchor="middle" x="425" y="-103.5" font-family="Helvetica,sans-Serif" font-size="10.00">operator percent</text>
</a>
</g>
</g>
<!-- Node9&#45;&gt;Node12 -->
<g id="edge12" class="edge">
<title>Node9&#45;&gt;Node12</title>
<path fill="none" stroke="#63b8ff" d="M510.92,-120.62C499.16,-119.36 487.05,-118.06 475.79,-116.85"/>
<polygon fill="#63b8ff" stroke="#63b8ff" points="510.23,-124.06 520.54,-121.65 510.97,-117.1 510.23,-124.06"/>
</g>
<!-- Node9&#45;&gt;Node13 -->
<g id="edge13" class="edge">
<title>Node9&#45;&gt;Node13</title>
<path fill="none" stroke="#63b8ff" d="M532.07,-107.3C517.29,-100.65 500.55,-93.44 485,-87.5 476.66,-84.31 467.52,-81.2 458.98,-78.44"/>
<polygon fill="#63b8ff" stroke="#63b8ff" points="530.51,-110.44 541.06,-111.39 533.41,-104.06 530.51,-110.44"/>
</g>
</g>
</svg>
