<?xml version="1.0" encoding="UTF-8" standalone="no"?>
<!DOCTYPE svg PUBLIC "-//W3C//DTD SVG 1.1//EN"
 "http://www.w3.org/Graphics/SVG/1.1/DTD/svg11.dtd">
<!-- Generated by graphviz version 7.0.4 (20221203.1631)
 -->
<!-- Title: embed::read Pages: 1 -->
<svg width="982pt" height="83pt"
 viewBox="0.00 0.00 982.00 83.00" xmlns="http://www.w3.org/2000/svg" xmlns:xlink="http://www.w3.org/1999/xlink">
<g id="graph0" class="graph" transform="scale(1 1) rotate(0) translate(4 79)">
<title>embed::read</title>
<!-- Node1 -->
<g id="node1" class="node">
<title>Node1</title>
<g id="a_node1"><a xlink:title="Read bytes from a serial port.">
<polygon fill="#999999" stroke="#666666" points="69,-37 0,-37 0,-18 69,-18 69,-37"/>
<text text-anchor="middle" x="34.5" y="-25" font-family="Helvetica,sans-Serif" font-size="10.00">embed::read</text>
</a>
</g>
</g>
<!-- Node2 -->
<g id="node2" class="node">
<title>Node2</title>
<g id="a_node2"><a xlink:href="group__counter.html#ga53e2d568aa13881c4213fe89a2e1c42e" target="_top" xlink:title="Delay execution for a duration of time using a hardware counter.">
<polygon fill="white" stroke="#666666" points="190,-56 117,-56 117,-37 190,-37 190,-56"/>
<text text-anchor="middle" x="153.5" y="-44" font-family="Helvetica,sans-Serif" font-size="10.00">embed::delay</text>
</a>
</g>
</g>
<!-- Node1&#45;&gt;Node2 -->
<g id="edge1" class="edge">
<title>Node1&#45;&gt;Node2</title>
<path fill="none" stroke="#63b8ff" d="M69.34,-33C80.59,-34.82 93.33,-36.89 105.4,-38.85"/>
<polygon fill="#63b8ff" stroke="#63b8ff" points="104.77,-42.29 115.2,-40.44 105.89,-35.39 104.77,-42.29"/>
</g>
<!-- Node9 -->
<g id="node9" class="node">
<title>Node9</title>
<g id="a_node9"><a xlink:href="classembed_1_1serial.html#a802629f3a40ce507d6d99c1e41ab57df" target="_top" xlink:title="Read the bytes received over the ports receiver line and stored in the serial implementations buffer....">
<polygon fill="white" stroke="#666666" points="202,-19 105,-19 105,0 202,0 202,-19"/>
<text text-anchor="middle" x="153.5" y="-7" font-family="Helvetica,sans-Serif" font-size="10.00">embed::serial::read</text>
</a>
</g>
</g>
<!-- Node1&#45;&gt;Node9 -->
<g id="edge10" class="edge">
<title>Node1&#45;&gt;Node9</title>
<path fill="none" stroke="#63b8ff" d="M69.34,-22.29C76.95,-21.12 85.24,-19.85 93.54,-18.57"/>
<polygon fill="#63b8ff" stroke="#63b8ff" points="93.96,-22.05 103.32,-17.07 92.9,-15.13 93.96,-22.05"/>
</g>
<!-- Node2&#45;&gt;Node2 -->
<g id="edge9" class="edge">
<title>Node2&#45;&gt;Node2</title>
<path fill="none" stroke="#63b8ff" d="M134.87,-56.37C126.37,-64.94 132.58,-74 153.5,-74 164.94,-74 171.98,-71.29 174.62,-67.43"/>
<polygon fill="#63b8ff" stroke="#63b8ff" points="178.07,-66.83 172.46,-57.84 171.25,-68.37 178.07,-66.83"/>
</g>
<!-- Node3 -->
<g id="node3" class="node">
<title>Node3</title>
<g id="a_node3"><a xlink:href="group__counter.html#ga4f1edcd06bf52209d5293e54d0d1beb6" target="_top" xlink:title="Create a timeout object based on embed::counter.">
<polygon fill="white" stroke="#666666" points="353,-56 238,-56 238,-37 353,-37 353,-56"/>
<text text-anchor="middle" x="295.5" y="-44" font-family="Helvetica,sans-Serif" font-size="10.00">embed::create_timeout</text>
</a>
</g>
</g>
<!-- Node2&#45;&gt;Node3 -->
<g id="edge2" class="edge">
<title>Node2&#45;&gt;Node3</title>
<path fill="none" stroke="#63b8ff" d="M190.19,-46.5C201.23,-46.5 213.78,-46.5 226.26,-46.5"/>
<polygon fill="#63b8ff" stroke="#63b8ff" points="226.14,-50 236.14,-46.5 226.14,-43 226.14,-50"/>
</g>
<!-- Node4 -->
<g id="node4" class="node">
<title>Node4</title>
<g id="a_node4"><a xlink:href="classembed_1_1counter__timeout.html#aa5741370521bba1742b8d4080f26ac0d" target="_top" xlink:title="Create a counter_timeout.">
<polygon fill="white" stroke="#666666" points="509,-61.5 389,-61.5 389,-31.5 509,-31.5 509,-61.5"/>
<text text-anchor="start" x="397" y="-49.5" font-family="Helvetica,sans-Serif" font-size="10.00">embed::counter_timeout</text>
<text text-anchor="middle" x="449" y="-38.5" font-family="Helvetica,sans-Serif" font-size="10.00">::create</text>
</a>
</g>
</g>
<!-- Node3&#45;&gt;Node4 -->
<g id="edge3" class="edge">
<title>Node3&#45;&gt;Node4</title>
<path fill="none" stroke="#63b8ff" d="M353.34,-46.5C361.16,-46.5 369.27,-46.5 377.3,-46.5"/>
<polygon fill="#63b8ff" stroke="#63b8ff" points="377.05,-50 387.05,-46.5 377.05,-43 377.05,-50"/>
</g>
<!-- Node5 -->
<g id="node5" class="node">
<title>Node5</title>
<g id="a_node5"><a xlink:href="group__utility.html#ga61711bf3d8c25b82fb37db4f53426ef0" target="_top" xlink:title="Calculate the number of cycles of this frequency within the time duration. This function is meant for...">
<polygon fill="white" stroke="#666666" points="651.5,-75 554.5,-75 554.5,-56 651.5,-56 651.5,-75"/>
<text text-anchor="middle" x="603" y="-63" font-family="Helvetica,sans-Serif" font-size="10.00">embed::cycles_per</text>
</a>
</g>
</g>
<!-- Node4&#45;&gt;Node5 -->
<g id="edge4" class="edge">
<title>Node4&#45;&gt;Node5</title>
<path fill="none" stroke="#63b8ff" d="M509.2,-53.9C520.34,-55.29 531.98,-56.75 543.11,-58.14"/>
<polygon fill="#63b8ff" stroke="#63b8ff" points="542.61,-61.6 552.97,-59.37 543.48,-54.66 542.61,-61.6"/>
</g>
<!-- Node8 -->
<g id="node8" class="node">
<title>Node8</title>
<g id="a_node8"><a xlink:href="classembed_1_1counter.html#a02c24fbeaac81ef1030ff8e1a41b0738" target="_top" xlink:title="Get the uptime of the counter since it has started.">
<polygon fill="white" stroke="#666666" points="661,-38 545,-38 545,-19 661,-19 661,-38"/>
<text text-anchor="middle" x="603" y="-26" font-family="Helvetica,sans-Serif" font-size="10.00">embed::counter::uptime</text>
</a>
</g>
</g>
<!-- Node4&#45;&gt;Node8 -->
<g id="edge8" class="edge">
<title>Node4&#45;&gt;Node8</title>
<path fill="none" stroke="#63b8ff" d="M509.2,-39.49C517.13,-38.55 525.32,-37.58 533.4,-36.62"/>
<polygon fill="#63b8ff" stroke="#63b8ff" points="533.68,-40.11 543.2,-35.46 532.86,-33.16 533.68,-40.11"/>
</g>
<!-- Node6 -->
<g id="node6" class="node">
<title>Node6</title>
<g id="a_node6"><a xlink:href="group__utility.html#ga6f0922a28ac81378eb689b2ab4bc299a" target="_top" xlink:title="Generic absolute value function that works for integer types.">
<polygon fill="white" stroke="#666666" points="974,-75 858,-75 858,-56 974,-56 974,-75"/>
<text text-anchor="middle" x="916" y="-63" font-family="Helvetica,sans-Serif" font-size="10.00">embed::absolute_value</text>
</a>
</g>
</g>
<!-- Node5&#45;&gt;Node6 -->
<g id="edge5" class="edge">
<title>Node5&#45;&gt;Node6</title>
<path fill="none" stroke="#63b8ff" d="M651.91,-65.5C703.83,-65.5 787.12,-65.5 846.06,-65.5"/>
<polygon fill="#63b8ff" stroke="#63b8ff" points="846,-69 856,-65.5 846,-62 846,-69"/>
</g>
<!-- Node7 -->
<g id="node7" class="node">
<title>Node7</title>
<g id="a_node7"><a xlink:href="group__utility.html#ga84ea33bb969785c47247cfe0da9aa98e" target="_top" xlink:title="Perform integer division and round the value up if the next decimal place is greater than or equal to...">
<polygon fill="white" stroke="#666666" points="822,-56 697,-56 697,-37 822,-37 822,-56"/>
<text text-anchor="middle" x="759.5" y="-44" font-family="Helvetica,sans-Serif" font-size="10.00">embed::rounding_division</text>
</a>
</g>
</g>
<!-- Node5&#45;&gt;Node7 -->
<g id="edge6" class="edge">
<title>Node5&#45;&gt;Node7</title>
<path fill="none" stroke="#63b8ff" d="M651.62,-59.64C662.26,-58.34 673.78,-56.92 685.19,-55.52"/>
<polygon fill="#63b8ff" stroke="#63b8ff" points="685.52,-59 695.02,-54.31 684.67,-52.05 685.52,-59"/>
</g>
<!-- Node7&#45;&gt;Node6 -->
<g id="edge7" class="edge">
<title>Node7&#45;&gt;Node6</title>
<path fill="none" stroke="#63b8ff" d="M822.45,-54.12C830.23,-55.08 838.23,-56.06 846.12,-57.03"/>
<polygon fill="#63b8ff" stroke="#63b8ff" points="845.69,-60.5 856.04,-58.25 846.54,-53.55 845.69,-60.5"/>
</g>
</g>
</svg>
