<?xml version="1.0" encoding="UTF-8" standalone="no"?>
<!DOCTYPE svg PUBLIC "-//W3C//DTD SVG 1.1//EN"
 "http://www.w3.org/Graphics/SVG/1.1/DTD/svg11.dtd">
<!-- Generated by graphviz version 7.0.4 (20221203.1631)
 -->
<!-- Title: embed::map Pages: 1 -->
<svg width="534pt" height="138pt"
 viewBox="0.00 0.00 534.00 138.00" xmlns="http://www.w3.org/2000/svg" xmlns:xlink="http://www.w3.org/1999/xlink">
<g id="graph0" class="graph" transform="scale(1 1) rotate(0) translate(4 134)">
<title>embed::map</title>
<!-- Node1 -->
<g id="node1" class="node">
<title>Node1</title>
<g id="a_node1"><a xlink:title="Map an target value [x] from an input range [a,b] to an output range [c,d].">
<polygon fill="#999999" stroke="#666666" points="69,-74 0,-74 0,-55 69,-55 69,-74"/>
<text text-anchor="middle" x="34.5" y="-62" font-family="Helvetica,sans-Serif" font-size="10.00">embed::map</text>
</a>
</g>
</g>
<!-- Node2 -->
<g id="node2" class="node">
<title>Node2</title>
<g id="a_node2"><a xlink:href="classembed_1_1percent.html#a3031fcd41ebdbc14fe77114d239c0b27" target="_top" xlink:title="Generate a percentage based on input relative to the maximum possible value.">
<polygon fill="white" stroke="#666666" points="212,-79.5 105,-79.5 105,-49.5 212,-49.5 212,-79.5"/>
<text text-anchor="start" x="113" y="-67.5" font-family="Helvetica,sans-Serif" font-size="10.00">embed::percent::from</text>
<text text-anchor="middle" x="158.5" y="-56.5" font-family="Helvetica,sans-Serif" font-size="10.00">_ratio</text>
</a>
</g>
</g>
<!-- Node1&#45;&gt;Node2 -->
<g id="edge1" class="edge">
<title>Node1&#45;&gt;Node2</title>
<path fill="none" stroke="#63b8ff" d="M69.48,-64.5C76.86,-64.5 84.9,-64.5 93.03,-64.5"/>
<polygon fill="#63b8ff" stroke="#63b8ff" points="92.99,-68 102.99,-64.5 92.99,-61 92.99,-68"/>
</g>
<!-- Node3 -->
<g id="node3" class="node">
<title>Node3</title>
<g id="a_node3"><a xlink:href="classembed_1_1percent.html#a3635a4d8e47f6a65226ee6391509f3a1" target="_top" xlink:title="Construct 0% percent object.">
<polygon fill="white" stroke="#666666" points="370.5,-130 251.5,-130 251.5,-111 370.5,-111 370.5,-130"/>
<text text-anchor="middle" x="311" y="-118" font-family="Helvetica,sans-Serif" font-size="10.00">embed::percent::percent</text>
</a>
</g>
</g>
<!-- Node2&#45;&gt;Node3 -->
<g id="edge2" class="edge">
<title>Node2&#45;&gt;Node3</title>
<path fill="none" stroke="#63b8ff" d="M192.73,-79.92C209.17,-87.25 229.43,-95.84 248,-102.5 252.64,-104.16 257.51,-105.78 262.4,-107.33"/>
<polygon fill="#63b8ff" stroke="#63b8ff" points="261.01,-110.56 271.59,-110.14 263.05,-103.87 261.01,-110.56"/>
</g>
<!-- Node4 -->
<g id="node4" class="node">
<title>Node4</title>
<g id="a_node4"><a xlink:href="classembed_1_1percent.html#a18867853ebb7f7101932f298ef9ac059" target="_top" xlink:title="Get the 100% value in its raw representation.">
<polygon fill="white" stroke="#666666" points="374,-93 248,-93 248,-74 374,-74 374,-93"/>
<text text-anchor="middle" x="311" y="-81" font-family="Helvetica,sans-Serif" font-size="10.00">embed::percent::raw_max</text>
</a>
</g>
</g>
<!-- Node2&#45;&gt;Node4 -->
<g id="edge3" class="edge">
<title>Node2&#45;&gt;Node4</title>
<path fill="none" stroke="#63b8ff" d="M212.14,-71.15C219.92,-72.13 228.05,-73.15 236.16,-74.18"/>
<polygon fill="#63b8ff" stroke="#63b8ff" points="235.71,-77.65 246.07,-75.43 236.59,-70.7 235.71,-77.65"/>
</g>
<!-- Node5 -->
<g id="node5" class="node">
<title>Node5</title>
<g id="a_node5"><a xlink:href="classembed_1_1percent.html#addd3062c4b442314f9b135b532367c44" target="_top" xlink:title="Get the &#45;100% value in its raw representation.">
<polygon fill="white" stroke="#666666" points="373,-56 249,-56 249,-37 373,-37 373,-56"/>
<text text-anchor="middle" x="311" y="-44" font-family="Helvetica,sans-Serif" font-size="10.00">embed::percent::raw_min</text>
</a>
</g>
</g>
<!-- Node2&#45;&gt;Node5 -->
<g id="edge4" class="edge">
<title>Node2&#45;&gt;Node5</title>
<path fill="none" stroke="#63b8ff" d="M212.14,-58.2C220.33,-57.22 228.92,-56.2 237.46,-55.18"/>
<polygon fill="#63b8ff" stroke="#63b8ff" points="237.6,-58.68 247.12,-54.02 236.77,-51.73 237.6,-58.68"/>
</g>
<!-- Node6 -->
<g id="node6" class="node">
<title>Node6</title>
<g id="a_node6"><a xlink:href="group__utility.html#ga84ea33bb969785c47247cfe0da9aa98e" target="_top" xlink:title="Perform integer division and round the value up if the next decimal place is greater than or equal to...">
<polygon fill="white" stroke="#666666" points="373.5,-19 248.5,-19 248.5,0 373.5,0 373.5,-19"/>
<text text-anchor="middle" x="311" y="-7" font-family="Helvetica,sans-Serif" font-size="10.00">embed::rounding_division</text>
</a>
</g>
</g>
<!-- Node2&#45;&gt;Node6 -->
<g id="edge5" class="edge">
<title>Node2&#45;&gt;Node6</title>
<path fill="none" stroke="#63b8ff" d="M195.39,-49.05C211.37,-42.4 230.5,-34.73 248,-28.5 253.43,-26.57 259.17,-24.65 264.87,-22.82"/>
<polygon fill="#63b8ff" stroke="#63b8ff" points="265.77,-26.2 274.27,-19.87 263.68,-19.52 265.77,-26.2"/>
</g>
<!-- Node7 -->
<g id="node7" class="node">
<title>Node7</title>
<g id="a_node7"><a xlink:href="group__utility.html#ga6f0922a28ac81378eb689b2ab4bc299a" target="_top" xlink:title="Generic absolute value function that works for integer types.">
<polygon fill="white" stroke="#666666" points="526,-19 410,-19 410,0 526,0 526,-19"/>
<text text-anchor="middle" x="468" y="-7" font-family="Helvetica,sans-Serif" font-size="10.00">embed::absolute_value</text>
</a>
</g>
</g>
<!-- Node6&#45;&gt;Node7 -->
<g id="edge6" class="edge">
<title>Node6&#45;&gt;Node7</title>
<path fill="none" stroke="#63b8ff" d="M373.71,-9.5C381.74,-9.5 390.01,-9.5 398.15,-9.5"/>
<polygon fill="#63b8ff" stroke="#63b8ff" points="398.02,-13 408.02,-9.5 398.02,-6 398.02,-13"/>
</g>
</g>
</svg>
