<?xml version="1.0" encoding="UTF-8" standalone="no"?>
<!DOCTYPE svg PUBLIC "-//W3C//DTD SVG 1.1//EN"
 "http://www.w3.org/Graphics/SVG/1.1/DTD/svg11.dtd">
<!-- Generated by graphviz version 7.0.5 (20221223.1930)
 -->
<!-- Title: embed::cycles_per Pages: 1 -->
<svg width="626pt" height="86pt"
 viewBox="0.00 0.00 626.00 86.00" xmlns="http://www.w3.org/2000/svg" xmlns:xlink="http://www.w3.org/1999/xlink">
<g id="graph0" class="graph" transform="scale(1 1) rotate(0) translate(4 82)">
<title>embed::cycles_per</title>
<!-- Node1 -->
<g id="node1" class="node">
<title>Node1</title>
<g id="a_node1"><a xlink:title="Calculate the number of cycles of this frequency within the time duration. This function is meant for...">
<polygon fill="#999999" stroke="#666666" points="618,-48.5 521,-48.5 521,-29.5 618,-29.5 618,-48.5"/>
<text text-anchor="middle" x="569.5" y="-36.5" font-family="Helvetica,sans-Serif" font-size="10.00">embed::cycles_per</text>
</a>
</g>
</g>
<!-- Node2 -->
<g id="node2" class="node">
<title>Node2</title>
<g id="a_node2"><a xlink:href="group__utility.html#gaa1a076554c019239de0fb3e3fb4edcf2" target="_top" xlink:title="Calculate a duty cycle based on a source frequency, target wavelength and a percentage.">
<polygon fill="white" stroke="#666666" points="481.5,-78 368.5,-78 368.5,-48 481.5,-48 481.5,-78"/>
<text text-anchor="start" x="376.5" y="-66" font-family="Helvetica,sans-Serif" font-size="10.00">embed::calculate_duty</text>
<text text-anchor="middle" x="425" y="-55" font-family="Helvetica,sans-Serif" font-size="10.00">_cycle</text>
</a>
</g>
</g>
<!-- Node1&#45;&gt;Node2 -->
<g id="edge1" class="edge">
<title>Node1&#45;&gt;Node2</title>
<path fill="none" stroke="#63b8ff" d="M509.33,-48.97C500.23,-50.5 490.87,-52.07 481.85,-53.59"/>
<polygon fill="#63b8ff" stroke="#63b8ff" points="509.88,-52.42 519.16,-47.31 508.72,-45.52 509.88,-52.42"/>
</g>
<!-- Node3 -->
<g id="node3" class="node">
<title>Node3</title>
<g id="a_node3"><a xlink:href="classembed_1_1counter__timeout.html#aa5741370521bba1742b8d4080f26ac0d" target="_top" xlink:title="Create a counter_timeout.">
<polygon fill="white" stroke="#666666" points="485,-30 365,-30 365,0 485,0 485,-30"/>
<text text-anchor="start" x="373" y="-18" font-family="Helvetica,sans-Serif" font-size="10.00">embed::counter_timeout</text>
<text text-anchor="middle" x="425" y="-7" font-family="Helvetica,sans-Serif" font-size="10.00">::create</text>
</a>
</g>
</g>
<!-- Node1&#45;&gt;Node3 -->
<g id="edge2" class="edge">
<title>Node1&#45;&gt;Node3</title>
<path fill="none" stroke="#63b8ff" d="M509.55,-29.07C501.56,-27.73 493.36,-26.34 485.37,-25"/>
<polygon fill="#63b8ff" stroke="#63b8ff" points="508.72,-32.48 519.16,-30.69 509.88,-25.58 508.72,-32.48"/>
</g>
<!-- Node4 -->
<g id="node4" class="node">
<title>Node4</title>
<g id="a_node4"><a xlink:href="group__counter.html#ga4f1edcd06bf52209d5293e54d0d1beb6" target="_top" xlink:title="Create a timeout object based on embed::counter.">
<polygon fill="white" stroke="#666666" points="329,-24.5 214,-24.5 214,-5.5 329,-5.5 329,-24.5"/>
<text text-anchor="middle" x="271.5" y="-12.5" font-family="Helvetica,sans-Serif" font-size="10.00">embed::create_timeout</text>
</a>
</g>
</g>
<!-- Node3&#45;&gt;Node4 -->
<g id="edge3" class="edge">
<title>Node3&#45;&gt;Node4</title>
<path fill="none" stroke="#63b8ff" d="M353.28,-15C345.24,-15 337.12,-15 329.29,-15"/>
<polygon fill="#63b8ff" stroke="#63b8ff" points="353.04,-18.5 363.04,-15 353.04,-11.5 353.04,-18.5"/>
</g>
<!-- Node5 -->
<g id="node5" class="node">
<title>Node5</title>
<g id="a_node5"><a xlink:href="group__counter.html#ga53e2d568aa13881c4213fe89a2e1c42e" target="_top" xlink:title="Delay execution for a duration of time using a hardware counter.">
<polygon fill="white" stroke="#666666" points="178,-24.5 105,-24.5 105,-5.5 178,-5.5 178,-24.5"/>
<text text-anchor="middle" x="141.5" y="-12.5" font-family="Helvetica,sans-Serif" font-size="10.00">embed::delay</text>
</a>
</g>
</g>
<!-- Node4&#45;&gt;Node5 -->
<g id="edge4" class="edge">
<title>Node4&#45;&gt;Node5</title>
<path fill="none" stroke="#63b8ff" d="M202.3,-15C194.01,-15 185.81,-15 178.26,-15"/>
<polygon fill="#63b8ff" stroke="#63b8ff" points="202.1,-18.5 212.1,-15 202.1,-11.5 202.1,-18.5"/>
</g>
<!-- Node5&#45;&gt;Node5 -->
<g id="edge5" class="edge">
<title>Node5&#45;&gt;Node5</title>
<path fill="none" stroke="#63b8ff" d="M160.49,-35.93C158.12,-39.79 151.79,-42.5 141.5,-42.5 122.69,-42.5 117.11,-33.44 124.75,-24.87"/>
<polygon fill="#63b8ff" stroke="#63b8ff" points="163.97,-35.46 158.55,-26.35 157.11,-36.85 163.97,-35.46"/>
</g>
<!-- Node6 -->
<g id="node6" class="node">
<title>Node6</title>
<g id="a_node6"><a xlink:href="group__serial.html#ga56439487351e68f734fdf9b6330da4d2" target="_top" xlink:title="Read bytes from a serial port.">
<polygon fill="white" stroke="#666666" points="69,-24.5 0,-24.5 0,-5.5 69,-5.5 69,-24.5"/>
<text text-anchor="middle" x="34.5" y="-12.5" font-family="Helvetica,sans-Serif" font-size="10.00">embed::read</text>
</a>
</g>
</g>
<!-- Node5&#45;&gt;Node6 -->
<g id="edge6" class="edge">
<title>Node5&#45;&gt;Node6</title>
<path fill="none" stroke="#63b8ff" d="M93.42,-15C85.33,-15 77.07,-15 69.41,-15"/>
<polygon fill="#63b8ff" stroke="#63b8ff" points="93.15,-18.5 103.15,-15 93.15,-11.5 93.15,-18.5"/>
</g>
</g>
</svg>
