<?xml version="1.0" encoding="UTF-8" standalone="no"?>
<!DOCTYPE svg PUBLIC "-//W3C//DTD SVG 1.1//EN"
 "http://www.w3.org/Graphics/SVG/1.1/DTD/svg11.dtd">
<!-- Generated by graphviz version 7.0.5 (20221223.1930)
 -->
<!-- Title: embed::absolute_value Pages: 1 -->
<svg width="952pt" height="290pt"
 viewBox="0.00 0.00 952.00 289.50" xmlns="http://www.w3.org/2000/svg" xmlns:xlink="http://www.w3.org/1999/xlink">
<g id="graph0" class="graph" transform="scale(1 1) rotate(0) translate(4 285.5)">
<title>embed::absolute_value</title>
<!-- Node1 -->
<g id="node1" class="node">
<title>Node1</title>
<g id="a_node1"><a xlink:title="Generic absolute value function that works for integer types.">
<polygon fill="#999999" stroke="#666666" points="944,-156 828,-156 828,-137 944,-137 944,-156"/>
<text text-anchor="middle" x="886" y="-144" font-family="Helvetica,sans-Serif" font-size="10.00">embed::absolute_value</text>
</a>
</g>
</g>
<!-- Node2 -->
<g id="node2" class="node">
<title>Node2</title>
<g id="a_node2"><a xlink:href="group__utility.html#ga61711bf3d8c25b82fb37db4f53426ef0" target="_top" xlink:title="Calculate the number of cycles of this frequency within the time duration. This function is meant for...">
<polygon fill="white" stroke="#666666" points="624.5,-228 527.5,-228 527.5,-209 624.5,-209 624.5,-228"/>
<text text-anchor="middle" x="576" y="-216" font-family="Helvetica,sans-Serif" font-size="10.00">embed::cycles_per</text>
</a>
</g>
</g>
<!-- Node1&#45;&gt;Node2 -->
<g id="edge1" class="edge">
<title>Node1&#45;&gt;Node2</title>
<path fill="none" stroke="#63b8ff" d="M831.33,-159.05C771.16,-173.11 674.78,-195.64 619.56,-208.55"/>
<polygon fill="#63b8ff" stroke="#63b8ff" points="832.08,-162.46 841.02,-156.78 830.49,-155.65 832.08,-162.46"/>
</g>
<!-- Node8 -->
<g id="node8" class="node">
<title>Node8</title>
<g id="a_node8"><a xlink:href="group__utility.html#ga84ea33bb969785c47247cfe0da9aa98e" target="_top" xlink:title="Perform integer division and round the value up if the next decimal place is greater than or equal to...">
<polygon fill="white" stroke="#666666" points="792,-137 667,-137 667,-118 792,-118 792,-137"/>
<text text-anchor="middle" x="729.5" y="-125" font-family="Helvetica,sans-Serif" font-size="10.00">embed::rounding_division</text>
</a>
</g>
</g>
<!-- Node1&#45;&gt;Node8 -->
<g id="edge8" class="edge">
<title>Node1&#45;&gt;Node8</title>
<path fill="none" stroke="#63b8ff" d="M816.59,-138.09C808.5,-137.09 800.28,-136.08 792.29,-135.1"/>
<polygon fill="#63b8ff" stroke="#63b8ff" points="816.05,-141.55 826.41,-139.29 816.91,-134.6 816.05,-141.55"/>
</g>
<!-- Node3 -->
<g id="node3" class="node">
<title>Node3</title>
<g id="a_node3"><a xlink:href="group__utility.html#gaa1a076554c019239de0fb3e3fb4edcf2" target="_top" xlink:title="Calculate a duty cycle based on a source frequency, target wavelength and a percentage.">
<polygon fill="white" stroke="#666666" points="481.5,-281.5 368.5,-281.5 368.5,-251.5 481.5,-251.5 481.5,-281.5"/>
<text text-anchor="start" x="376.5" y="-269.5" font-family="Helvetica,sans-Serif" font-size="10.00">embed::calculate_duty</text>
<text text-anchor="middle" x="425" y="-258.5" font-family="Helvetica,sans-Serif" font-size="10.00">_cycle</text>
</a>
</g>
</g>
<!-- Node2&#45;&gt;Node3 -->
<g id="edge2" class="edge">
<title>Node2&#45;&gt;Node3</title>
<path fill="none" stroke="#63b8ff" d="M533.39,-231.9C514.9,-237.86 493.02,-244.91 473.85,-251.08"/>
<polygon fill="#63b8ff" stroke="#63b8ff" points="534.24,-235.31 542.69,-228.91 532.09,-228.64 534.24,-235.31"/>
</g>
<!-- Node4 -->
<g id="node4" class="node">
<title>Node4</title>
<g id="a_node4"><a xlink:href="classembed_1_1counter__timeout.html#aa5741370521bba1742b8d4080f26ac0d" target="_top" xlink:title="Create a counter_timeout.">
<polygon fill="white" stroke="#666666" points="485,-233.5 365,-233.5 365,-203.5 485,-203.5 485,-233.5"/>
<text text-anchor="start" x="373" y="-221.5" font-family="Helvetica,sans-Serif" font-size="10.00">embed::counter_timeout</text>
<text text-anchor="middle" x="425" y="-210.5" font-family="Helvetica,sans-Serif" font-size="10.00">::create</text>
</a>
</g>
</g>
<!-- Node2&#45;&gt;Node4 -->
<g id="edge3" class="edge">
<title>Node2&#45;&gt;Node4</title>
<path fill="none" stroke="#63b8ff" d="M515.58,-218.5C505.63,-218.5 495.31,-218.5 485.36,-218.5"/>
<polygon fill="#63b8ff" stroke="#63b8ff" points="515.52,-222 525.52,-218.5 515.52,-215 515.52,-222"/>
</g>
<!-- Node5 -->
<g id="node5" class="node">
<title>Node5</title>
<g id="a_node5"><a xlink:href="group__counter.html#ga4f1edcd06bf52209d5293e54d0d1beb6" target="_top" xlink:title="Create a timeout object based on embed::counter.">
<polygon fill="white" stroke="#666666" points="329,-228 214,-228 214,-209 329,-209 329,-228"/>
<text text-anchor="middle" x="271.5" y="-216" font-family="Helvetica,sans-Serif" font-size="10.00">embed::create_timeout</text>
</a>
</g>
</g>
<!-- Node4&#45;&gt;Node5 -->
<g id="edge4" class="edge">
<title>Node4&#45;&gt;Node5</title>
<path fill="none" stroke="#63b8ff" d="M353.28,-218.5C345.24,-218.5 337.12,-218.5 329.29,-218.5"/>
<polygon fill="#63b8ff" stroke="#63b8ff" points="353.04,-222 363.04,-218.5 353.04,-215 353.04,-222"/>
</g>
<!-- Node6 -->
<g id="node6" class="node">
<title>Node6</title>
<g id="a_node6"><a xlink:href="group__counter.html#ga53e2d568aa13881c4213fe89a2e1c42e" target="_top" xlink:title="Delay execution for a duration of time using a hardware counter.">
<polygon fill="white" stroke="#666666" points="178,-228 105,-228 105,-209 178,-209 178,-228"/>
<text text-anchor="middle" x="141.5" y="-216" font-family="Helvetica,sans-Serif" font-size="10.00">embed::delay</text>
</a>
</g>
</g>
<!-- Node5&#45;&gt;Node6 -->
<g id="edge5" class="edge">
<title>Node5&#45;&gt;Node6</title>
<path fill="none" stroke="#63b8ff" d="M202.3,-218.5C194.01,-218.5 185.81,-218.5 178.26,-218.5"/>
<polygon fill="#63b8ff" stroke="#63b8ff" points="202.1,-222 212.1,-218.5 202.1,-215 202.1,-222"/>
</g>
<!-- Node6&#45;&gt;Node6 -->
<g id="edge6" class="edge">
<title>Node6&#45;&gt;Node6</title>
<path fill="none" stroke="#63b8ff" d="M160.49,-239.43C158.12,-243.29 151.79,-246 141.5,-246 122.69,-246 117.11,-236.94 124.75,-228.37"/>
<polygon fill="#63b8ff" stroke="#63b8ff" points="163.97,-238.96 158.55,-229.85 157.11,-240.35 163.97,-238.96"/>
</g>
<!-- Node7 -->
<g id="node7" class="node">
<title>Node7</title>
<g id="a_node7"><a xlink:href="group__serial.html#ga56439487351e68f734fdf9b6330da4d2" target="_top" xlink:title="Read bytes from a serial port.">
<polygon fill="white" stroke="#666666" points="69,-228 0,-228 0,-209 69,-209 69,-228"/>
<text text-anchor="middle" x="34.5" y="-216" font-family="Helvetica,sans-Serif" font-size="10.00">embed::read</text>
</a>
</g>
</g>
<!-- Node6&#45;&gt;Node7 -->
<g id="edge7" class="edge">
<title>Node6&#45;&gt;Node7</title>
<path fill="none" stroke="#63b8ff" d="M93.42,-218.5C85.33,-218.5 77.07,-218.5 69.41,-218.5"/>
<polygon fill="#63b8ff" stroke="#63b8ff" points="93.15,-222 103.15,-218.5 93.15,-215 93.15,-222"/>
</g>
<!-- Node8&#45;&gt;Node2 -->
<g id="edge9" class="edge">
<title>Node8&#45;&gt;Node2</title>
<path fill="none" stroke="#63b8ff" d="M708.97,-144.67C690.08,-160.59 660.11,-184.08 631,-199.5 624.5,-202.94 617.25,-205.98 610.22,-208.57"/>
<polygon fill="#63b8ff" stroke="#63b8ff" points="711.07,-147.48 716.39,-138.31 706.52,-142.16 711.07,-147.48"/>
</g>
<!-- Node9 -->
<g id="node9" class="node">
<title>Node9</title>
<g id="a_node9"><a xlink:href="group__utility.html#ga19bf555b8e14f12184073b07791fd56b" target="_top" xlink:title="Calculate the amount of time it takes a frequency to oscillate a number of cycles.">
<polygon fill="white" stroke="#666666" points="631,-190.5 521,-190.5 521,-160.5 631,-160.5 631,-190.5"/>
<text text-anchor="start" x="529" y="-178.5" font-family="Helvetica,sans-Serif" font-size="10.00">embed::duration_from</text>
<text text-anchor="middle" x="576" y="-167.5" font-family="Helvetica,sans-Serif" font-size="10.00">_cycles</text>
</a>
</g>
</g>
<!-- Node8&#45;&gt;Node9 -->
<g id="edge10" class="edge">
<title>Node8&#45;&gt;Node9</title>
<path fill="none" stroke="#63b8ff" d="M686.19,-140.9C667.39,-146.86 645.14,-153.91 625.66,-160.08"/>
<polygon fill="#63b8ff" stroke="#63b8ff" points="687.19,-144.26 695.67,-137.9 685.08,-137.59 687.19,-144.26"/>
</g>
<!-- Node10 -->
<g id="node10" class="node">
<title>Node10</title>
<g id="a_node10"><a xlink:href="classembed_1_1percent.html#a3031fcd41ebdbc14fe77114d239c0b27" target="_top" xlink:title="Generate a percentage based on input relative to the maximum possible value.">
<polygon fill="white" stroke="#666666" points="629.5,-142.5 522.5,-142.5 522.5,-112.5 629.5,-112.5 629.5,-142.5"/>
<text text-anchor="start" x="530.5" y="-130.5" font-family="Helvetica,sans-Serif" font-size="10.00">embed::percent::from</text>
<text text-anchor="middle" x="576" y="-119.5" font-family="Helvetica,sans-Serif" font-size="10.00">_ratio</text>
</a>
</g>
</g>
<!-- Node8&#45;&gt;Node10 -->
<g id="edge11" class="edge">
<title>Node8&#45;&gt;Node10</title>
<path fill="none" stroke="#63b8ff" d="M655.54,-127.5C646.87,-127.5 638.14,-127.5 629.83,-127.5"/>
<polygon fill="#63b8ff" stroke="#63b8ff" points="655.37,-131 665.37,-127.5 655.37,-124 655.37,-131"/>
</g>
<!-- Node14 -->
<g id="node14" class="node">
<title>Node14</title>
<g id="a_node14"><a xlink:href="classembed_1_1percent.html#afa379fbbb92bc5dc22f0dce8bcf7ea1b" target="_top" xlink:title="Get the percent after it is scaled to a range. The output percent is bound within the given range....">
<polygon fill="white" stroke="#666666" points="480,-62 370,-62 370,-43 480,-43 480,-62"/>
<text text-anchor="middle" x="425" y="-50" font-family="Helvetica,sans-Serif" font-size="10.00">embed::percent::scale</text>
</a>
</g>
</g>
<!-- Node8&#45;&gt;Node14 -->
<g id="edge17" class="edge">
<title>Node8&#45;&gt;Node14</title>
<path fill="none" stroke="#63b8ff" d="M677.28,-114.8C617.58,-100 520.19,-75.85 465.85,-62.38"/>
<polygon fill="#63b8ff" stroke="#63b8ff" points="676.31,-118.17 686.86,-117.18 678,-111.37 676.31,-118.17"/>
</g>
<!-- Node15 -->
<g id="node15" class="node">
<title>Node15</title>
<g id="a_node15"><a xlink:href="group__utility.html#gaae7b07b6a4aaa1b6342b676f9b864372" target="_top" xlink:title="Scale down a frequency by an integer factor.">
<polygon fill="white" stroke="#666666" points="620.5,-56 531.5,-56 531.5,-37 620.5,-37 620.5,-56"/>
<text text-anchor="middle" x="576" y="-44" font-family="Helvetica,sans-Serif" font-size="10.00">embed::operator/</text>
</a>
</g>
</g>
<!-- Node8&#45;&gt;Node15 -->
<g id="edge16" class="edge">
<title>Node8&#45;&gt;Node15</title>
<path fill="none" stroke="#63b8ff" d="M703.31,-111.74C683.87,-99.83 656.14,-83.39 631,-70.5 621.32,-65.54 610.4,-60.57 600.92,-56.45"/>
<polygon fill="#63b8ff" stroke="#63b8ff" points="701.29,-114.6 711.64,-116.88 704.97,-108.64 701.29,-114.6"/>
</g>
<!-- Node16 -->
<g id="node16" class="node">
<title>Node16</title>
<g id="a_node16"><a xlink:href="group__utility.html#ga595b4275cff4d56d9d6226568c7c9809" target="_top" xlink:title="Calculates and returns the wavelength in seconds.">
<polygon fill="white" stroke="#666666" points="626,-19 526,-19 526,0 626,0 626,-19"/>
<text text-anchor="middle" x="576" y="-7" font-family="Helvetica,sans-Serif" font-size="10.00">embed::wavelength</text>
</a>
</g>
</g>
<!-- Node8&#45;&gt;Node16 -->
<g id="edge18" class="edge">
<title>Node8&#45;&gt;Node16</title>
<path fill="none" stroke="#63b8ff" d="M714.7,-108.63C697.45,-86.29 665.92,-49.39 631,-27.5 625.98,-24.35 620.34,-21.69 614.66,-19.46"/>
<polygon fill="#63b8ff" stroke="#63b8ff" points="711.85,-110.67 720.67,-116.55 717.44,-106.45 711.85,-110.67"/>
</g>
<!-- Node11 -->
<g id="node11" class="node">
<title>Node11</title>
<g id="a_node11"><a xlink:href="classembed_1_1rc__servo.html#a026639b8cea2066eb30b175a5bb4c3d0" target="_top" xlink:title="Factory function to create a rc_servo object.">
<polygon fill="white" stroke="#666666" points="484.5,-185 365.5,-185 365.5,-166 484.5,-166 484.5,-185"/>
<text text-anchor="middle" x="425" y="-173" font-family="Helvetica,sans-Serif" font-size="10.00">embed::rc_servo::create</text>
</a>
</g>
</g>
<!-- Node10&#45;&gt;Node11 -->
<g id="edge12" class="edge">
<title>Node10&#45;&gt;Node11</title>
<path fill="none" stroke="#63b8ff" d="M518.42,-146.61C507.35,-150.27 495.83,-154.04 485,-157.5 476.63,-160.17 467.57,-162.98 459.12,-165.56"/>
<polygon fill="#63b8ff" stroke="#63b8ff" points="519.47,-149.95 527.85,-143.47 517.26,-143.3 519.47,-149.95"/>
</g>
<!-- Node12 -->
<g id="node12" class="node">
<title>Node12</title>
<g id="a_node12"><a xlink:href="group__utility.html#gafa1bc584612147c23f340cfd2786199c" target="_top" xlink:title="Map an target value [x] from an input range [a,b] to an output range [c,d].">
<polygon fill="white" stroke="#666666" points="459.5,-148 390.5,-148 390.5,-129 459.5,-129 459.5,-148"/>
<text text-anchor="middle" x="425" y="-136" font-family="Helvetica,sans-Serif" font-size="10.00">embed::map</text>
</a>
</g>
</g>
<!-- Node10&#45;&gt;Node12 -->
<g id="edge13" class="edge">
<title>Node10&#45;&gt;Node12</title>
<path fill="none" stroke="#63b8ff" d="M510.67,-132.25C493.13,-133.54 474.82,-134.9 459.73,-136.01"/>
<polygon fill="#63b8ff" stroke="#63b8ff" points="510.82,-135.75 520.54,-131.52 510.31,-128.77 510.82,-135.75"/>
</g>
<!-- Node13 -->
<g id="node13" class="node">
<title>Node13</title>
<g id="a_node13"><a xlink:href="structembed_1_1duty__cycle.html#ae3211da17ad871387109a5d901a18183" target="_top" xlink:title="Conversion from duty cycle to percentage.">
<polygon fill="white" stroke="#666666" points="475.5,-110.5 374.5,-110.5 374.5,-80.5 475.5,-80.5 475.5,-110.5"/>
<text text-anchor="start" x="382.5" y="-98.5" font-family="Helvetica,sans-Serif" font-size="10.00">embed::duty_cycle::</text>
<text text-anchor="middle" x="425" y="-87.5" font-family="Helvetica,sans-Serif" font-size="10.00">operator percent</text>
</a>
</g>
</g>
<!-- Node10&#45;&gt;Node13 -->
<g id="edge14" class="edge">
<title>Node10&#45;&gt;Node13</title>
<path fill="none" stroke="#63b8ff" d="M510.92,-113.74C499.16,-111.21 487.05,-108.61 475.79,-106.19"/>
<polygon fill="#63b8ff" stroke="#63b8ff" points="510.06,-117.13 520.57,-115.81 511.53,-110.29 510.06,-117.13"/>
</g>
<!-- Node10&#45;&gt;Node14 -->
<g id="edge15" class="edge">
<title>Node10&#45;&gt;Node14</title>
<path fill="none" stroke="#63b8ff" d="M534.34,-106.52C529.78,-103.92 525.25,-101.21 521,-98.5 504.14,-87.74 502.76,-80.69 485,-71.5 478.21,-67.99 470.65,-64.96 463.27,-62.42"/>
<polygon fill="#63b8ff" stroke="#63b8ff" points="532.5,-109.5 542.94,-111.29 535.89,-103.38 532.5,-109.5"/>
</g>
</g>
</svg>
