<?xml version="1.0" encoding="UTF-8" standalone="no"?>
<!DOCTYPE svg PUBLIC "-//W3C//DTD SVG 1.1//EN"
 "http://www.w3.org/Graphics/SVG/1.1/DTD/svg11.dtd">
<!-- Generated by graphviz version 7.0.4 (20221203.1631)
 -->
<!-- Title: embed::create_timeout Pages: 1 -->
<svg width="744pt" height="64pt"
 viewBox="0.00 0.00 744.00 64.00" xmlns="http://www.w3.org/2000/svg" xmlns:xlink="http://www.w3.org/1999/xlink">
<g id="graph0" class="graph" transform="scale(1 1) rotate(0) translate(4 60)">
<title>embed::create_timeout</title>
<!-- Node1 -->
<g id="node1" class="node">
<title>Node1</title>
<g id="a_node1"><a xlink:title="Create a timeout object based on embed::counter.">
<polygon fill="#999999" stroke="#666666" points="115,-37 0,-37 0,-18 115,-18 115,-37"/>
<text text-anchor="middle" x="57.5" y="-25" font-family="Helvetica,sans-Serif" font-size="10.00">embed::create_timeout</text>
</a>
</g>
</g>
<!-- Node2 -->
<g id="node2" class="node">
<title>Node2</title>
<g id="a_node2"><a xlink:href="classembed_1_1counter__timeout.html#aa5741370521bba1742b8d4080f26ac0d" target="_top" xlink:title="Create a counter_timeout.">
<polygon fill="white" stroke="#666666" points="271,-42.5 151,-42.5 151,-12.5 271,-12.5 271,-42.5"/>
<text text-anchor="start" x="159" y="-30.5" font-family="Helvetica,sans-Serif" font-size="10.00">embed::counter_timeout</text>
<text text-anchor="middle" x="211" y="-19.5" font-family="Helvetica,sans-Serif" font-size="10.00">::create</text>
</a>
</g>
</g>
<!-- Node1&#45;&gt;Node2 -->
<g id="edge1" class="edge">
<title>Node1&#45;&gt;Node2</title>
<path fill="none" stroke="#63b8ff" d="M115.34,-27.5C123.16,-27.5 131.27,-27.5 139.3,-27.5"/>
<polygon fill="#63b8ff" stroke="#63b8ff" points="139.05,-31 149.05,-27.5 139.05,-24 139.05,-31"/>
</g>
<!-- Node3 -->
<g id="node3" class="node">
<title>Node3</title>
<g id="a_node3"><a xlink:href="group__utility.html#ga61711bf3d8c25b82fb37db4f53426ef0" target="_top" xlink:title="Calculate the number of cycles of this frequency within the time duration. This function is meant for...">
<polygon fill="white" stroke="#666666" points="413.5,-56 316.5,-56 316.5,-37 413.5,-37 413.5,-56"/>
<text text-anchor="middle" x="365" y="-44" font-family="Helvetica,sans-Serif" font-size="10.00">embed::cycles_per</text>
</a>
</g>
</g>
<!-- Node2&#45;&gt;Node3 -->
<g id="edge2" class="edge">
<title>Node2&#45;&gt;Node3</title>
<path fill="none" stroke="#63b8ff" d="M271.2,-34.9C282.34,-36.29 293.98,-37.75 305.11,-39.14"/>
<polygon fill="#63b8ff" stroke="#63b8ff" points="304.61,-42.6 314.97,-40.37 305.48,-35.66 304.61,-42.6"/>
</g>
<!-- Node6 -->
<g id="node6" class="node">
<title>Node6</title>
<g id="a_node6"><a xlink:href="classembed_1_1counter.html#a02c24fbeaac81ef1030ff8e1a41b0738" target="_top" xlink:title="Get the uptime of the counter since it has started.">
<polygon fill="white" stroke="#666666" points="423,-19 307,-19 307,0 423,0 423,-19"/>
<text text-anchor="middle" x="365" y="-7" font-family="Helvetica,sans-Serif" font-size="10.00">embed::counter::uptime</text>
</a>
</g>
</g>
<!-- Node2&#45;&gt;Node6 -->
<g id="edge6" class="edge">
<title>Node2&#45;&gt;Node6</title>
<path fill="none" stroke="#63b8ff" d="M271.2,-20.49C279.13,-19.55 287.32,-18.58 295.4,-17.62"/>
<polygon fill="#63b8ff" stroke="#63b8ff" points="295.68,-21.11 305.2,-16.46 294.86,-14.16 295.68,-21.11"/>
</g>
<!-- Node4 -->
<g id="node4" class="node">
<title>Node4</title>
<g id="a_node4"><a xlink:href="group__utility.html#ga6f0922a28ac81378eb689b2ab4bc299a" target="_top" xlink:title="Generic absolute value function that works for integer types.">
<polygon fill="white" stroke="#666666" points="736,-56 620,-56 620,-37 736,-37 736,-56"/>
<text text-anchor="middle" x="678" y="-44" font-family="Helvetica,sans-Serif" font-size="10.00">embed::absolute_value</text>
</a>
</g>
</g>
<!-- Node3&#45;&gt;Node4 -->
<g id="edge3" class="edge">
<title>Node3&#45;&gt;Node4</title>
<path fill="none" stroke="#63b8ff" d="M413.91,-46.5C465.83,-46.5 549.12,-46.5 608.06,-46.5"/>
<polygon fill="#63b8ff" stroke="#63b8ff" points="608,-50 618,-46.5 608,-43 608,-50"/>
</g>
<!-- Node5 -->
<g id="node5" class="node">
<title>Node5</title>
<g id="a_node5"><a xlink:href="group__utility.html#ga84ea33bb969785c47247cfe0da9aa98e" target="_top" xlink:title="Perform integer division and round the value up if the next decimal place is greater than or equal to...">
<polygon fill="white" stroke="#666666" points="584,-37 459,-37 459,-18 584,-18 584,-37"/>
<text text-anchor="middle" x="521.5" y="-25" font-family="Helvetica,sans-Serif" font-size="10.00">embed::rounding_division</text>
</a>
</g>
</g>
<!-- Node3&#45;&gt;Node5 -->
<g id="edge4" class="edge">
<title>Node3&#45;&gt;Node5</title>
<path fill="none" stroke="#63b8ff" d="M413.62,-40.64C424.26,-39.34 435.78,-37.92 447.19,-36.52"/>
<polygon fill="#63b8ff" stroke="#63b8ff" points="447.52,-40 457.02,-35.31 446.67,-33.05 447.52,-40"/>
</g>
<!-- Node5&#45;&gt;Node4 -->
<g id="edge5" class="edge">
<title>Node5&#45;&gt;Node4</title>
<path fill="none" stroke="#63b8ff" d="M584.45,-35.12C592.23,-36.08 600.23,-37.06 608.12,-38.03"/>
<polygon fill="#63b8ff" stroke="#63b8ff" points="607.69,-41.5 618.04,-39.25 608.54,-34.55 607.69,-41.5"/>
</g>
</g>
</svg>
