<?xml version="1.0" encoding="UTF-8" standalone="no"?>
<!DOCTYPE svg PUBLIC "-//W3C//DTD SVG 1.1//EN"
 "http://www.w3.org/Graphics/SVG/1.1/DTD/svg11.dtd">
<!-- Generated by graphviz version 7.0.4 (20221203.1631)
 -->
<!-- Title: embed::write_then_read Pages: 1 -->
<svg width="386pt" height="64pt"
 viewBox="0.00 0.00 386.00 64.00" xmlns="http://www.w3.org/2000/svg" xmlns:xlink="http://www.w3.org/1999/xlink">
<g id="graph0" class="graph" transform="scale(1 1) rotate(0) translate(4 60)">
<title>embed::write_then_read</title>
<!-- Node1 -->
<g id="node1" class="node">
<title>Node1</title>
<g id="a_node1"><a xlink:title="Write data to the SPI bus and ignore data sent from peripherals on the bus then read data from the SP...">
<polygon fill="#999999" stroke="#666666" points="119,-37 0,-37 0,-18 119,-18 119,-37"/>
<text text-anchor="middle" x="59.5" y="-25" font-family="Helvetica,sans-Serif" font-size="10.00">embed::write_then_read</text>
</a>
</g>
</g>
<!-- Node2 -->
<g id="node2" class="node">
<title>Node2</title>
<g id="a_node2"><a xlink:href="group__i2c.html#gaef748fa7125b16c5b9672e0e9aaf3787" target="_top" xlink:title="read bytes from target device on i2c bus">
<polygon fill="white" stroke="#666666" points="225,-56 156,-56 156,-37 225,-37 225,-56"/>
<text text-anchor="middle" x="190.5" y="-44" font-family="Helvetica,sans-Serif" font-size="10.00">embed::read</text>
</a>
</g>
</g>
<!-- Node1&#45;&gt;Node2 -->
<g id="edge1" class="edge">
<title>Node1&#45;&gt;Node2</title>
<path fill="none" stroke="#63b8ff" d="M119.34,-36.17C127.83,-37.42 136.45,-38.69 144.61,-39.89"/>
<polygon fill="#63b8ff" stroke="#63b8ff" points="143.88,-43.32 154.28,-41.31 144.9,-36.39 143.88,-43.32"/>
</g>
<!-- Node4 -->
<g id="node4" class="node">
<title>Node4</title>
<g id="a_node4"><a xlink:href="group__i2c.html#gad98774e04252c5c5568a11b94b0282ac" target="_top" xlink:title="write data to a target device on the i2c bus">
<polygon fill="white" stroke="#666666" points="226,-19 155,-19 155,0 226,0 226,-19"/>
<text text-anchor="middle" x="190.5" y="-7" font-family="Helvetica,sans-Serif" font-size="10.00">embed::write</text>
</a>
</g>
</g>
<!-- Node1&#45;&gt;Node4 -->
<g id="edge3" class="edge">
<title>Node1&#45;&gt;Node4</title>
<path fill="none" stroke="#63b8ff" d="M119.34,-19.29C127.46,-18.16 135.71,-17.01 143.56,-15.91"/>
<polygon fill="#63b8ff" stroke="#63b8ff" points="143.78,-19.41 153.2,-14.56 142.82,-12.48 143.78,-19.41"/>
</g>
<!-- Node3 -->
<g id="node3" class="node">
<title>Node3</title>
<g id="a_node3"><a xlink:href="classembed_1_1i2c.html#a9bb87faac04a2d098572c50f106f7183" target="_top" xlink:title="perform an i2c transaction with another device on the bus. The type of transaction depends on values ...">
<polygon fill="white" stroke="#666666" points="378,-37 262,-37 262,-18 378,-18 378,-37"/>
<text text-anchor="middle" x="320" y="-25" font-family="Helvetica,sans-Serif" font-size="10.00">embed::i2c::transaction</text>
</a>
</g>
</g>
<!-- Node2&#45;&gt;Node3 -->
<g id="edge2" class="edge">
<title>Node2&#45;&gt;Node3</title>
<path fill="none" stroke="#63b8ff" d="M225.33,-41.46C233.22,-40.28 241.89,-38.99 250.68,-37.68"/>
<polygon fill="#63b8ff" stroke="#63b8ff" points="250.96,-41.18 260.33,-36.24 249.93,-34.25 250.96,-41.18"/>
</g>
<!-- Node4&#45;&gt;Node3 -->
<g id="edge4" class="edge">
<title>Node4&#45;&gt;Node3</title>
<path fill="none" stroke="#63b8ff" d="M226.34,-14.42C233.84,-15.48 242.02,-16.63 250.31,-17.8"/>
<polygon fill="#63b8ff" stroke="#63b8ff" points="249.75,-21.26 260.14,-19.19 250.73,-14.33 249.75,-21.26"/>
</g>
</g>
</svg>
