<?xml version="1.0" encoding="UTF-8" standalone="no"?>
<!DOCTYPE svg PUBLIC "-//W3C//DTD SVG 1.1//EN"
 "http://www.w3.org/Graphics/SVG/1.1/DTD/svg11.dtd">
<!-- Generated by graphviz version 7.0.4 (20221203.1631)
 -->
<!-- Title: Graphical Class Hierarchy Pages: 1 -->
<svg width="221pt" height="64pt"
 viewBox="0.00 0.00 221.00 64.00" xmlns="http://www.w3.org/2000/svg" xmlns:xlink="http://www.w3.org/1999/xlink">
<g id="graph0" class="graph" transform="scale(1 1) rotate(0) translate(4 60)">
<title>Graphical Class Hierarchy</title>
<!-- Node0 -->
<g id="node1" class="node">
<title>Node0</title>
<g id="a_node1"><a xlink:href="classembed_1_1servo.html" target="_top" xlink:title="Hardware abstraction for closed loop positional rotary and linear actuators.">
<polygon fill="white" stroke="#666666" points="74,-37 0,-37 0,-18 74,-18 74,-37"/>
<text text-anchor="middle" x="37" y="-25" font-family="Helvetica,sans-Serif" font-size="10.00">embed::servo</text>
</a>
</g>
</g>
<!-- Node1 -->
<g id="node2" class="node">
<title>Node1</title>
<g id="a_node2"><a xlink:href="structembed_1_1mock_1_1servo.html" target="_top" xlink:title="mock servo implementation for use in unit tests and simulations.">
<polygon fill="white" stroke="#666666" points="213,-56 110,-56 110,-37 213,-37 213,-56"/>
<text text-anchor="middle" x="161.5" y="-44" font-family="Helvetica,sans-Serif" font-size="10.00">embed::mock::servo</text>
</a>
</g>
</g>
<!-- Node0&#45;&gt;Node1 -->
<g id="edge1" class="edge">
<title>Node0&#45;&gt;Node1</title>
<path fill="none" stroke="#63b8ff" d="M85.75,-34.91C93.68,-36.14 101.94,-37.42 109.94,-38.66"/>
<polygon fill="#63b8ff" stroke="#63b8ff" points="86.34,-31.46 75.92,-33.38 85.26,-38.37 86.34,-31.46"/>
</g>
<!-- Node2 -->
<g id="node3" class="node">
<title>Node2</title>
<g id="a_node3"><a xlink:href="classembed_1_1rc__servo.html" target="_top" xlink:title="Generic RC servo driver.">
<polygon fill="white" stroke="#666666" points="205.5,-19 117.5,-19 117.5,0 205.5,0 205.5,-19"/>
<text text-anchor="middle" x="161.5" y="-7" font-family="Helvetica,sans-Serif" font-size="10.00">embed::rc_servo</text>
</a>
</g>
</g>
<!-- Node0&#45;&gt;Node2 -->
<g id="edge2" class="edge">
<title>Node0&#45;&gt;Node2</title>
<path fill="none" stroke="#63b8ff" d="M85.78,-20.48C96.09,-18.96 106.95,-17.37 117.09,-15.88"/>
<polygon fill="#63b8ff" stroke="#63b8ff" points="85.3,-17.01 75.92,-21.93 86.32,-23.94 85.3,-17.01"/>
</g>
</g>
</svg>
