<?xml version="1.0" encoding="UTF-8" standalone="no"?>
<!DOCTYPE svg PUBLIC "-//W3C//DTD SVG 1.1//EN"
 "http://www.w3.org/Graphics/SVG/1.1/DTD/svg11.dtd">
<!-- Generated by graphviz version 7.0.5 (20221223.1930)
 -->
<!-- Title: embed::duty_cycle::operator percent Pages: 1 -->
<svg width="566pt" height="138pt"
 viewBox="0.00 0.00 566.00 138.00" xmlns="http://www.w3.org/2000/svg" xmlns:xlink="http://www.w3.org/1999/xlink">
<g id="graph0" class="graph" transform="scale(1 1) rotate(0) translate(4 134)">
<title>embed::duty_cycle::operator percent</title>
<!-- Node1 -->
<g id="node1" class="node">
<title>Node1</title>
<g id="a_node1"><a xlink:title="Conversion from duty cycle to percentage.">
<polygon fill="#999999" stroke="#666666" points="101,-79.5 0,-79.5 0,-49.5 101,-49.5 101,-79.5"/>
<text text-anchor="start" x="8" y="-67.5" font-family="Helvetica,sans-Serif" font-size="10.00">embed::duty_cycle::</text>
<text text-anchor="middle" x="50.5" y="-56.5" font-family="Helvetica,sans-Serif" font-size="10.00">operator percent</text>
</a>
</g>
</g>
<!-- Node2 -->
<g id="node2" class="node">
<title>Node2</title>
<g id="a_node2"><a xlink:href="classembed_1_1percent.html#a3031fcd41ebdbc14fe77114d239c0b27" target="_top" xlink:title="Generate a percentage based on input relative to the maximum possible value.">
<polygon fill="white" stroke="#666666" points="244,-79.5 137,-79.5 137,-49.5 244,-49.5 244,-79.5"/>
<text text-anchor="start" x="145" y="-67.5" font-family="Helvetica,sans-Serif" font-size="10.00">embed::percent::from</text>
<text text-anchor="middle" x="190.5" y="-56.5" font-family="Helvetica,sans-Serif" font-size="10.00">_ratio</text>
</a>
</g>
</g>
<!-- Node1&#45;&gt;Node2 -->
<g id="edge1" class="edge">
<title>Node1&#45;&gt;Node2</title>
<path fill="none" stroke="#63b8ff" d="M101.32,-64.5C109.19,-64.5 117.43,-64.5 125.56,-64.5"/>
<polygon fill="#63b8ff" stroke="#63b8ff" points="125.45,-68 135.45,-64.5 125.45,-61 125.45,-68"/>
</g>
<!-- Node3 -->
<g id="node3" class="node">
<title>Node3</title>
<g id="a_node3"><a xlink:href="classembed_1_1percent.html#a3635a4d8e47f6a65226ee6391509f3a1" target="_top" xlink:title="Construct 0% percent object.">
<polygon fill="white" stroke="#666666" points="402.5,-130 283.5,-130 283.5,-111 402.5,-111 402.5,-130"/>
<text text-anchor="middle" x="343" y="-118" font-family="Helvetica,sans-Serif" font-size="10.00">embed::percent::percent</text>
</a>
</g>
</g>
<!-- Node2&#45;&gt;Node3 -->
<g id="edge2" class="edge">
<title>Node2&#45;&gt;Node3</title>
<path fill="none" stroke="#63b8ff" d="M224.73,-79.92C241.17,-87.25 261.43,-95.84 280,-102.5 284.64,-104.16 289.51,-105.78 294.4,-107.33"/>
<polygon fill="#63b8ff" stroke="#63b8ff" points="293.01,-110.56 303.59,-110.14 295.05,-103.87 293.01,-110.56"/>
</g>
<!-- Node4 -->
<g id="node4" class="node">
<title>Node4</title>
<g id="a_node4"><a xlink:href="classembed_1_1percent.html#a18867853ebb7f7101932f298ef9ac059" target="_top" xlink:title="Get the 100% value in its raw representation.">
<polygon fill="white" stroke="#666666" points="406,-93 280,-93 280,-74 406,-74 406,-93"/>
<text text-anchor="middle" x="343" y="-81" font-family="Helvetica,sans-Serif" font-size="10.00">embed::percent::raw_max</text>
</a>
</g>
</g>
<!-- Node2&#45;&gt;Node4 -->
<g id="edge3" class="edge">
<title>Node2&#45;&gt;Node4</title>
<path fill="none" stroke="#63b8ff" d="M244.14,-71.15C251.92,-72.13 260.05,-73.15 268.16,-74.18"/>
<polygon fill="#63b8ff" stroke="#63b8ff" points="267.71,-77.65 278.07,-75.43 268.59,-70.7 267.71,-77.65"/>
</g>
<!-- Node5 -->
<g id="node5" class="node">
<title>Node5</title>
<g id="a_node5"><a xlink:href="classembed_1_1percent.html#addd3062c4b442314f9b135b532367c44" target="_top" xlink:title="Get the &#45;100% value in its raw representation.">
<polygon fill="white" stroke="#666666" points="405,-56 281,-56 281,-37 405,-37 405,-56"/>
<text text-anchor="middle" x="343" y="-44" font-family="Helvetica,sans-Serif" font-size="10.00">embed::percent::raw_min</text>
</a>
</g>
</g>
<!-- Node2&#45;&gt;Node5 -->
<g id="edge4" class="edge">
<title>Node2&#45;&gt;Node5</title>
<path fill="none" stroke="#63b8ff" d="M244.14,-58.2C252.33,-57.22 260.92,-56.2 269.46,-55.18"/>
<polygon fill="#63b8ff" stroke="#63b8ff" points="269.6,-58.68 279.12,-54.02 268.77,-51.73 269.6,-58.68"/>
</g>
<!-- Node6 -->
<g id="node6" class="node">
<title>Node6</title>
<g id="a_node6"><a xlink:href="group__utility.html#ga84ea33bb969785c47247cfe0da9aa98e" target="_top" xlink:title="Perform integer division and round the value up if the next decimal place is greater than or equal to...">
<polygon fill="white" stroke="#666666" points="405.5,-19 280.5,-19 280.5,0 405.5,0 405.5,-19"/>
<text text-anchor="middle" x="343" y="-7" font-family="Helvetica,sans-Serif" font-size="10.00">embed::rounding_division</text>
</a>
</g>
</g>
<!-- Node2&#45;&gt;Node6 -->
<g id="edge5" class="edge">
<title>Node2&#45;&gt;Node6</title>
<path fill="none" stroke="#63b8ff" d="M227.39,-49.05C243.37,-42.4 262.5,-34.73 280,-28.5 285.43,-26.57 291.17,-24.65 296.87,-22.82"/>
<polygon fill="#63b8ff" stroke="#63b8ff" points="297.77,-26.2 306.27,-19.87 295.68,-19.52 297.77,-26.2"/>
</g>
<!-- Node7 -->
<g id="node7" class="node">
<title>Node7</title>
<g id="a_node7"><a xlink:href="group__utility.html#ga6f0922a28ac81378eb689b2ab4bc299a" target="_top" xlink:title="Generic absolute value function that works for integer types.">
<polygon fill="white" stroke="#666666" points="558,-19 442,-19 442,0 558,0 558,-19"/>
<text text-anchor="middle" x="500" y="-7" font-family="Helvetica,sans-Serif" font-size="10.00">embed::absolute_value</text>
</a>
</g>
</g>
<!-- Node6&#45;&gt;Node7 -->
<g id="edge6" class="edge">
<title>Node6&#45;&gt;Node7</title>
<path fill="none" stroke="#63b8ff" d="M405.71,-9.5C413.74,-9.5 422.01,-9.5 430.15,-9.5"/>
<polygon fill="#63b8ff" stroke="#63b8ff" points="430.02,-13 440.02,-9.5 430.02,-6 430.02,-13"/>
</g>
</g>
</svg>
