<?xml version="1.0" encoding="UTF-8" standalone="no"?>
<!DOCTYPE svg PUBLIC "-//W3C//DTD SVG 1.1//EN"
 "http://www.w3.org/Graphics/SVG/1.1/DTD/svg11.dtd">
<!-- Generated by graphviz version 7.0.4 (20221203.1631)
 -->
<!-- Title: embed::mock::pwm Pages: 1 -->
<svg width="320pt" height="104pt"
 viewBox="0.00 0.00 319.50 104.00" xmlns="http://www.w3.org/2000/svg" xmlns:xlink="http://www.w3.org/1999/xlink">
<g id="graph0" class="graph" transform="scale(1 1) rotate(0) translate(4 100)">
<title>embed::mock::pwm</title>
<!-- Node1 -->
<g id="node1" class="node">
<title>Node1</title>
<g id="a_node1"><a xlink:title="Mock pwm implementation for use in unit tests and simulations with spy functions for configure() and ...">
<polygon fill="#999999" stroke="#666666" points="190.5,-19 90.5,-19 90.5,0 190.5,0 190.5,-19"/>
<text text-anchor="middle" x="140.5" y="-7" font-family="Helvetica,sans-Serif" font-size="10.00">embed::mock::pwm</text>
</a>
</g>
</g>
<!-- Node2 -->
<g id="node2" class="node">
<title>Node2</title>
<g id="a_node2"><a xlink:href="classembed_1_1pwm.html" target="_top" xlink:title="Pulse Width Modulation (PWM) channel hardware abstraction.">
<polygon fill="white" stroke="#666666" points="71,-90.5 0,-90.5 0,-71.5 71,-71.5 71,-90.5"/>
<text text-anchor="middle" x="35.5" y="-78.5" font-family="Helvetica,sans-Serif" font-size="10.00">embed::pwm</text>
</a>
</g>
</g>
<!-- Node2&#45;&gt;Node1 -->
<g id="edge1" class="edge">
<title>Node2&#45;&gt;Node1</title>
<path fill="none" stroke="#63b8ff" d="M58.23,-64.96C79.19,-51.08 109.6,-30.95 126.98,-19.45"/>
<polygon fill="#63b8ff" stroke="#63b8ff" points="56.47,-61.92 50.06,-70.36 60.33,-67.76 56.47,-61.92"/>
</g>
<!-- Node3 -->
<g id="node3" class="node">
<title>Node3</title>
<g id="a_node3"><a xlink:href="classembed_1_1spy__handler.html" target="_top" xlink:title=" ">
<polygon fill="white" stroke="#666666" points="191.5,-96 89.5,-96 89.5,-66 191.5,-66 191.5,-96"/>
<text text-anchor="start" x="97.5" y="-84" font-family="Helvetica,sans-Serif" font-size="10.00">embed::spy_handler</text>
<text text-anchor="middle" x="140.5" y="-73" font-family="Helvetica,sans-Serif" font-size="10.00">&lt; settings &gt;</text>
</a>
</g>
</g>
<!-- Node3&#45;&gt;Node1 -->
<g id="edge2" class="edge">
<title>Node3&#45;&gt;Node1</title>
<path fill="none" stroke="#9a32cd" stroke-dasharray="5,2" d="M140.5,-54.46C140.5,-42.07 140.5,-27.99 140.5,-19.18"/>
<polygon fill="#9a32cd" stroke="#9a32cd" points="137,-54.09 140.5,-64.09 144,-54.09 137,-54.09"/>
<text text-anchor="middle" x="171.5" y="-40" font-family="Helvetica,sans-Serif" font-size="10.00"> spy_configure</text>
</g>
<!-- Node4 -->
<g id="node4" class="node">
<title>Node4</title>
<g id="a_node4"><a xlink:href="classembed_1_1spy__handler.html" target="_top" xlink:title=" ">
<polygon fill="white" stroke="#666666" points="311.5,-96 209.5,-96 209.5,-66 311.5,-66 311.5,-96"/>
<text text-anchor="start" x="217.5" y="-84" font-family="Helvetica,sans-Serif" font-size="10.00">embed::spy_handler</text>
<text text-anchor="middle" x="260.5" y="-73" font-family="Helvetica,sans-Serif" font-size="10.00">&lt; embed::percent &gt;</text>
</a>
</g>
</g>
<!-- Node4&#45;&gt;Node1 -->
<g id="edge3" class="edge">
<title>Node4&#45;&gt;Node1</title>
<path fill="none" stroke="#9a32cd" stroke-dasharray="5,2" d="M236.17,-58.15C227.25,-50.82 216.8,-43 206.5,-37 194.44,-29.98 180.17,-24 167.99,-19.5"/>
<polygon fill="#9a32cd" stroke="#9a32cd" points="233.81,-60.74 243.7,-64.54 238.34,-55.4 233.81,-60.74"/>
<text text-anchor="middle" x="256" y="-40" font-family="Helvetica,sans-Serif" font-size="10.00"> spy_duty_cycle</text>
</g>
</g>
</svg>
