<?xml version="1.0" encoding="UTF-8" standalone="no"?>
<!DOCTYPE svg PUBLIC "-//W3C//DTD SVG 1.1//EN"
 "http://www.w3.org/Graphics/SVG/1.1/DTD/svg11.dtd">
<!-- Generated by graphviz version 7.0.4 (20221203.1631)
 -->
<!-- Title: embed::accelerometer::sample Pages: 1 -->
<svg width="120pt" height="203pt"
 viewBox="0.00 0.00 120.00 203.00" xmlns="http://www.w3.org/2000/svg" xmlns:xlink="http://www.w3.org/1999/xlink">
<g id="graph0" class="graph" transform="scale(1 1) rotate(0) translate(4 199)">
<title>embed::accelerometer::sample</title>
<!-- Node1 -->
<g id="node1" class="node">
<title>Node1</title>
<g id="a_node1"><a xlink:title="Representation of a sample of accelerometer data.">
<polygon fill="#999999" stroke="#666666" points="112,-30 0,-30 0,0 112,0 112,-30"/>
<text text-anchor="start" x="8" y="-18" font-family="Helvetica,sans-Serif" font-size="10.00">embed::accelerometer</text>
<text text-anchor="middle" x="56" y="-7" font-family="Helvetica,sans-Serif" font-size="10.00">::sample</text>
</a>
</g>
</g>
<!-- Node2 -->
<g id="node2" class="node">
<title>Node2</title>
<g id="a_node2"><a xlink:href="structembed_1_1accelerometer_1_1axis__t.html" target="_top" xlink:title=" ">
<polygon fill="white" stroke="#666666" points="112,-107 0,-107 0,-77 112,-77 112,-107"/>
<text text-anchor="start" x="8" y="-95" font-family="Helvetica,sans-Serif" font-size="10.00">embed::accelerometer</text>
<text text-anchor="middle" x="56" y="-84" font-family="Helvetica,sans-Serif" font-size="10.00">::axis_t</text>
</a>
</g>
</g>
<!-- Node2&#45;&gt;Node1 -->
<g id="edge1" class="edge">
<title>Node2&#45;&gt;Node1</title>
<path fill="none" stroke="#9a32cd" stroke-dasharray="5,2" d="M56,-65.23C56,-53.58 56,-40.26 56,-30.42"/>
<polygon fill="#9a32cd" stroke="#9a32cd" points="52.5,-65.03 56,-75.03 59.5,-65.03 52.5,-65.03"/>
<text text-anchor="middle" x="66" y="-51" font-family="Helvetica,sans-Serif" font-size="10.00"> axis</text>
</g>
<!-- Node3 -->
<g id="node3" class="node">
<title>Node3</title>
<g id="a_node3"><a xlink:href="classembed_1_1percent.html" target="_top" xlink:title="A integer representation of a percentage.">
<polygon fill="white" stroke="#666666" points="97.5,-195 14.5,-195 14.5,-176 97.5,-176 97.5,-195"/>
<text text-anchor="middle" x="56" y="-183" font-family="Helvetica,sans-Serif" font-size="10.00">embed::percent</text>
</a>
</g>
</g>
<!-- Node3&#45;&gt;Node2 -->
<g id="edge2" class="edge">
<title>Node3&#45;&gt;Node2</title>
<path fill="none" stroke="#9a32cd" stroke-dasharray="5,2" d="M56,-164.41C56,-147.12 56,-122.59 56,-107.25"/>
<polygon fill="#9a32cd" stroke="#9a32cd" points="52.5,-164.21 56,-174.21 59.5,-164.21 52.5,-164.21"/>
<text text-anchor="middle" x="59.5" y="-150" font-family="Helvetica,sans-Serif" font-size="10.00"> x</text>
<text text-anchor="middle" x="59.5" y="-139" font-family="Helvetica,sans-Serif" font-size="10.00">y</text>
<text text-anchor="middle" x="59.5" y="-128" font-family="Helvetica,sans-Serif" font-size="10.00">z</text>
</g>
</g>
</svg>
