<?xml version="1.0" encoding="UTF-8" standalone="no"?>
<!DOCTYPE svg PUBLIC "-//W3C//DTD SVG 1.1//EN"
 "http://www.w3.org/Graphics/SVG/1.1/DTD/svg11.dtd">
<!-- Generated by graphviz version 7.0.5 (20221223.1930)
 -->
<!-- Title: embed::mock::write_only_spi Pages: 1 -->
<svg width="192pt" height="115pt"
 viewBox="0.00 0.00 191.50 115.00" xmlns="http://www.w3.org/2000/svg" xmlns:xlink="http://www.w3.org/1999/xlink">
<g id="graph0" class="graph" transform="scale(1 1) rotate(0) translate(4 111)">
<title>embed::mock::write_only_spi</title>
<!-- Node1 -->
<g id="node1" class="node">
<title>Node1</title>
<g id="a_node1"><a xlink:title="Mock spi implementation for use in unit tests and simulations with a spy functions for configure() an...">
<polygon fill="#999999" stroke="#666666" points="131.5,-30 31.5,-30 31.5,0 131.5,0 131.5,-30"/>
<text text-anchor="start" x="39.5" y="-18" font-family="Helvetica,sans-Serif" font-size="10.00">embed::mock::write</text>
<text text-anchor="middle" x="81.5" y="-7" font-family="Helvetica,sans-Serif" font-size="10.00">_only_spi</text>
</a>
</g>
</g>
<!-- Node2 -->
<g id="node2" class="node">
<title>Node2</title>
<g id="a_node2"><a xlink:href="classembed_1_1spi.html" target="_top" xlink:title="Serial peripheral interface (SPI) communication protocol hardware abstract interface.">
<polygon fill="white" stroke="#666666" points="63,-101.5 0,-101.5 0,-82.5 63,-82.5 63,-101.5"/>
<text text-anchor="middle" x="31.5" y="-89.5" font-family="Helvetica,sans-Serif" font-size="10.00">embed::spi</text>
</a>
</g>
</g>
<!-- Node2&#45;&gt;Node1 -->
<g id="edge1" class="edge">
<title>Node2&#45;&gt;Node1</title>
<path fill="none" stroke="#63b8ff" d="M43.69,-72.72C52.4,-59.65 63.96,-42.32 71.99,-30.27"/>
<polygon fill="#63b8ff" stroke="#63b8ff" points="40.91,-70.58 38.27,-80.84 46.73,-74.46 40.91,-70.58"/>
</g>
<!-- Node3 -->
<g id="node3" class="node">
<title>Node3</title>
<g id="a_node3"><a xlink:href="classembed_1_1spy__handler.html" target="_top" xlink:title=" ">
<polygon fill="white" stroke="#666666" points="183.5,-107 81.5,-107 81.5,-77 183.5,-77 183.5,-107"/>
<text text-anchor="start" x="89.5" y="-95" font-family="Helvetica,sans-Serif" font-size="10.00">embed::spy_handler</text>
<text text-anchor="middle" x="132.5" y="-84" font-family="Helvetica,sans-Serif" font-size="10.00">&lt; settings &gt;</text>
</a>
</g>
</g>
<!-- Node3&#45;&gt;Node1 -->
<g id="edge2" class="edge">
<title>Node3&#45;&gt;Node1</title>
<path fill="none" stroke="#9a32cd" stroke-dasharray="5,2" d="M116.22,-67.05C108.02,-55 98.35,-40.78 91.3,-30.42"/>
<polygon fill="#9a32cd" stroke="#9a32cd" points="113.3,-68.99 121.82,-75.29 119.09,-65.05 113.3,-68.99"/>
<text text-anchor="middle" x="140.5" y="-51" font-family="Helvetica,sans-Serif" font-size="10.00"> spy_configure</text>
</g>
</g>
</svg>
