<?xml version="1.0" encoding="UTF-8" standalone="no"?>
<!DOCTYPE svg PUBLIC "-//W3C//DTD SVG 1.1//EN"
 "http://www.w3.org/Graphics/SVG/1.1/DTD/svg11.dtd">
<!-- Generated by graphviz version 7.0.4 (20221203.1631)
 -->
<!-- Title: embed::mock::interrupt_pin Pages: 1 -->
<svg width="382pt" height="184pt"
 viewBox="0.00 0.00 382.00 183.50" xmlns="http://www.w3.org/2000/svg" xmlns:xlink="http://www.w3.org/1999/xlink">
<g id="graph0" class="graph" transform="scale(1 1) rotate(0) translate(4 179.5)">
<title>embed::mock::interrupt_pin</title>
<!-- Node1 -->
<g id="node1" class="node">
<title>Node1</title>
<g id="a_node1"><a xlink:title="mock interrupt_pin implementation for use in unit tests and simulations.">
<polygon fill="#999999" stroke="#666666" points="374,-105.5 242,-105.5 242,-86.5 374,-86.5 374,-105.5"/>
<text text-anchor="middle" x="308" y="-93.5" font-family="Helvetica,sans-Serif" font-size="10.00">embed::mock::interrupt_pin</text>
</a>
</g>
</g>
<!-- Node2 -->
<g id="node2" class="node">
<title>Node2</title>
<g id="a_node2"><a xlink:href="classembed_1_1interrupt__pin.html" target="_top" xlink:title="Digital interrupt pin hardware abstraction.">
<polygon fill="white" stroke="#666666" points="108.5,-175.5 4.5,-175.5 4.5,-156.5 108.5,-156.5 108.5,-175.5"/>
<text text-anchor="middle" x="56.5" y="-163.5" font-family="Helvetica,sans-Serif" font-size="10.00">embed::interrupt_pin</text>
</a>
</g>
</g>
<!-- Node2&#45;&gt;Node1 -->
<g id="edge1" class="edge">
<title>Node2&#45;&gt;Node1</title>
<path fill="none" stroke="#63b8ff" d="M120.01,-155.19C151.54,-149.05 190.16,-140.5 224,-130 245.56,-123.31 269.33,-113.29 285.88,-105.86"/>
<polygon fill="#63b8ff" stroke="#63b8ff" points="119.4,-151.74 110.23,-157.05 120.71,-158.62 119.4,-151.74"/>
</g>
<!-- Node3 -->
<g id="node3" class="node">
<title>Node3</title>
<g id="a_node3"><a xlink:href="classembed_1_1spy__handler.html" target="_top" xlink:title=" ">
<polygon fill="white" stroke="#666666" points="107.5,-138 5.5,-138 5.5,-108 107.5,-108 107.5,-138"/>
<text text-anchor="start" x="13.5" y="-126" font-family="Helvetica,sans-Serif" font-size="10.00">embed::spy_handler</text>
<text text-anchor="middle" x="56.5" y="-115" font-family="Helvetica,sans-Serif" font-size="10.00">&lt; settings &gt;</text>
</a>
</g>
</g>
<!-- Node3&#45;&gt;Node1 -->
<g id="edge2" class="edge">
<title>Node3&#45;&gt;Node1</title>
<path fill="none" stroke="#9a32cd" stroke-dasharray="5,2" d="M119.21,-116.32C156.51,-112.29 203.99,-107.15 241.88,-103.05"/>
<polygon fill="#9a32cd" stroke="#9a32cd" points="119.06,-112.82 109.49,-117.37 119.81,-119.78 119.06,-112.82"/>
<text text-anchor="middle" x="177.5" y="-118" font-family="Helvetica,sans-Serif" font-size="10.00"> spy_configure</text>
</g>
<!-- Node4 -->
<g id="node4" class="node">
<title>Node4</title>
<g id="a_node4"><a xlink:title=" ">
<polygon fill="white" stroke="#666666" points="113,-89.5 0,-89.5 0,-48.5 113,-48.5 113,-89.5"/>
<text text-anchor="start" x="8" y="-77.5" font-family="Helvetica,sans-Serif" font-size="10.00">embed::spy_handler</text>
<text text-anchor="start" x="8" y="-66.5" font-family="Helvetica,sans-Serif" font-size="10.00">&lt; std::function&lt; void</text>
<text text-anchor="middle" x="56.5" y="-55.5" font-family="Helvetica,sans-Serif" font-size="10.00">(void)&gt;, trigger_edge &gt;</text>
</a>
</g>
</g>
<!-- Node4&#45;&gt;Node1 -->
<g id="edge3" class="edge">
<title>Node4&#45;&gt;Node1</title>
<path fill="none" stroke="#9a32cd" stroke-dasharray="5,2" d="M124.51,-76.25C160.94,-80.19 205.8,-85.05 241.93,-88.96"/>
<polygon fill="#9a32cd" stroke="#9a32cd" points="125.32,-72.82 115,-75.22 124.56,-79.78 125.32,-72.82"/>
<text text-anchor="middle" x="177.5" y="-89" font-family="Helvetica,sans-Serif" font-size="10.00"> spy_attach_interrupt</text>
</g>
<!-- Node5 -->
<g id="node5" class="node">
<title>Node5</title>
<g id="a_node5"><a xlink:href="classembed_1_1spy__handler.html" target="_top" xlink:title=" ">
<polygon fill="white" stroke="#666666" points="107.5,-30 5.5,-30 5.5,0 107.5,0 107.5,-30"/>
<text text-anchor="start" x="13.5" y="-18" font-family="Helvetica,sans-Serif" font-size="10.00">embed::spy_handler</text>
<text text-anchor="middle" x="56.5" y="-7" font-family="Helvetica,sans-Serif" font-size="10.00">&lt; bool &gt;</text>
</a>
</g>
</g>
<!-- Node5&#45;&gt;Node1 -->
<g id="edge4" class="edge">
<title>Node5&#45;&gt;Node1</title>
<path fill="none" stroke="#9a32cd" stroke-dasharray="5,2" d="M118.81,-29.91C150.52,-38.13 189.66,-49.07 224,-61 245.27,-68.39 268.88,-78.54 285.46,-86.01"/>
<polygon fill="#9a32cd" stroke="#9a32cd" points="119.95,-26.59 109.39,-27.49 118.21,-33.37 119.95,-26.59"/>
<text text-anchor="middle" x="177.5" y="-64" font-family="Helvetica,sans-Serif" font-size="10.00"> spy_detach_interrupt</text>
</g>
</g>
</svg>
