<?xml version="1.0" encoding="UTF-8" standalone="no"?>
<!DOCTYPE svg PUBLIC "-//W3C//DTD SVG 1.1//EN"
 "http://www.w3.org/Graphics/SVG/1.1/DTD/svg11.dtd">
<!-- Generated by graphviz version 7.0.5 (20221223.1930)
 -->
<!-- Title: embed::mock::dac Pages: 1 -->
<svg width="194pt" height="104pt"
 viewBox="0.00 0.00 194.00 104.00" xmlns="http://www.w3.org/2000/svg" xmlns:xlink="http://www.w3.org/1999/xlink">
<g id="graph0" class="graph" transform="scale(1 1) rotate(0) translate(4 100)">
<title>embed::mock::dac</title>
<!-- Node1 -->
<g id="node1" class="node">
<title>Node1</title>
<g id="a_node1"><a xlink:title="Mock dac implementation for use in unit tests and simulations with a spy function for write()">
<polygon fill="#999999" stroke="#666666" points="131.5,-19 36.5,-19 36.5,0 131.5,0 131.5,-19"/>
<text text-anchor="middle" x="84" y="-7" font-family="Helvetica,sans-Serif" font-size="10.00">embed::mock::dac</text>
</a>
</g>
</g>
<!-- Node2 -->
<g id="node2" class="node">
<title>Node2</title>
<g id="a_node2"><a xlink:href="classembed_1_1dac.html" target="_top" xlink:title="Digital to Analog Converter (DAC) hardware abstraction interface.">
<polygon fill="white" stroke="#666666" points="66,-90.5 0,-90.5 0,-71.5 66,-71.5 66,-90.5"/>
<text text-anchor="middle" x="33" y="-78.5" font-family="Helvetica,sans-Serif" font-size="10.00">embed::dac</text>
</a>
</g>
</g>
<!-- Node2&#45;&gt;Node1 -->
<g id="edge1" class="edge">
<title>Node2&#45;&gt;Node1</title>
<path fill="none" stroke="#63b8ff" d="M46.04,-62.23C56.07,-48.56 69.53,-30.22 77.43,-19.45"/>
<polygon fill="#63b8ff" stroke="#63b8ff" points="43.45,-59.84 40.35,-69.98 49.09,-63.99 43.45,-59.84"/>
</g>
<!-- Node3 -->
<g id="node3" class="node">
<title>Node3</title>
<g id="a_node3"><a xlink:href="classembed_1_1spy__handler.html" target="_top" xlink:title=" ">
<polygon fill="white" stroke="#666666" points="186,-96 84,-96 84,-66 186,-66 186,-96"/>
<text text-anchor="start" x="92" y="-84" font-family="Helvetica,sans-Serif" font-size="10.00">embed::spy_handler</text>
<text text-anchor="middle" x="135" y="-73" font-family="Helvetica,sans-Serif" font-size="10.00">&lt; embed::percent &gt;</text>
</a>
</g>
</g>
<!-- Node3&#45;&gt;Node1 -->
<g id="edge2" class="edge">
<title>Node3&#45;&gt;Node1</title>
<path fill="none" stroke="#9a32cd" stroke-dasharray="5,2" d="M117.66,-56.36C108.24,-43.53 97.17,-28.45 90.37,-19.18"/>
<polygon fill="#9a32cd" stroke="#9a32cd" points="114.8,-58.39 123.54,-64.38 120.44,-54.25 114.8,-58.39"/>
<text text-anchor="middle" x="133" y="-40" font-family="Helvetica,sans-Serif" font-size="10.00"> spy_write</text>
</g>
</g>
</svg>
