<?xml version="1.0" encoding="UTF-8" standalone="no"?>
<!DOCTYPE svg PUBLIC "-//W3C//DTD SVG 1.1//EN"
 "http://www.w3.org/Graphics/SVG/1.1/DTD/svg11.dtd">
<!-- Generated by graphviz version 7.0.4 (20221203.1631)
 -->
<!-- Title: embed::mock::input_pin Pages: 1 -->
<svg width="218pt" height="104pt"
 viewBox="0.00 0.00 217.50 104.00" xmlns="http://www.w3.org/2000/svg" xmlns:xlink="http://www.w3.org/1999/xlink">
<g id="graph0" class="graph" transform="scale(1 1) rotate(0) translate(4 100)">
<title>embed::mock::input_pin</title>
<!-- Node1 -->
<g id="node1" class="node">
<title>Node1</title>
<g id="a_node1"><a xlink:title="mock input_pin implementation for use in unit tests and simulations.">
<polygon fill="#999999" stroke="#666666" points="160.5,-19 42.5,-19 42.5,0 160.5,0 160.5,-19"/>
<text text-anchor="middle" x="101.5" y="-7" font-family="Helvetica,sans-Serif" font-size="10.00">embed::mock::input_pin</text>
</a>
</g>
</g>
<!-- Node2 -->
<g id="node2" class="node">
<title>Node2</title>
<g id="a_node2"><a xlink:href="classembed_1_1input__pin.html" target="_top" xlink:title="Digital input pin hardware abstraction interface.">
<polygon fill="white" stroke="#666666" points="89,-90.5 0,-90.5 0,-71.5 89,-71.5 89,-90.5"/>
<text text-anchor="middle" x="44.5" y="-78.5" font-family="Helvetica,sans-Serif" font-size="10.00">embed::input_pin</text>
</a>
</g>
</g>
<!-- Node2&#45;&gt;Node1 -->
<g id="edge1" class="edge">
<title>Node2&#45;&gt;Node1</title>
<path fill="none" stroke="#63b8ff" d="M58.74,-62.63C70,-48.91 85.24,-30.32 94.16,-19.45"/>
<polygon fill="#63b8ff" stroke="#63b8ff" points="56.31,-60.08 52.68,-70.03 61.73,-64.51 56.31,-60.08"/>
</g>
<!-- Node3 -->
<g id="node3" class="node">
<title>Node3</title>
<g id="a_node3"><a xlink:href="classembed_1_1spy__handler.html" target="_top" xlink:title=" ">
<polygon fill="white" stroke="#666666" points="209.5,-96 107.5,-96 107.5,-66 209.5,-66 209.5,-96"/>
<text text-anchor="start" x="115.5" y="-84" font-family="Helvetica,sans-Serif" font-size="10.00">embed::spy_handler</text>
<text text-anchor="middle" x="158.5" y="-73" font-family="Helvetica,sans-Serif" font-size="10.00">&lt; settings &gt;</text>
</a>
</g>
</g>
<!-- Node3&#45;&gt;Node1 -->
<g id="edge2" class="edge">
<title>Node3&#45;&gt;Node1</title>
<path fill="none" stroke="#9a32cd" stroke-dasharray="5,2" d="M139.42,-56.74C128.84,-43.83 116.29,-28.54 108.62,-19.18"/>
<polygon fill="#9a32cd" stroke="#9a32cd" points="136.68,-58.92 145.73,-64.43 142.09,-54.48 136.68,-58.92"/>
<text text-anchor="middle" x="162.5" y="-40" font-family="Helvetica,sans-Serif" font-size="10.00"> spy_configure</text>
</g>
</g>
</svg>
