<?xml version="1.0" encoding="UTF-8" standalone="no"?>
<!DOCTYPE svg PUBLIC "-//W3C//DTD SVG 1.1//EN"
 "http://www.w3.org/Graphics/SVG/1.1/DTD/svg11.dtd">
<!-- Generated by graphviz version 7.0.5 (20221223.1930)
 -->
<!-- Title: embed::mock::output_pin Pages: 1 -->
<svg width="344pt" height="104pt"
 viewBox="0.00 0.00 343.50 104.00" xmlns="http://www.w3.org/2000/svg" xmlns:xlink="http://www.w3.org/1999/xlink">
<g id="graph0" class="graph" transform="scale(1 1) rotate(0) translate(4 100)">
<title>embed::mock::output_pin</title>
<!-- Node1 -->
<g id="node1" class="node">
<title>Node1</title>
<g id="a_node1"><a xlink:title="mock output pin for use in unit tests and simulations">
<polygon fill="#999999" stroke="#666666" points="226.5,-19 102.5,-19 102.5,0 226.5,0 226.5,-19"/>
<text text-anchor="middle" x="164.5" y="-7" font-family="Helvetica,sans-Serif" font-size="10.00">embed::mock::output_pin</text>
</a>
</g>
</g>
<!-- Node2 -->
<g id="node2" class="node">
<title>Node2</title>
<g id="a_node2"><a xlink:href="classembed_1_1output__pin.html" target="_top" xlink:title="Digital output pin hardware abstraction.">
<polygon fill="white" stroke="#666666" points="95,-90.5 0,-90.5 0,-71.5 95,-71.5 95,-90.5"/>
<text text-anchor="middle" x="47.5" y="-78.5" font-family="Helvetica,sans-Serif" font-size="10.00">embed::output_pin</text>
</a>
</g>
</g>
<!-- Node2&#45;&gt;Node1 -->
<g id="edge1" class="edge">
<title>Node2&#45;&gt;Node1</title>
<path fill="none" stroke="#63b8ff" d="M72.19,-65.33C95.56,-51.45 129.9,-31.06 149.43,-19.45"/>
<polygon fill="#63b8ff" stroke="#63b8ff" points="70.43,-62.31 63.62,-70.42 74,-68.33 70.43,-62.31"/>
</g>
<!-- Node3 -->
<g id="node3" class="node">
<title>Node3</title>
<g id="a_node3"><a xlink:href="classembed_1_1spy__handler.html" target="_top" xlink:title=" ">
<polygon fill="white" stroke="#666666" points="215.5,-96 113.5,-96 113.5,-66 215.5,-66 215.5,-96"/>
<text text-anchor="start" x="121.5" y="-84" font-family="Helvetica,sans-Serif" font-size="10.00">embed::spy_handler</text>
<text text-anchor="middle" x="164.5" y="-73" font-family="Helvetica,sans-Serif" font-size="10.00">&lt; settings &gt;</text>
</a>
</g>
</g>
<!-- Node3&#45;&gt;Node1 -->
<g id="edge2" class="edge">
<title>Node3&#45;&gt;Node1</title>
<path fill="none" stroke="#9a32cd" stroke-dasharray="5,2" d="M164.5,-54.46C164.5,-42.07 164.5,-27.99 164.5,-19.18"/>
<polygon fill="#9a32cd" stroke="#9a32cd" points="161,-54.09 164.5,-64.09 168,-54.09 161,-54.09"/>
<text text-anchor="middle" x="195.5" y="-40" font-family="Helvetica,sans-Serif" font-size="10.00"> spy_configure</text>
</g>
<!-- Node4 -->
<g id="node4" class="node">
<title>Node4</title>
<g id="a_node4"><a xlink:href="classembed_1_1spy__handler.html" target="_top" xlink:title=" ">
<polygon fill="white" stroke="#666666" points="335.5,-96 233.5,-96 233.5,-66 335.5,-66 335.5,-96"/>
<text text-anchor="start" x="241.5" y="-84" font-family="Helvetica,sans-Serif" font-size="10.00">embed::spy_handler</text>
<text text-anchor="middle" x="284.5" y="-73" font-family="Helvetica,sans-Serif" font-size="10.00">&lt; bool &gt;</text>
</a>
</g>
</g>
<!-- Node4&#45;&gt;Node1 -->
<g id="edge3" class="edge">
<title>Node4&#45;&gt;Node1</title>
<path fill="none" stroke="#9a32cd" stroke-dasharray="5,2" d="M260.17,-58.15C251.25,-50.82 240.8,-43 230.5,-37 218.44,-29.98 204.17,-24 191.99,-19.5"/>
<polygon fill="#9a32cd" stroke="#9a32cd" points="257.81,-60.74 267.7,-64.54 262.34,-55.4 257.81,-60.74"/>
<text text-anchor="middle" x="267" y="-40" font-family="Helvetica,sans-Serif" font-size="10.00"> spy_level</text>
</g>
</g>
</svg>
