<?xml version="1.0" encoding="UTF-8" standalone="no"?>
<!DOCTYPE svg PUBLIC "-//W3C//DTD SVG 1.1//EN"
 "http://www.w3.org/Graphics/SVG/1.1/DTD/svg11.dtd">
<!-- Generated by graphviz version 7.0.4 (20221203.1631)
 -->
<!-- Title: embed::mock::motor Pages: 1 -->
<svg width="204pt" height="104pt"
 viewBox="0.00 0.00 203.50 104.00" xmlns="http://www.w3.org/2000/svg" xmlns:xlink="http://www.w3.org/1999/xlink">
<g id="graph0" class="graph" transform="scale(1 1) rotate(0) translate(4 100)">
<title>embed::mock::motor</title>
<!-- Node1 -->
<g id="node1" class="node">
<title>Node1</title>
<g id="a_node1"><a xlink:title="Mock motor implementation for use in unit tests and simulations with a spy function for power()">
<polygon fill="#999999" stroke="#666666" points="142.5,-19 38.5,-19 38.5,0 142.5,0 142.5,-19"/>
<text text-anchor="middle" x="90.5" y="-7" font-family="Helvetica,sans-Serif" font-size="10.00">embed::mock::motor</text>
</a>
</g>
</g>
<!-- Node2 -->
<g id="node2" class="node">
<title>Node2</title>
<g id="a_node2"><a xlink:href="classembed_1_1motor.html" target="_top" xlink:title="Hardware abstraction for open loop continuous rotary and linear actuators.">
<polygon fill="white" stroke="#666666" points="75,-90.5 0,-90.5 0,-71.5 75,-71.5 75,-90.5"/>
<text text-anchor="middle" x="37.5" y="-78.5" font-family="Helvetica,sans-Serif" font-size="10.00">embed::motor</text>
</a>
</g>
</g>
<!-- Node2&#45;&gt;Node1 -->
<g id="edge1" class="edge">
<title>Node2&#45;&gt;Node1</title>
<path fill="none" stroke="#63b8ff" d="M51.05,-62.23C61.48,-48.56 75.46,-30.22 83.67,-19.45"/>
<polygon fill="#63b8ff" stroke="#63b8ff" points="48.41,-59.92 45.13,-69.99 53.98,-64.16 48.41,-59.92"/>
</g>
<!-- Node3 -->
<g id="node3" class="node">
<title>Node3</title>
<g id="a_node3"><a xlink:href="classembed_1_1spy__handler.html" target="_top" xlink:title=" ">
<polygon fill="white" stroke="#666666" points="195.5,-96 93.5,-96 93.5,-66 195.5,-66 195.5,-96"/>
<text text-anchor="start" x="101.5" y="-84" font-family="Helvetica,sans-Serif" font-size="10.00">embed::spy_handler</text>
<text text-anchor="middle" x="144.5" y="-73" font-family="Helvetica,sans-Serif" font-size="10.00">&lt; embed::percent &gt;</text>
</a>
</g>
</g>
<!-- Node3&#45;&gt;Node1 -->
<g id="edge2" class="edge">
<title>Node3&#45;&gt;Node1</title>
<path fill="none" stroke="#9a32cd" stroke-dasharray="5,2" d="M126.43,-56.74C116.4,-43.83 104.51,-28.54 97.24,-19.18"/>
<polygon fill="#9a32cd" stroke="#9a32cd" points="123.48,-58.66 132.38,-64.4 129.01,-54.36 123.48,-58.66"/>
<text text-anchor="middle" x="143" y="-40" font-family="Helvetica,sans-Serif" font-size="10.00"> spy_power</text>
</g>
</g>
</svg>
