<?xml version="1.0" encoding="UTF-8" standalone="no"?>
<!DOCTYPE svg PUBLIC "-//W3C//DTD SVG 1.1//EN"
 "http://www.w3.org/Graphics/SVG/1.1/DTD/svg11.dtd">
<!-- Generated by graphviz version 7.0.4 (20221203.1631)
 -->
<!-- Title: embed::mock::timer Pages: 1 -->
<svg width="314pt" height="146pt"
 viewBox="0.00 0.00 314.00 145.50" xmlns="http://www.w3.org/2000/svg" xmlns:xlink="http://www.w3.org/1999/xlink">
<g id="graph0" class="graph" transform="scale(1 1) rotate(0) translate(4 141.5)">
<title>embed::mock::timer</title>
<!-- Node1 -->
<g id="node1" class="node">
<title>Node1</title>
<g id="a_node1"><a xlink:title="Mock timer implementation for use in unit tests and simulations with spy functions for schedule(),...">
<polygon fill="#999999" stroke="#666666" points="306,-83.5 205,-83.5 205,-64.5 306,-64.5 306,-83.5"/>
<text text-anchor="middle" x="255.5" y="-71.5" font-family="Helvetica,sans-Serif" font-size="10.00">embed::mock::timer</text>
</a>
</g>
</g>
<!-- Node2 -->
<g id="node2" class="node">
<title>Node2</title>
<g id="a_node2"><a xlink:href="classembed_1_1timer.html" target="_top" xlink:title="Timer hardware abstraction interface.">
<polygon fill="white" stroke="#666666" points="88,-137.5 16,-137.5 16,-118.5 88,-118.5 88,-137.5"/>
<text text-anchor="middle" x="52" y="-125.5" font-family="Helvetica,sans-Serif" font-size="10.00">embed::timer</text>
</a>
</g>
</g>
<!-- Node2&#45;&gt;Node1 -->
<g id="edge1" class="edge">
<title>Node2&#45;&gt;Node1</title>
<path fill="none" stroke="#63b8ff" d="M98.77,-115.73C134.66,-106.11 183.97,-92.9 217.42,-83.94"/>
<polygon fill="#63b8ff" stroke="#63b8ff" points="98.31,-112.23 89.56,-118.2 100.13,-118.99 98.31,-112.23"/>
</g>
<!-- Node3 -->
<g id="node3" class="node">
<title>Node3</title>
<g id="a_node3"><a xlink:title=" ">
<polygon fill="white" stroke="#666666" points="104,-100 0,-100 0,-48 104,-48 104,-100"/>
<text text-anchor="start" x="8" y="-88" font-family="Helvetica,sans-Serif" font-size="10.00">embed::spy_handler</text>
<text text-anchor="start" x="8" y="-77" font-family="Helvetica,sans-Serif" font-size="10.00">&lt; std::function&lt; void</text>
<text text-anchor="start" x="8" y="-66" font-family="Helvetica,sans-Serif" font-size="10.00">(void)&gt;, std::chrono::</text>
<text text-anchor="middle" x="52" y="-55" font-family="Helvetica,sans-Serif" font-size="10.00">nanoseconds &gt;</text>
</a>
</g>
</g>
<!-- Node3&#45;&gt;Node1 -->
<g id="edge2" class="edge">
<title>Node3&#45;&gt;Node1</title>
<path fill="none" stroke="#9a32cd" stroke-dasharray="5,2" d="M115.88,-74C144.46,-74 177.8,-74 204.62,-74"/>
<polygon fill="#9a32cd" stroke="#9a32cd" points="115.88,-70.5 105.88,-74 115.88,-77.5 115.88,-70.5"/>
<text text-anchor="middle" x="154.5" y="-77" font-family="Helvetica,sans-Serif" font-size="10.00"> spy_schedule</text>
</g>
<!-- Node4 -->
<g id="node4" class="node">
<title>Node4</title>
<g id="a_node4"><a xlink:href="classembed_1_1spy__handler.html" target="_top" xlink:title=" ">
<polygon fill="white" stroke="#666666" points="103,-30 1,-30 1,0 103,0 103,-30"/>
<text text-anchor="start" x="9" y="-18" font-family="Helvetica,sans-Serif" font-size="10.00">embed::spy_handler</text>
<text text-anchor="middle" x="52" y="-7" font-family="Helvetica,sans-Serif" font-size="10.00">&lt; bool &gt;</text>
</a>
</g>
</g>
<!-- Node4&#45;&gt;Node1 -->
<g id="edge3" class="edge">
<title>Node4&#45;&gt;Node1</title>
<path fill="none" stroke="#9a32cd" stroke-dasharray="5,2" d="M114.36,-28.39C137.32,-33.85 163.53,-40.62 187,-48 201.86,-52.67 218.16,-58.92 231.02,-64.12"/>
<polygon fill="#9a32cd" stroke="#9a32cd" points="115.38,-25.04 104.84,-26.16 113.78,-31.85 115.38,-25.04"/>
<text text-anchor="middle" x="154.5" y="-62" font-family="Helvetica,sans-Serif" font-size="10.00"> spy_clear</text>
<text text-anchor="middle" x="154.5" y="-51" font-family="Helvetica,sans-Serif" font-size="10.00">spy_is_running</text>
</g>
</g>
</svg>
